<?xml version="1.0" standalone="no"?>
<!DOCTYPE svg PUBLIC "-//W3C//DTD SVG 1.1//EN" "http://www.w3.org/Graphics/SVG/1.1/DTD/svg11.dtd" >
<svg xmlns="http://www.w3.org/2000/svg" xmlns:xlink="http://www.w3.org/1999/xlink" version="1.1">
<metadata>
Created by FontForge 20170910 at Tue Jul 17 17:57:10 2012
 By Jimmy Wärting
Copyright 2012 Monotype Imaging Inc. All rights reserved.
</metadata>
<defs>
<font id="ClassicGrotesquePro-Medium" horiz-adv-x="550" >
  <font-face 
    font-family="Classic Grotesque Pro Medium"
    font-weight="500"
    font-stretch="normal"
    units-per-em="1000"
    panose-1="2 11 6 4 4 5 4 2 2 3"
    ascent="763"
    descent="-237"
    x-height="494"
    cap-height="688"
    bbox="-158 -304 1300 914"
    underline-thickness="50"
    underline-position="-100"
    stemh="138"
    stemv="128"
    unicode-range="U+0020-FB04"
  />
<missing-glyph horiz-adv-x="500" 
d="M12 0v665h475v-665h-475zM88 618l162 -243l161 243h-323zM60 575v-484c0 -1 161 242 161 242zM440 575l-162 -242l162 -243v485zM411 48l-161 242l-162 -242h323z" />
    <glyph glyph-name="fi" unicode="fi" horiz-adv-x="617" 
d="M535 700v-118h-107v118h107zM535 494v-494h-107v494h107zM353 690l-20 -73h-2c-19 11 -39 16 -57 16s-30 -3 -40 -13s-13 -26 -13 -48v-78h116v-77h-116v-417h-107v417h-88v77h88v86c0 46 10 76 32 98s52 36 104 36s92 -18 103 -24z" />
    <glyph glyph-name="fl" unicode="fl" horiz-adv-x="621" 
d="M537 700v-700h-107v700h107zM353 690l-20 -73h-2c-19 11 -39 16 -57 16s-30 -3 -40 -13s-13 -26 -13 -48v-78h116v-77h-116v-417h-107v417h-88v77h88v86c0 46 10 76 32 98s52 36 104 36s92 -18 103 -24z" />
    <glyph glyph-name="f_f" unicode="ff" horiz-adv-x="675" 
d="M353 690l-20 -73h-2c-19 11 -39 16 -57 16s-30 -3 -40 -13s-13 -26 -13 -48v-78h116v-77h-116v-417h-107v417h-88v77h88v86c0 46 10 76 32 98s52 36 104 36s92 -18 103 -24zM682 690l-20 -73h-2c-19 11 -39 16 -57 16s-30 -3 -40 -13s-13 -26 -13 -48v-78h116v-77h-116
v-417h-107v417h-88v77h88v86c0 46 10 76 32 98s52 36 104 36s92 -18 103 -24z" />
    <glyph glyph-name="f_f_i" unicode="ffi" horiz-adv-x="946" 
d="M864 700v-118h-107v118h107zM864 494v-494h-107v494h107zM353 690l-20 -73h-2c-19 11 -39 16 -57 16s-30 -3 -40 -13s-13 -26 -13 -48v-78h116v-77h-116v-417h-107v417h-88v77h88v86c0 46 10 76 32 98s52 36 104 36s92 -18 103 -24zM682 690l-20 -73h-2
c-19 11 -39 16 -57 16s-30 -3 -40 -13s-13 -26 -13 -48v-78h116v-77h-116v-417h-107v417h-88v77h88v86c0 46 10 76 32 98s52 36 104 36s92 -18 103 -24z" />
    <glyph glyph-name="f_f_l" unicode="ffl" horiz-adv-x="950" 
d="M866 700v-700h-107v700h107zM353 690l-20 -73h-2c-19 11 -39 16 -57 16s-30 -3 -40 -13s-13 -26 -13 -48v-78h116v-77h-116v-417h-107v417h-88v77h88v86c0 46 10 76 32 98s52 36 104 36s92 -18 103 -24zM682 690l-20 -73h-2c-19 11 -39 16 -57 16s-30 -3 -40 -13
s-13 -26 -13 -48v-78h116v-77h-116v-417h-107v417h-88v77h88v86c0 46 10 76 32 98s52 36 104 36s92 -18 103 -24z" />
    <glyph glyph-name="f_j.dlig" unicode="fj" horiz-adv-x="615" 
d="M535 700v-118h-107v118h107zM353 690l-20 -73h-2c-19 11 -39 16 -57 16s-30 -3 -40 -13s-13 -26 -13 -48v-78h116v-77h-116v-417h-107v417h-88v77h88v86c0 46 10 76 32 98s52 36 104 36s92 -18 103 -24zM535 494v-542c0 -42 -9 -78 -33 -104s-56 -37 -98 -37
s-78 15 -86 19l18 66h2c10 -4 26 -8 40 -8s26 3 36 14s14 26 14 46v546h107z" />
    <glyph glyph-name=".notdef" horiz-adv-x="500" 
d="M12 0v665h475v-665h-475zM88 618l162 -243l161 243h-323zM60 575v-484c0 -1 161 242 161 242zM440 575l-162 -242l162 -243v485zM411 48l-161 242l-162 -242h323z" />
    <glyph glyph-name="space" unicode=" " horiz-adv-x="248" 
 />
    <glyph glyph-name="A" unicode="A" horiz-adv-x="620" 
d="M379 688l242 -688h-117l-59 178h-274l-59 -178h-113l242 688h138zM201 272h214l-91 278c-7 22 -15 50 -15 50h-2s-8 -28 -15 -50z" />
    <glyph glyph-name="B" unicode="B" horiz-adv-x="646" 
d="M600 198c0 -126 -96 -198 -240 -198h-272v688h242c136 0 232 -52 232 -168s-94 -138 -126 -143v-2c68 -5 164 -51 164 -177zM450 508c0 72 -54 90 -134 90h-119v-180h119c80 0 134 18 134 90zM487 209c0 93 -69 119 -159 119h-131v-238h131c90 0 159 26 159 119z" />
    <glyph glyph-name="C" unicode="C" horiz-adv-x="659" 
d="M521 222l97 -36c-14 -54 -71 -200 -273 -200s-301 160 -301 358s108 358 306 358s255 -154 261 -195l-97 -36c-6 41 -50 139 -166 139s-191 -98 -191 -266s74 -264 190 -264s160 88 174 142z" />
    <glyph glyph-name="D" unicode="D" horiz-adv-x="698" 
d="M654 344c0 -211 -119 -344 -330 -344h-236v688h236c211 0 330 -133 330 -344zM541 344c0 168 -79 254 -235 254h-109v-508h109c156 0 235 86 235 254z" />
    <glyph glyph-name="E" unicode="E" horiz-adv-x="568" 
d="M518 93l17 -93h-447v688h434l-17 -93h-308v-174h276v-93h-276v-235h321z" />
    <glyph glyph-name="F" unicode="F" horiz-adv-x="524" 
d="M88 688h420l-17 -93h-294v-190h261v-93h-261v-312h-109v688z" />
    <glyph glyph-name="G" unicode="G" horiz-adv-x="700" 
d="M624 402v-296s-80 -120 -274 -120s-306 144 -306 358s120 358 314 358s250 -144 250 -144l-90 -54c-12 30 -50 107 -162 107s-199 -83 -199 -267s83 -267 199 -267s161 63 161 63v172h-170v90h277z" />
    <glyph glyph-name="H" unicode="H" horiz-adv-x="716" 
d="M628 688v-688h-109v327h-322v-327h-109v688h109v-267h322v267h109z" />
    <glyph glyph-name="I" unicode="I" horiz-adv-x="289" 
d="M199 688v-688h-109v688h109z" />
    <glyph glyph-name="J" unicode="J" horiz-adv-x="502" 
d="M416 688v-518c0 -116 -70 -184 -191 -184s-191 68 -191 184c0 36 9 66 9 66l96 28s-10 -30 -10 -66c0 -80 23 -124 89 -124s89 44 89 124v490h109z" />
    <glyph glyph-name="K" unicode="K" horiz-adv-x="632" 
d="M370 424l260 -424h-128l-206 345l-99 -107v-238h-109v688h109v-318h2l292 318h127z" />
    <glyph glyph-name="L" unicode="L" horiz-adv-x="506" 
d="M481 93l17 -93h-410v688h109v-595h284z" />
    <glyph glyph-name="M" unicode="M" horiz-adv-x="880" 
d="M790 688v-688h-109v532c0 40 2 74 2 74h-2s-10 -34 -22 -74l-163 -532h-117l-163 532c-12 40 -22 74 -22 74h-2s2 -34 2 -74v-532h-104v688h180l148 -492c11 -36 21 -84 21 -84h2s10 48 21 84l148 492h180z" />
    <glyph glyph-name="N" unicode="N" horiz-adv-x="716" 
d="M628 688v-688h-124l-264 460c-23 40 -48 90 -48 90h-2s2 -50 2 -90v-460h-104v688h134l254 -444c23 -40 48 -90 48 -90h2s-2 50 -2 90v444h104z" />
    <glyph glyph-name="O" unicode="O" horiz-adv-x="710" 
d="M666 344c0 -200 -110 -358 -311 -358s-311 158 -311 358s110 358 311 358s311 -158 311 -358zM553 344c0 140 -59 267 -198 267s-198 -127 -198 -267s59 -267 198 -267s198 127 198 267z" />
    <glyph glyph-name="P" unicode="P" horiz-adv-x="626" 
d="M584 491c0 -134 -98 -197 -232 -197h-155v-294h-109v688h264c134 0 232 -63 232 -197zM470 491c0 80 -56 107 -136 107h-137v-214h137c80 0 136 27 136 107z" />
    <glyph glyph-name="Q" unicode="Q" horiz-adv-x="710" 
d="M666 344c0 -201 -103 -282 -127 -300c19 -38 57 -84 85 -101l-79 -52c-36 18 -75 77 -90 110c0 0 -39 -15 -100 -15c-201 0 -311 157 -311 358s110 358 311 358s311 -157 311 -358zM552 344c0 139 -58 266 -197 266s-197 -127 -197 -266s58 -266 197 -266c33 0 52 7 52 7
c-19 33 -56 79 -84 96l79 52c36 -18 75 -77 84 -100c10 11 66 72 66 211z" />
    <glyph glyph-name="R" unicode="R" horiz-adv-x="660" 
d="M434 320l196 -320h-128l-186 312h-119v-312h-109v688h264c148 0 238 -64 238 -188s-90 -167 -156 -180zM476 500c0 76 -54 98 -128 98h-151v-196h151c74 0 128 22 128 98z" />
    <glyph glyph-name="S" unicode="S" horiz-adv-x="584" 
d="M541 192c0 -128 -105 -207 -239 -207s-234 81 -274 187l92 50c38 -100 110 -146 184 -146s125 42 125 106s-45 92 -107 112l-86 28c-92 30 -182 80 -182 194s96 186 226 186s214 -84 238 -142l-79 -56c-24 58 -87 107 -159 107s-115 -35 -115 -89s43 -76 103 -96l86 -28
c78 -26 187 -78 187 -206z" />
    <glyph glyph-name="T" unicode="T" horiz-adv-x="533" 
d="M7 688h527l-17 -93h-196v-595h-109v595h-205v93z" />
    <glyph glyph-name="U" unicode="U" horiz-adv-x="708" 
d="M622 688v-438c0 -172 -96 -265 -268 -265s-268 93 -268 265v438h109v-430c0 -112 47 -175 159 -175s159 63 159 175v430h109z" />
    <glyph glyph-name="V" unicode="V" horiz-adv-x="612" 
d="M490 688h112l-227 -688h-138l-227 688h116l156 -496c10 -32 25 -88 25 -88h2s15 56 25 88z" />
    <glyph glyph-name="W" unicode="W" horiz-adv-x="910" 
d="M790 688h102l-182 -688h-116l-125 494c-8 30 -13 60 -13 60h-2s-5 -30 -13 -60l-125 -494h-116l-182 688h112l118 -474c8 -30 15 -72 15 -72h2s7 42 15 72l119 474h122l119 -474c8 -30 15 -72 15 -72h2s7 42 15 72z" />
    <glyph glyph-name="X" unicode="X" horiz-adv-x="628" 
d="M388 360l226 -360h-130l-138 228c-15 26 -35 66 -35 66h-2s-19 -40 -35 -66l-138 -228h-122l226 360l-210 328h128l124 -204c16 -26 35 -66 35 -66h2s19 40 35 66l124 204h120z" />
    <glyph glyph-name="Y" unicode="Y" horiz-adv-x="587" 
d="M466 688h111l-229 -382v-306h-109v306l-229 382h116l126 -212c21 -36 43 -80 43 -80h2s22 44 43 80z" />
    <glyph glyph-name="Z" unicode="Z" horiz-adv-x="580" 
d="M545 93v-93h-510v87l325 453c20 28 42 54 42 54v2s-42 -1 -84 -1h-268v93h480v-87l-325 -453c-21 -28 -42 -54 -42 -54v-2s42 1 84 1h298z" />
    <glyph glyph-name="a" unicode="a" horiz-adv-x="526" 
d="M492 74l14 -64s-32 -22 -78 -22s-64 18 -74 30s-18 30 -18 42h-2c-4 -12 -34 -74 -130 -74s-164 64 -164 162s76 132 102 142s85 23 108 28s70 14 85 20v22c0 50 -27 73 -91 73s-84 -33 -93 -77l-91 24c16 78 68 127 192 127s190 -51 190 -159v-248c0 -24 10 -32 24 -32
s24 6 24 6h2zM336 172v96h-2c-20 -6 -46 -12 -70 -18s-42 -10 -60 -18s-56 -26 -56 -80s36 -84 88 -84s100 34 100 104z" />
    <glyph glyph-name="b" unicode="b" horiz-adv-x="579" 
d="M537 250c0 -138 -71 -264 -205 -264c-110 0 -143 86 -143 86h-2v-72h-105v700h107v-274h2s41 82 149 82c132 0 197 -120 197 -258zM428 250c0 90 -28 177 -116 177s-123 -85 -123 -155v-44c0 -72 29 -159 117 -159s122 91 122 181z" />
    <glyph glyph-name="c" unicode="c" horiz-adv-x="517" 
d="M386 164l96 -20c-10 -50 -66 -158 -214 -158s-228 112 -228 262s88 259 236 259s196 -111 200 -155l-96 -22c-4 44 -30 94 -106 94s-125 -62 -125 -176s47 -178 121 -178s106 44 116 94z" />
    <glyph glyph-name="d" unicode="d" horiz-adv-x="579" 
d="M42 244c0 138 71 264 205 264c110 0 141 -82 141 -82h2v274h107v-700h-105v68h-2s-43 -82 -151 -82c-132 0 -197 120 -197 258zM151 246c0 -90 28 -177 116 -177s123 85 123 155v44c0 72 -29 159 -117 159s-122 -91 -122 -181z" />
    <glyph glyph-name="e" unicode="e" horiz-adv-x="524" 
d="M484 254v-28h-335v-8c0 -94 47 -151 119 -151s110 47 123 80l90 -30c-15 -33 -71 -131 -215 -131s-226 102 -226 262s92 260 228 260s216 -98 216 -254zM149 304h227v4c0 64 -32 123 -108 123s-114 -55 -119 -127z" />
    <glyph glyph-name="f" unicode="f" horiz-adv-x="346" 
d="M353 690l-20 -73h-2c-19 11 -39 16 -57 16s-30 -3 -40 -13s-13 -26 -13 -48v-78h116v-77h-116v-417h-107v417h-88v77h88v86c0 46 10 76 32 98s52 36 104 36s92 -18 103 -24z" />
    <glyph glyph-name="g" unicode="g" horiz-adv-x="572" 
d="M492 494v-503c0 -88 -50 -180 -219 -180s-202 92 -212 136l96 24c8 -35 23 -86 112 -86s116 49 116 95v112h-2s-29 -84 -145 -84c-120 0 -193 106 -193 250s81 250 201 250c110 0 139 -80 139 -80h2v66h105zM385 234v50c0 68 -31 144 -113 144s-118 -76 -118 -168
s30 -170 112 -170s119 76 119 144z" />
    <glyph glyph-name="h" unicode="h" horiz-adv-x="588" 
d="M510 328v-328h-107v300c0 52 -7 123 -89 123s-125 -71 -125 -151v-272h-107v700h107v-282h2c11 22 51 90 155 90s164 -66 164 -180z" />
    <glyph glyph-name="i" unicode="i" horiz-adv-x="271" 
d="M189 700v-118h-107v118h107zM189 494v-494h-107v494h107z" />
    <glyph glyph-name="j" unicode="j" horiz-adv-x="271" 
d="M191 700v-118h-107v118h107zM191 494v-542c0 -42 -9 -78 -33 -104s-56 -37 -98 -37s-78 15 -86 19l18 66h2c10 -4 26 -8 40 -8s26 3 36 14s14 26 14 46v546h107z" />
    <glyph glyph-name="k" unicode="k" horiz-adv-x="522" 
d="M331 317l187 -317h-118l-141 246l-70 -70v-176h-107v700h107v-332c0 -36 -2 -81 -2 -81h2s19 25 35 41l158 166h126z" />
    <glyph glyph-name="l" unicode="l" horiz-adv-x="275" 
d="M191 700v-700h-107v700h107z" />
    <glyph glyph-name="m" unicode="m" horiz-adv-x="875" 
d="M797 332v-332h-107v304c0 56 -9 116 -78 116s-120 -60 -120 -140v-280h-107v304c0 56 -9 116 -78 116s-120 -60 -120 -140v-280h-107v494h105v-76h2c19 36 63 90 151 90s128 -54 140 -92h2c18 38 72 92 160 92s157 -52 157 -176z" />
    <glyph glyph-name="n" unicode="n" horiz-adv-x="586" 
d="M508 328v-328h-107v300c0 52 -7 123 -89 123s-125 -71 -125 -151v-272h-107v494h105v-76h2c11 22 53 90 157 90s164 -66 164 -180z" />
    <glyph glyph-name="o" unicode="o" horiz-adv-x="552" 
d="M512 247c0 -149 -86 -261 -236 -261s-236 112 -236 261s86 261 236 261s236 -112 236 -261zM403 247c0 93 -33 179 -127 179s-127 -86 -127 -179s33 -179 127 -179s127 86 127 179z" />
    <glyph glyph-name="p" unicode="p" horiz-adv-x="579" 
d="M537 250c0 -138 -71 -264 -205 -264c-110 0 -141 84 -141 84h-2v-246h-107v670h105v-66h2s43 80 151 80c132 0 197 -120 197 -258zM428 250c0 90 -28 177 -116 177s-123 -85 -123 -155v-44c0 -72 29 -159 117 -159s122 91 122 181z" />
    <glyph glyph-name="q" unicode="q" horiz-adv-x="577" 
d="M42 244c0 138 71 264 205 264c110 0 143 -82 143 -82h2v68h105v-670h-107v244h-2s-41 -82 -149 -82c-132 0 -197 120 -197 258zM151 246c0 -90 28 -177 116 -177s123 85 123 155v44c0 72 -29 159 -117 159s-122 -91 -122 -181z" />
    <glyph glyph-name="r" unicode="r" horiz-adv-x="388" 
d="M373 489l-16 -92h-2c-6 4 -23 14 -53 14s-51 -10 -68 -26s-47 -57 -47 -141v-244h-107v494h105v-92h2c7 34 25 60 39 74s38 30 80 30s67 -17 67 -17z" />
    <glyph glyph-name="s" unicode="s" horiz-adv-x="469" 
d="M431 140c0 -100 -91 -154 -187 -154s-178 48 -215 139l88 34c24 -59 71 -94 127 -94s84 31 84 69s-34 58 -86 72l-44 12c-84 24 -150 60 -150 150s81 140 179 140s166 -54 191 -108l-74 -47c-24 52 -70 77 -118 77s-78 -22 -78 -58s36 -52 80 -64l44 -12
c72 -20 159 -56 159 -156z" />
    <glyph glyph-name="t" unicode="t" horiz-adv-x="373" 
d="M329 83l18 -74s-41 -23 -107 -23s-127 30 -127 138v293h-87v77h87v135l105 24h2v-159h122v-77h-122v-291c0 -44 22 -54 54 -54s53 11 53 11h2z" />
    <glyph glyph-name="u" unicode="u" horiz-adv-x="582" 
d="M78 166v328h107v-299c0 -52 5 -122 87 -122s123 70 123 150v271h107v-494h-105v76h-2c-11 -22 -51 -90 -155 -90s-162 66 -162 180z" />
    <glyph glyph-name="v" unicode="v" horiz-adv-x="486" 
d="M373 494h103l-172 -494h-122l-172 494h111l107 -330c8 -24 18 -60 18 -60h2s10 36 18 60z" />
    <glyph glyph-name="w" unicode="w" horiz-adv-x="746" 
d="M622 494h101l-141 -494h-114l-82 322c-8 30 -12 58 -12 58h-2s-4 -28 -12 -58l-82 -322h-114l-141 494h108l79 -314c8 -30 15 -68 15 -68h2s7 38 15 68l80 314h109l80 -314c8 -30 15 -68 15 -68h2s7 38 15 68z" />
    <glyph glyph-name="x" unicode="x" horiz-adv-x="482" 
d="M314 258l160 -258h-119l-87 146c-11 18 -29 54 -29 54h-2s-18 -36 -29 -54l-87 -146h-113l160 258l-150 236h120l76 -128c17 -30 29 -54 29 -54h2s12 24 29 54l76 128h114z" />
    <glyph glyph-name="y" unicode="y" horiz-adv-x="490" 
d="M377 494h103l-186 -534c-16 -46 -32 -82 -60 -110s-62 -39 -112 -39s-92 19 -96 21l22 76h2c4 -2 30 -12 56 -12s42 8 54 22s18 28 24 46l10 30l-178 500h111l105 -330c8 -24 18 -60 18 -60h2s10 36 18 60z" />
    <glyph glyph-name="z" unicode="z" horiz-adv-x="450" 
d="M418 77v-77h-386v66l202 286c19 28 50 65 50 65v2s-36 -1 -72 -1h-168v76h362v-68l-200 -283c-20 -29 -50 -65 -50 -65v-2s36 1 72 1h190z" />
    <glyph glyph-name="germandbls" unicode="&#xdf;" horiz-adv-x="580" 
d="M536 220c0 -160 -96 -234 -190 -234s-132 49 -132 49l52 67c10 -12 30 -27 64 -27s97 19 97 145s-67 170 -139 170h-31v77h29c56 0 91 32 91 86s-45 84 -91 84s-68 -21 -78 -33s-21 -34 -21 -82v-522h-107v520c0 72 24 112 48 136s72 58 164 58s186 -50 186 -156
s-89 -125 -89 -125v-2c35 -7 147 -51 147 -211z" />
    <glyph glyph-name="Acircumflex" unicode="&#xc2;" horiz-adv-x="620" 
d="M367 894l68 -136h-70l-54 76h-2l-54 -76h-70l68 136h114zM379 688l242 -688h-117l-59 178h-274l-59 -178h-113l242 688h138zM201 272h214l-91 278c-7 22 -15 50 -15 50h-2s-8 -28 -15 -50z" />
    <glyph glyph-name="acircumflex" unicode="&#xe2;" horiz-adv-x="524" 
d="M314 700l68 -136h-68l-56 76h-2l-56 -76h-68l68 136h114zM492 74l14 -64s-32 -22 -78 -22s-64 18 -74 30s-18 30 -18 42h-2c-4 -12 -34 -74 -130 -74s-164 64 -164 162s76 132 102 142s85 23 108 28s70 14 85 20v22c0 50 -27 73 -91 73s-84 -33 -93 -77l-91 24
c16 78 68 127 192 127s190 -51 190 -159v-248c0 -24 10 -32 24 -32s24 6 24 6h2zM336 172v96h-2c-20 -6 -46 -12 -70 -18s-42 -10 -60 -18s-56 -26 -56 -80s36 -84 88 -84s100 34 100 104z" />
    <glyph glyph-name="Agrave" unicode="&#xc0;" horiz-adv-x="620" 
d="M289 894l68 -136h-80l-98 136h110zM379 688l242 -688h-117l-59 178h-274l-59 -178h-113l242 688h138zM201 272h214l-91 278c-7 22 -15 50 -15 50h-2s-8 -28 -15 -50z" />
    <glyph glyph-name="agrave" unicode="&#xe0;" horiz-adv-x="526" 
d="M240 700l66 -136h-78l-98 136h110zM492 74l14 -64s-32 -22 -78 -22s-64 18 -74 30s-18 30 -18 42h-2c-4 -12 -34 -74 -130 -74s-164 64 -164 162s76 132 102 142s85 23 108 28s70 14 85 20v22c0 50 -27 73 -91 73s-84 -33 -93 -77l-91 24c16 78 68 127 192 127
s190 -51 190 -159v-248c0 -24 10 -32 24 -32s24 6 24 6h2zM336 172v96h-2c-20 -6 -46 -12 -70 -18s-42 -10 -60 -18s-56 -26 -56 -80s36 -84 88 -84s100 34 100 104z" />
    <glyph glyph-name="Atilde" unicode="&#xc3;" horiz-adv-x="620" 
d="M379 688l242 -688h-117l-59 178h-274l-59 -178h-113l242 688h138zM201 272h214l-91 278c-7 22 -15 50 -15 50h-2s-8 -28 -15 -50zM411 882l54 -14l-2 -18c-6 -56 -40 -90 -92 -90s-76 31 -79 34l-2 2c-2 2 -19 24 -39 24s-34 -12 -40 -40l-2 -10l-54 14l2 18
c6 56 40 90 92 90s76 -31 79 -34l2 -2c2 -2 19 -24 39 -24s34 12 40 40z" />
    <glyph glyph-name="Aacute" unicode="&#xc1;" horiz-adv-x="620" 
d="M331 894h110l-98 -136h-80zM379 688l242 -688h-117l-59 178h-274l-59 -178h-113l242 688h138zM201 272h214l-91 278c-7 22 -15 50 -15 50h-2s-8 -28 -15 -50z" />
    <glyph glyph-name="aacute" unicode="&#xe1;" horiz-adv-x="526" 
d="M270 700h110l-98 -136h-78zM492 74l14 -64s-32 -22 -78 -22s-64 18 -74 30s-18 30 -18 42h-2c-4 -12 -34 -74 -130 -74s-164 64 -164 162s76 132 102 142s85 23 108 28s70 14 85 20v22c0 50 -27 73 -91 73s-84 -33 -93 -77l-91 24c16 78 68 127 192 127s190 -51 190 -159
v-248c0 -24 10 -32 24 -32s24 6 24 6h2zM336 172v96h-2c-20 -6 -46 -12 -70 -18s-42 -10 -60 -18s-56 -26 -56 -80s36 -84 88 -84s100 34 100 104z" />
    <glyph glyph-name="Adieresis" unicode="&#xc4;" horiz-adv-x="620" 
d="M431 894v-136h-83v136h83zM273 894v-136h-83v136h83zM379 688l242 -688h-117l-59 178h-274l-59 -178h-113l242 688h138zM201 272h214l-91 278c-7 22 -15 50 -15 50h-2s-8 -28 -15 -50z" />
    <glyph glyph-name="adieresis" unicode="&#xe4;" horiz-adv-x="526" 
d="M380 700v-136h-82v136h82zM223 700v-136h-82v136h82zM492 74l14 -64s-32 -22 -78 -22s-64 18 -74 30s-18 30 -18 42h-2c-4 -12 -34 -74 -130 -74s-164 64 -164 162s76 132 102 142s85 23 108 28s70 14 85 20v22c0 50 -27 73 -91 73s-84 -33 -93 -77l-91 24
c16 78 68 127 192 127s190 -51 190 -159v-248c0 -24 10 -32 24 -32s24 6 24 6h2zM336 172v96h-2c-20 -6 -46 -12 -70 -18s-42 -10 -60 -18s-56 -26 -56 -80s36 -84 88 -84s100 34 100 104z" />
    <glyph glyph-name="Aring" unicode="&#xc5;" horiz-adv-x="620" 
d="M379 688l242 -688h-117l-59 178h-274l-59 -178h-113l242 688h138zM201 272h214l-91 278c-7 22 -15 50 -15 50h-2s-8 -28 -15 -50zM421 826c0 -60 -51 -88 -111 -88s-111 28 -111 88s51 88 111 88s111 -28 111 -88zM357 826c0 28 -19 45 -47 45s-47 -17 -47 -45
s19 -45 47 -45s47 17 47 45z" />
    <glyph glyph-name="aring" unicode="&#xe5;" horiz-adv-x="526" 
d="M367 632c0 -60 -51 -88 -111 -88s-111 28 -111 88s51 88 111 88s111 -28 111 -88zM303 632c0 28 -19 45 -47 45s-47 -17 -47 -45s19 -45 47 -45s47 17 47 45zM492 74l14 -64s-32 -22 -78 -22s-64 18 -74 30s-18 30 -18 42h-2c-4 -12 -34 -74 -130 -74s-164 64 -164 162
s76 132 102 142s85 23 108 28s70 14 85 20v22c0 50 -27 73 -91 73s-84 -33 -93 -77l-91 24c16 78 68 127 192 127s190 -51 190 -159v-248c0 -24 10 -32 24 -32s24 6 24 6h2zM336 172v96h-2c-20 -6 -46 -12 -70 -18s-42 -10 -60 -18s-56 -26 -56 -80s36 -84 88 -84
s100 34 100 104z" />
    <glyph glyph-name="Amacron" unicode="&#x100;" horiz-adv-x="620" 
d="M453 860v-68h-286v68h286zM379 688l242 -688h-117l-59 178h-274l-59 -178h-113l242 688h138zM201 272h214l-91 278c-7 22 -15 50 -15 50h-2s-8 -28 -15 -50z" />
    <glyph glyph-name="amacron" unicode="&#x101;" horiz-adv-x="526" 
d="M418 666v-68h-310v68h310zM492 74l14 -64s-32 -22 -78 -22s-64 18 -74 30s-18 30 -18 42h-2c-4 -12 -34 -74 -130 -74s-164 64 -164 162s76 132 102 142s85 23 108 28s70 14 85 20v22c0 50 -27 73 -91 73s-84 -33 -93 -77l-91 24c16 78 68 127 192 127s190 -51 190 -159
v-248c0 -24 10 -32 24 -32s24 6 24 6h2zM336 172v96h-2c-20 -6 -46 -12 -70 -18s-42 -10 -60 -18s-56 -26 -56 -80s36 -84 88 -84s100 34 100 104z" />
    <glyph glyph-name="Abreve" unicode="&#x102;" horiz-adv-x="620" 
d="M394 892l62 -20c-18 -72 -66 -110 -146 -110s-128 38 -146 110l62 20c9 -36 36 -66 84 -66s75 30 84 66zM379 688l242 -688h-117l-59 178h-274l-59 -178h-113l242 688h138zM201 272h214l-91 278c-7 22 -15 50 -15 50h-2s-8 -28 -15 -50z" />
    <glyph glyph-name="abreve" unicode="&#x103;" horiz-adv-x="526" 
d="M346 698l62 -20c-18 -72 -66 -110 -146 -110s-128 38 -146 110l62 20c9 -36 36 -66 84 -66s75 30 84 66zM492 74l14 -64s-32 -22 -78 -22s-64 18 -74 30s-18 30 -18 42h-2c-4 -12 -34 -74 -130 -74s-164 64 -164 162s76 132 102 142s85 23 108 28s70 14 85 20v22
c0 50 -27 73 -91 73s-84 -33 -93 -77l-91 24c16 78 68 127 192 127s190 -51 190 -159v-248c0 -24 10 -32 24 -32s24 6 24 6h2zM336 172v96h-2c-20 -6 -46 -12 -70 -18s-42 -10 -60 -18s-56 -26 -56 -80s36 -84 88 -84s100 34 100 104z" />
    <glyph glyph-name="Aogonek" unicode="&#x104;" horiz-adv-x="620" 
d="M379 688l242 -688c-25 0 -65 -6 -95 -18s-54 -36 -54 -70s20 -52 48 -52s42 14 42 14h2l20 -58s-28 -22 -86 -22s-108 40 -108 106s46 112 102 132l-47 146h-274l-59 -178h-113l242 688h138zM201 272h214l-91 278c-7 22 -15 50 -15 50h-2s-8 -28 -15 -50z" />
    <glyph glyph-name="aogonek" unicode="&#x105;" horiz-adv-x="526" 
d="M492 74l14 -64s-26 -18 -68 -22c-12 -4 -26 -8 -40 -16s-38 -26 -38 -60s20 -52 48 -52s42 14 42 14h2l20 -58s-28 -22 -86 -22s-108 40 -108 106c0 65 52 96 84 108v2c-14 10 -26 38 -26 50h-2c-4 -12 -44 -74 -130 -74c-96 0 -164 64 -164 162s76 132 102 142
s85 23 108 28s70 14 85 20v22c0 50 -27 73 -91 73s-84 -33 -93 -77l-91 24c16 78 68 127 192 127s190 -51 190 -159v-248c0 -24 10 -32 24 -32s24 6 24 6h2zM336 172v96h-2c-20 -6 -46 -12 -70 -18s-42 -10 -60 -18s-56 -26 -56 -80s36 -84 88 -84s100 34 100 104z" />
    <glyph glyph-name="atilde" unicode="&#xe3;" horiz-adv-x="526" 
d="M364 688l54 -14l-2 -18c-6 -56 -40 -90 -92 -90s-76 31 -79 34l-2 2c-2 2 -19 24 -39 24s-34 -12 -40 -40l-2 -10l-54 14l2 18c6 56 40 90 92 90s76 -31 79 -34l2 -2c2 -2 19 -24 39 -24s34 12 40 40zM492 74l14 -64s-32 -22 -78 -22s-64 18 -74 30s-18 30 -18 42h-2
c-4 -12 -34 -74 -130 -74s-164 64 -164 162s76 132 102 142s85 23 108 28s70 14 85 20v22c0 50 -27 73 -91 73s-84 -33 -93 -77l-91 24c16 78 68 127 192 127s190 -51 190 -159v-248c0 -24 10 -32 24 -32s24 6 24 6h2zM336 172v96h-2c-20 -6 -46 -12 -70 -18
s-42 -10 -60 -18s-56 -26 -56 -80s36 -84 88 -84s100 34 100 104z" />
    <glyph glyph-name="AE" unicode="&#xc6;" horiz-adv-x="910" 
d="M860 93l17 -93h-422v178h-261l-108 -178h-118l424 688h472l-17 -93h-283v-174h251v-93h-251v-235h296zM250 272h205v252c0 48 1 88 1 88h-2s-23 -39 -52 -88z" />
    <glyph glyph-name="ae" unicode="&#xe6;" horiz-adv-x="812" 
d="M774 254v-28h-335v-8c0 -94 47 -151 119 -151s110 47 123 80l90 -30c-15 -33 -71 -131 -215 -131s-186 101 -186 101h-2c-20 -51 -66 -101 -164 -101s-166 64 -166 162s76 132 102 142s85 23 108 28s70 14 85 20v22c0 50 -27 73 -91 73s-84 -33 -93 -77l-91 24
c16 78 68 127 192 127s156 -53 159 -59h2s37 60 147 60c136 0 216 -98 216 -254zM439 304h227v4c0 64 -32 123 -108 123s-114 -55 -119 -127zM334 172v96h-2c-20 -6 -46 -12 -70 -18s-42 -10 -60 -18s-56 -26 -56 -80s36 -84 88 -84s100 34 100 104z" />
    <glyph glyph-name="Ccedilla" unicode="&#xc7;" horiz-adv-x="659" 
d="M521 222l97 -36c-14 -54 -68 -184 -237 -198l-49 -142h-120l80 144c-152 22 -248 156 -248 354s108 358 306 358s255 -154 261 -195l-97 -36c-6 41 -50 139 -166 139s-191 -98 -191 -266s74 -264 190 -264s160 88 174 142z" />
    <glyph glyph-name="ccedilla" unicode="&#xe7;" horiz-adv-x="517" 
d="M386 164l96 -20c-10 -50 -60 -141 -179 -156l-45 -130h-110l74 132c-105 18 -182 108 -182 258s88 259 236 259s196 -111 200 -155l-96 -22c-4 44 -30 94 -106 94s-125 -62 -125 -176s47 -178 121 -178s106 44 116 94z" />
    <glyph glyph-name="Cacute" unicode="&#x106;" horiz-adv-x="659" 
d="M362 894h110l-98 -136h-80zM521 222l97 -36c-14 -54 -71 -200 -273 -200s-301 160 -301 358s108 358 306 358s255 -154 261 -195l-97 -36c-6 41 -50 139 -166 139s-191 -98 -191 -266s74 -264 190 -264s160 88 174 142z" />
    <glyph glyph-name="cacute" unicode="&#x107;" horiz-adv-x="517" 
d="M288 700h110l-98 -136h-78zM386 164l96 -20c-10 -50 -66 -158 -214 -158s-228 112 -228 262s88 259 236 259s196 -111 200 -155l-96 -22c-4 44 -30 94 -106 94s-125 -62 -125 -176s47 -178 121 -178s106 44 116 94z" />
    <glyph glyph-name="Ccircumflex" unicode="&#x108;" horiz-adv-x="659" 
d="M404 894l68 -136h-70l-54 76h-2l-54 -76h-70l68 136h114zM521 222l97 -36c-14 -54 -71 -200 -273 -200s-301 160 -301 358s108 358 306 358s255 -154 261 -195l-97 -36c-6 41 -50 139 -166 139s-191 -98 -191 -266s74 -264 190 -264s160 88 174 142z" />
    <glyph glyph-name="ccircumflex" unicode="&#x109;" horiz-adv-x="517" 
d="M330 700l68 -136h-70l-54 76h-2l-54 -76h-70l68 136h114zM386 164l96 -20c-10 -50 -66 -158 -214 -158s-228 112 -228 262s88 259 236 259s196 -111 200 -155l-96 -22c-4 44 -30 94 -106 94s-125 -62 -125 -176s47 -178 121 -178s106 44 116 94z" />
    <glyph glyph-name="Cdotaccent" unicode="&#x10a;" horiz-adv-x="659" 
d="M392 887v-122h-87v122h87zM521 222l97 -36c-14 -54 -71 -200 -273 -200s-301 160 -301 358s108 358 306 358s255 -154 261 -195l-97 -36c-6 41 -50 139 -166 139s-191 -98 -191 -266s74 -264 190 -264s160 88 174 142z" />
    <glyph glyph-name="Ccaron" unicode="&#x10c;" horiz-adv-x="659" 
d="M404 894h70l-68 -136h-114l-68 136h70l54 -76h2zM521 222l97 -36c-14 -54 -71 -200 -273 -200s-301 160 -301 358s108 358 306 358s255 -154 261 -195l-97 -36c-6 41 -50 139 -166 139s-191 -98 -191 -266s74 -264 190 -264s160 88 174 142z" />
    <glyph glyph-name="cdotaccent" unicode="&#x10b;" horiz-adv-x="517" 
d="M317 693v-122h-86v122h86zM386 164l96 -20c-10 -50 -66 -158 -214 -158s-228 112 -228 262s88 259 236 259s196 -111 200 -155l-96 -22c-4 44 -30 94 -106 94s-125 -62 -125 -176s47 -178 121 -178s106 44 116 94z" />
    <glyph glyph-name="ccaron" unicode="&#x10d;" horiz-adv-x="517" 
d="M330 700h70l-68 -136h-114l-68 136h70l54 -76h2zM386 164l96 -20c-10 -50 -66 -158 -214 -158s-228 112 -228 262s88 259 236 259s196 -111 200 -155l-96 -22c-4 44 -30 94 -106 94s-125 -62 -125 -176s47 -178 121 -178s106 44 116 94z" />
    <glyph glyph-name="Dcaron" unicode="&#x10e;" horiz-adv-x="698" 
d="M654 344c0 -211 -119 -344 -330 -344h-236v688h236c211 0 330 -133 330 -344zM541 344c0 168 -79 254 -235 254h-109v-508h109c156 0 235 86 235 254zM398 894h70l-68 -136h-114l-68 136h70l54 -76h2z" />
    <glyph glyph-name="dcaron" unicode="&#x10f;" horiz-adv-x="654" 
d="M42 244c0 138 71 264 205 264c110 0 141 -82 141 -82h2v274h107v-700h-105v68h-2s-43 -82 -151 -82c-132 0 -197 120 -197 258zM151 246c0 -90 28 -177 116 -177s123 85 123 155v44c0 72 -29 159 -117 159s-122 -91 -122 -181zM612 688h106l-68 -206h-70z" />
    <glyph glyph-name="Dcroat" unicode="&#x110;" horiz-adv-x="698" 
d="M654 344c0 -211 -119 -344 -330 -344h-236v330h-68v89h68v269h236c211 0 330 -133 330 -344zM541 344c0 168 -79 254 -235 254h-109v-179h163v-89h-163v-240h109c156 0 235 86 235 254z" />
    <glyph glyph-name="dcroat" unicode="&#x111;" horiz-adv-x="577" 
d="M42 244c0 138 71 264 205 264c110 0 141 -82 141 -82h2v148h-149v64h149v62h107v-62h56v-64h-56v-574h-105v68h-2s-43 -82 -151 -82c-132 0 -197 120 -197 258zM151 246c0 -90 28 -177 116 -177s123 85 123 155v44c0 72 -29 159 -117 159s-122 -91 -122 -181z" />
    <glyph glyph-name="Eth" unicode="&#xd0;" horiz-adv-x="698" 
d="M654 344c0 -211 -119 -344 -330 -344h-236v330h-68v89h68v269h236c211 0 330 -133 330 -344zM541 344c0 168 -79 254 -235 254h-109v-179h163v-89h-163v-240h109c156 0 235 86 235 254z" />
    <glyph glyph-name="eth" unicode="&#xf0;" horiz-adv-x="552" 
d="M512 252c0 -160 -92 -266 -237 -266c-143 0 -235 106 -235 250s92 238 210 238c76 0 108 -38 112 -42h2c-10 30 -40 74 -50 86s-28 33 -46 47l-124 -59l-26 60l95 45c-18 12 -71 37 -95 45v2l72 46c24 -8 87 -41 105 -55l117 55l26 -60l-87 -40c79 -74 161 -192 161 -352
zM403 235c0 87 -39 165 -127 165s-127 -78 -127 -165s39 -167 127 -167s127 80 127 167z" />
    <glyph glyph-name="Eacute" unicode="&#xc9;" horiz-adv-x="568" 
d="M322 894h110l-98 -136h-80zM518 93l17 -93h-447v688h434l-17 -93h-308v-174h276v-93h-276v-235h321z" />
    <glyph glyph-name="eacute" unicode="&#xe9;" horiz-adv-x="524" 
d="M284 700h110l-98 -136h-78zM484 254v-28h-335v-8c0 -94 47 -151 119 -151s110 47 123 80l90 -30c-15 -33 -71 -131 -215 -131s-226 102 -226 262s92 260 228 260s216 -98 216 -254zM149 304h227v4c0 64 -32 123 -108 123s-114 -55 -119 -127z" />
    <glyph glyph-name="Egrave" unicode="&#xc8;" horiz-adv-x="568" 
d="M294 894l68 -136h-80l-98 136h110zM518 93l17 -93h-447v688h434l-17 -93h-308v-174h276v-93h-276v-235h321z" />
    <glyph glyph-name="egrave" unicode="&#xe8;" horiz-adv-x="524" 
d="M252 700l66 -136h-78l-98 136h110zM484 254v-28h-335v-8c0 -94 47 -151 119 -151s110 47 123 80l90 -30c-15 -33 -71 -131 -215 -131s-226 102 -226 262s92 260 228 260s216 -98 216 -254zM149 304h227v4c0 64 -32 123 -108 123s-114 -55 -119 -127z" />
    <glyph glyph-name="Ecircumflex" unicode="&#xca;" horiz-adv-x="568" 
d="M366 894l68 -136h-70l-54 76h-2l-54 -76h-70l68 136h114zM518 93l17 -93h-447v688h434l-17 -93h-308v-174h276v-93h-276v-235h321z" />
    <glyph glyph-name="ecircumflex" unicode="&#xea;" horiz-adv-x="524" 
d="M325 700l68 -136h-70l-54 76h-2l-54 -76h-70l68 136h114zM484 254v-28h-335v-8c0 -94 47 -151 119 -151s110 47 123 80l90 -30c-15 -33 -71 -131 -215 -131s-226 102 -226 262s92 260 228 260s216 -98 216 -254zM149 304h227v4c0 64 -32 123 -108 123s-114 -55 -119 -127
z" />
    <glyph glyph-name="Edieresis" unicode="&#xcb;" horiz-adv-x="568" 
d="M433 894v-136h-83v136h83zM275 894v-136h-83v136h83zM518 93l17 -93h-447v688h434l-17 -93h-308v-174h276v-93h-276v-235h321z" />
    <glyph glyph-name="edieresis" unicode="&#xeb;" horiz-adv-x="524" 
d="M388 700v-136h-82v136h82zM231 700v-136h-82v136h82zM484 254v-28h-335v-8c0 -94 47 -151 119 -151s110 47 123 80l90 -30c-15 -33 -71 -131 -215 -131s-226 102 -226 262s92 260 228 260s216 -98 216 -254zM149 304h227v4c0 64 -32 123 -108 123s-114 -55 -119 -127z
" />
    <glyph glyph-name="Emacron" unicode="&#x112;" horiz-adv-x="568" 
d="M448 860v-68h-294v68h294zM518 93l17 -93h-447v688h434l-17 -93h-308v-174h276v-93h-276v-235h321z" />
    <glyph glyph-name="emacron" unicode="&#x113;" horiz-adv-x="524" 
d="M420 666v-68h-304v68h304zM484 254v-28h-335v-8c0 -94 47 -151 119 -151s110 47 123 80l90 -30c-15 -33 -71 -131 -215 -131s-226 102 -226 262s92 260 228 260s216 -98 216 -254zM149 304h227v4c0 64 -32 123 -108 123s-114 -55 -119 -127z" />
    <glyph glyph-name="Ebreve" unicode="&#x114;" horiz-adv-x="568" 
d="M518 93l17 -93h-447v688h434l-17 -93h-308v-174h276v-93h-276v-235h321zM390 892l62 -20c-18 -72 -66 -110 -146 -110s-128 38 -146 110l62 20c9 -36 36 -66 84 -66s75 30 84 66z" />
    <glyph glyph-name="ebreve" unicode="&#x115;" horiz-adv-x="524" 
d="M352 698l62 -20c-18 -72 -66 -110 -146 -110s-128 38 -146 110l62 20c9 -36 36 -66 84 -66s75 30 84 66zM484 254v-28h-335v-8c0 -94 47 -151 119 -151s110 47 123 80l90 -30c-15 -33 -71 -131 -215 -131s-226 102 -226 262s92 260 228 260s216 -98 216 -254zM149 304
h227v4c0 64 -32 123 -108 123s-114 -55 -119 -127z" />
    <glyph glyph-name="Edotaccent" unicode="&#x116;" horiz-adv-x="568" 
d="M518 93l17 -93h-447v688h434l-17 -93h-308v-174h276v-93h-276v-235h321zM353 887v-122h-87v122h87z" />
    <glyph glyph-name="edotaccent" unicode="&#x117;" horiz-adv-x="524" 
d="M311 693v-122h-86v122h86zM484 254v-28h-335v-8c0 -94 47 -151 119 -151s110 47 123 80l90 -30c-15 -33 -71 -131 -215 -131s-226 102 -226 262s92 260 228 260s216 -98 216 -254zM149 304h227v4c0 64 -32 123 -108 123s-114 -55 -119 -127z" />
    <glyph glyph-name="Eogonek" unicode="&#x118;" horiz-adv-x="568" 
d="M518 93l17 -93c-15 0 -55 -4 -87 -18s-54 -36 -54 -70s20 -52 48 -52s42 14 42 14h2l20 -58s-28 -22 -86 -22s-108 40 -108 106s62 98 62 98v2h-286v688h434l-17 -93h-308v-174h276v-93h-276v-235h321z" />
    <glyph glyph-name="eogonek" unicode="&#x119;" horiz-adv-x="524" 
d="M484 254v-28h-335v-8c0 -94 47 -151 119 -151s110 47 123 80l90 -30c-11 -25 -31 -51 -47 -67s-38 -30 -46 -36s-20 -20 -30 -32s-28 -36 -28 -70s20 -52 48 -52s42 14 42 14h2l20 -58s-28 -22 -86 -22s-108 40 -108 106c0 58 48 86 48 86v2s-14 -2 -30 -2
c-144 0 -226 102 -226 262s92 260 228 260s216 -98 216 -254zM149 304h227v4c0 64 -32 123 -108 123s-114 -55 -119 -127z" />
    <glyph glyph-name="Ecaron" unicode="&#x11a;" horiz-adv-x="568" 
d="M518 93l17 -93h-447v688h434l-17 -93h-308v-174h276v-93h-276v-235h321zM362 894h70l-68 -136h-114l-68 136h70l54 -76h2z" />
    <glyph glyph-name="ecaron" unicode="&#x11b;" horiz-adv-x="524" 
d="M323 700h70l-68 -136h-114l-68 136h70l54 -76h2zM484 254v-28h-335v-8c0 -94 47 -151 119 -151s110 47 123 80l90 -30c-15 -33 -71 -131 -215 -131s-226 102 -226 262s92 260 228 260s216 -98 216 -254zM149 304h227v4c0 64 -32 123 -108 123s-114 -55 -119 -127z" />
    <glyph glyph-name="Gcircumflex" unicode="&#x11c;" horiz-adv-x="700" 
d="M414 894l68 -136h-70l-54 76h-2l-54 -76h-70l68 136h114zM624 402v-296s-80 -120 -274 -120s-306 144 -306 358s120 358 314 358s250 -144 250 -144l-90 -54c-12 30 -50 107 -162 107s-199 -83 -199 -267s83 -267 199 -267s161 63 161 63v172h-170v90h277z" />
    <glyph glyph-name="gcircumflex" unicode="&#x11d;" horiz-adv-x="572" 
d="M342 700l68 -136h-70l-54 76h-2l-54 -76h-70l68 136h114zM492 494v-503c0 -88 -50 -180 -219 -180s-202 92 -212 136l96 24c8 -35 23 -86 112 -86s116 49 116 95v112h-2s-29 -84 -145 -84c-120 0 -193 106 -193 250s81 250 201 250c110 0 139 -80 139 -80h2v66h105z
M385 234v50c0 68 -31 144 -113 144s-118 -76 -118 -168s30 -170 112 -170s119 76 119 144z" />
    <glyph glyph-name="Gbreve" unicode="&#x11e;" horiz-adv-x="700" 
d="M442 892l62 -20c-18 -72 -66 -110 -146 -110s-128 38 -146 110l62 20c9 -36 36 -66 84 -66s75 30 84 66zM624 402v-296s-80 -120 -274 -120s-306 144 -306 358s120 358 314 358s250 -144 250 -144l-90 -54c-12 30 -50 107 -162 107s-199 -83 -199 -267s83 -267 199 -267
s161 63 161 63v172h-170v90h277z" />
    <glyph glyph-name="gbreve" unicode="&#x11f;" horiz-adv-x="572" 
d="M370 698l62 -20c-18 -72 -66 -110 -146 -110s-128 38 -146 110l62 20c9 -36 36 -66 84 -66s75 30 84 66zM492 494v-503c0 -88 -50 -180 -219 -180s-202 92 -212 136l96 24c8 -35 23 -86 112 -86s116 49 116 95v112h-2s-29 -84 -145 -84c-120 0 -193 106 -193 250
s81 250 201 250c110 0 139 -80 139 -80h2v66h105zM385 234v50c0 68 -31 144 -113 144s-118 -76 -118 -168s30 -170 112 -170s119 76 119 144z" />
    <glyph glyph-name="Gdotaccent" unicode="&#x120;" horiz-adv-x="700" 
d="M402 887v-122h-87v122h87zM624 402v-296s-80 -120 -274 -120s-306 144 -306 358s120 358 314 358s250 -144 250 -144l-90 -54c-12 30 -50 107 -162 107s-199 -83 -199 -267s83 -267 199 -267s161 63 161 63v172h-170v90h277z" />
    <glyph glyph-name="gdotaccent" unicode="&#x121;" horiz-adv-x="572" 
d="M328 693v-122h-86v122h86zM492 494v-503c0 -88 -50 -180 -219 -180s-202 92 -212 136l96 24c8 -35 23 -86 112 -86s116 49 116 95v112h-2s-29 -84 -145 -84c-120 0 -193 106 -193 250s81 250 201 250c110 0 139 -80 139 -80h2v66h105zM385 234v50c0 68 -31 144 -113 144
s-118 -76 -118 -168s30 -170 112 -170s119 76 119 144z" />
    <glyph glyph-name="Gcommaaccent" unicode="&#x122;" horiz-adv-x="700" 
d="M404 -54v-113c0 -70 -31 -114 -76 -137l-32 39c26 13 47 46 47 82v10h-35v119h96zM624 402v-296s-80 -120 -274 -120s-306 144 -306 358s120 358 314 358s250 -144 250 -144l-90 -54c-12 30 -50 107 -162 107s-199 -83 -199 -267s83 -267 199 -267s161 63 161 63v172
h-170v90h277z" />
    <glyph glyph-name="gcommaaccent" unicode="&#x123;" horiz-adv-x="572" 
d="M220 564v113c0 70 31 114 76 137l32 -39c-26 -13 -47 -46 -47 -82v-10h35v-119h-96zM492 494v-503c0 -88 -50 -180 -219 -180s-202 92 -212 136l96 24c8 -35 23 -86 112 -86s116 49 116 95v112h-2s-29 -84 -145 -84c-120 0 -193 106 -193 250s81 250 201 250
c110 0 139 -80 139 -80h2v66h105zM385 234v50c0 68 -31 144 -113 144s-118 -76 -118 -168s30 -170 112 -170s119 76 119 144z" />
    <glyph glyph-name="Hcircumflex" unicode="&#x124;" horiz-adv-x="716" 
d="M628 688v-688h-109v327h-322v-327h-109v688h109v-267h322v267h109zM415 894l68 -136h-70l-54 76h-2l-54 -76h-70l68 136h114z" />
    <glyph glyph-name="hcircumflex" unicode="&#x125;" horiz-adv-x="587" 
d="M191 906l68 -136h-70l-54 76h-2l-54 -76h-70l68 136h114zM510 328v-328h-107v300c0 52 -7 123 -89 123s-125 -71 -125 -151v-272h-107v700h107v-282h2c11 22 51 90 155 90s164 -66 164 -180z" />
    <glyph glyph-name="Hbar" unicode="&#x126;" horiz-adv-x="716" 
d="M696 598v-84h-68v-514h-109v327h-322v-327h-109v514h-68v84h68v90h109v-90h322v90h109v-90h68zM197 420h322v94h-322v-94z" />
    <glyph glyph-name="hbar" unicode="&#x127;" horiz-adv-x="587" 
d="M510 328v-328h-107v300c0 52 -7 123 -89 123s-125 -71 -125 -151v-272h-107v574h-58v64h58v62h107v-62h157v-64h-157v-156h2c11 22 51 90 155 90s164 -66 164 -180z" />
    <glyph glyph-name="Iacute" unicode="&#xcd;" horiz-adv-x="289" 
d="M164 894h110l-98 -136h-80zM199 688v-688h-109v688h109z" />
    <glyph glyph-name="iacute" unicode="&#xed;" horiz-adv-x="271" 
d="M151 700h110l-98 -136h-78zM189 494v-494h-107v494h107z" />
    <glyph glyph-name="Igrave" unicode="&#xcc;" horiz-adv-x="289" 
d="M125 894l68 -136h-80l-98 136h110zM199 688v-688h-109v688h109z" />
    <glyph glyph-name="igrave" unicode="&#xec;" horiz-adv-x="271" 
d="M120 700l66 -136h-78l-98 136h110zM189 494v-494h-107v494h107z" />
    <glyph glyph-name="Ibreve" unicode="&#x12c;" horiz-adv-x="289" 
d="M199 688v-688h-109v688h109zM225 892l62 -20c-18 -72 -64 -110 -143 -110s-124 38 -142 110l62 20c8 -36 33 -66 80 -66s73 30 81 66z" />
    <glyph glyph-name="ibreve" unicode="&#x12d;" horiz-adv-x="271" 
d="M189 494v-494h-107v494h107zM215 698l62 -20c-18 -72 -67 -110 -141 -110s-124 38 -142 110l62 20c8 -36 36 -66 80 -66s71 30 79 66z" />
    <glyph glyph-name="Icircumflex" unicode="&#xce;" horiz-adv-x="289" 
d="M202 894l67 -136h-70l-53 76h-2l-54 -76h-70l68 136h114zM199 688v-688h-109v688h109z" />
    <glyph glyph-name="icircumflex" unicode="&#xee;" horiz-adv-x="271" 
d="M192 700l67 -136h-70l-53 76h-2l-52 -76h-70l66 136h114zM189 494v-494h-107v494h107z" />
    <glyph glyph-name="Idieresis" unicode="&#xcf;" horiz-adv-x="289" 
d="M262 894v-136h-82v136h82zM109 894v-136h-82v136h82zM199 688v-688h-109v688h109z" />
    <glyph glyph-name="idieresis" unicode="&#xef;" horiz-adv-x="271" 
d="M253 700v-136h-82v136h82zM100 700v-136h-82v136h82zM189 494v-494h-107v494h107z" />
    <glyph glyph-name="Idotaccent" unicode="&#x130;" horiz-adv-x="289" 
d="M199 688v-688h-109v688h109zM189 887v-122h-88v122h88z" />
    <glyph glyph-name="dotlessi" unicode="&#x131;" horiz-adv-x="271" 
d="M189 494v-494h-107v494h107z" />
    <glyph glyph-name="Iogonek" unicode="&#x12e;" horiz-adv-x="289" 
d="M174 -126l20 -58s-28 -22 -86 -22s-108 40 -108 106s36 108 90 132v656h109v-688c-19 0 -49 -6 -73 -18s-44 -36 -44 -70s20 -52 48 -52s42 14 42 14h2z" />
    <glyph glyph-name="iogonek" unicode="&#x12f;" horiz-adv-x="271" 
d="M189 700v-118h-107v118h107zM166 -126l20 -58s-28 -22 -86 -22s-108 40 -108 106s36 108 90 132v462h107v-494c-17 0 -47 -6 -71 -18s-44 -36 -44 -70s20 -52 48 -52s42 14 42 14h2z" />
    <glyph glyph-name="Imacron" unicode="&#x12a;" horiz-adv-x="289" 
d="M199 688v-688h-109v688h109zM263 860v-68h-237v68h237z" />
    <glyph glyph-name="imacron" unicode="&#x12b;" horiz-adv-x="271" 
d="M251 666v-68h-231v68h231zM189 494v-494h-107v494h107z" />
    <glyph glyph-name="Itilde" unicode="&#x128;" horiz-adv-x="289" 
d="M199 688v-688h-109v688h109zM224 882l54 -14l-3 -28c-6 -56 -36 -80 -76 -80c-38 0 -58 21 -71 34l-5 5c-7 7 -18 21 -32 21s-21 -9 -24 -36l-2 -14l-54 14l3 28c6 56 36 80 76 80c38 0 58 -21 71 -34l5 -5c7 -7 18 -21 32 -21s21 9 24 36z" />
    <glyph glyph-name="itilde" unicode="&#x129;" horiz-adv-x="271" 
d="M189 494v-494h-107v494h107zM215 688l54 -14l-3 -28c-6 -56 -36 -80 -76 -80c-38 0 -58 21 -71 34l-5 5c-7 7 -18 21 -32 21s-21 -9 -24 -36l-2 -14l-54 14l3 28c6 56 36 80 76 80c38 0 58 -21 71 -34l5 -5c7 -7 18 -21 32 -21s21 9 24 36z" />
    <glyph glyph-name="IJ" unicode="&#x132;" horiz-adv-x="790" 
d="M199 688v-688h-109v688h109zM704 688v-518c0 -116 -70 -184 -191 -184s-191 68 -191 184c0 36 9 66 9 66l96 28s-10 -30 -10 -66c0 -80 23 -124 89 -124s89 44 89 124v490h109z" />
    <glyph glyph-name="ij" unicode="&#x133;" horiz-adv-x="542" 
d="M462 700v-118h-107v118h107zM189 700v-118h-107v118h107zM189 494v-494h-107v494h107zM462 494v-542c0 -42 -9 -78 -33 -104s-56 -37 -98 -37s-78 15 -86 19l18 66h2c10 -4 26 -8 40 -8s26 3 36 14s14 26 14 46v546h107z" />
    <glyph glyph-name="Jcircumflex" unicode="&#x134;" horiz-adv-x="502" 
d="M419 894l68 -136h-70l-54 76h-2l-54 -76h-70l68 136h114zM416 688v-518c0 -116 -70 -184 -191 -184s-191 68 -191 184c0 36 9 66 9 66l96 28s-10 -30 -10 -66c0 -80 23 -124 89 -124s89 44 89 124v490h109z" />
    <glyph glyph-name="jcircumflex" unicode="&#x135;" horiz-adv-x="271" 
d="M195 700l68 -136h-70l-54 76h-2l-54 -76h-70l68 136h114zM191 494v-542c0 -42 -9 -78 -33 -104s-56 -37 -98 -37s-78 15 -86 19l18 66h2c10 -4 26 -8 40 -8s26 3 36 14s14 26 14 46v546h107z" />
    <glyph glyph-name="dotlessj" unicode="&#x237;" horiz-adv-x="271" 
d="M191 494v-542c0 -42 -9 -78 -33 -104s-56 -37 -98 -37s-78 15 -86 19l18 66h2c10 -4 26 -8 40 -8s26 3 36 14s14 26 14 46v546h107z" />
    <glyph glyph-name="Kcommaaccent" unicode="&#x136;" horiz-adv-x="632" 
d="M378 -54v-113c0 -70 -31 -114 -76 -137l-32 39c26 13 47 46 47 82v10h-35v119h96zM370 424l260 -424h-128l-206 345l-99 -107v-238h-109v688h109v-318h2l292 318h127z" />
    <glyph glyph-name="kcommaaccent" unicode="&#x137;" horiz-adv-x="522" 
d="M336 -54v-113c0 -70 -31 -114 -76 -137l-32 39c26 13 47 46 47 82v10h-35v119h96zM331 317l187 -317h-118l-141 246l-70 -70v-176h-107v700h107v-332c0 -36 -2 -81 -2 -81h2s19 25 35 41l158 166h126z" />
    <glyph glyph-name="kgreenlandic" unicode="&#x138;" horiz-adv-x="522" 
d="M331 317l187 -317h-118l-141 246l-70 -70v-176h-107v494h107v-126c0 -36 -2 -81 -2 -81h2s19 25 35 41l158 166h126z" />
    <glyph glyph-name="Lacute" unicode="&#x139;" horiz-adv-x="506" 
d="M162 894h110l-98 -136h-80zM481 93l17 -93h-410v688h109v-595h284z" />
    <glyph glyph-name="lacute" unicode="&#x13a;" horiz-adv-x="275" 
d="M152 906h110l-98 -136h-78zM191 700v-700h-107v700h107z" />
    <glyph glyph-name="Lcommaaccent" unicode="&#x13b;" horiz-adv-x="506" 
d="M481 93l17 -93h-410v688h109v-595h284zM347 -54v-113c0 -70 -31 -114 -76 -137l-32 39c26 13 47 46 47 82v10h-35v119h96z" />
    <glyph glyph-name="lcommaaccent" unicode="&#x13c;" horiz-adv-x="275" 
d="M191 700v-700h-107v700h107zM186 -54v-113c0 -70 -31 -114 -76 -137l-32 39c26 13 47 46 47 82v10h-35v119h96z" />
    <glyph glyph-name="Lcaron" unicode="&#x13d;" horiz-adv-x="522" 
d="M481 93l17 -93h-410v688h109v-595h284zM375 688h106l-70 -208h-70z" />
    <glyph glyph-name="lcaron" unicode="&#x13e;" horiz-adv-x="348" 
d="M191 700v-700h-107v700h107zM306 688h106l-68 -206h-70z" />
    <glyph glyph-name="Lslash" unicode="&#x141;" horiz-adv-x="506" 
d="M481 93l17 -93h-410v286l-68 -52v94l68 52v308h109v-224l123 94v-94l-123 -94v-277h284z" />
    <glyph glyph-name="lslash" unicode="&#x142;" horiz-adv-x="275" 
d="M254 473v-93l-63 -49v-331h-107v249l-60 -46v93l60 46v358h107v-276z" />
    <glyph glyph-name="Ldot" unicode="&#x13f;" horiz-adv-x="506" 
d="M481 93l17 -93h-410v688h109v-595h284zM432 453v-122h-87v122h87z" />
    <glyph glyph-name="ldot" unicode="&#x140;" horiz-adv-x="412" 
d="M191 700v-700h-107v700h107zM383 423v-122h-86v122h86z" />
    <glyph glyph-name="Ntilde" unicode="&#xd1;" horiz-adv-x="716" 
d="M628 688v-688h-124l-264 460c-23 40 -48 90 -48 90h-2s2 -50 2 -90v-460h-104v688h134l254 -444c23 -40 48 -90 48 -90h2s-2 50 -2 90v444h104zM459 882l54 -14l-2 -18c-6 -56 -40 -90 -92 -90s-76 31 -79 34l-2 2c-2 2 -19 24 -39 24s-34 -12 -40 -40l-2 -10l-54 14
l2 18c6 56 40 90 92 90s76 -31 79 -34l2 -2c2 -2 19 -24 39 -24s34 12 40 40z" />
    <glyph glyph-name="ntilde" unicode="&#xf1;" horiz-adv-x="586" 
d="M398 688l54 -14l-2 -18c-6 -56 -40 -90 -92 -90s-76 31 -79 34l-2 2c-2 2 -19 24 -39 24s-34 -12 -40 -40l-2 -10l-54 14l2 18c6 56 40 90 92 90s76 -31 79 -34l2 -2c2 -2 19 -24 39 -24s34 12 40 40zM508 328v-328h-107v300c0 52 -7 123 -89 123s-125 -71 -125 -151
v-272h-107v494h105v-76h2c11 22 53 90 157 90s164 -66 164 -180z" />
    <glyph glyph-name="Ncommaaccent" unicode="&#x145;" horiz-adv-x="716" 
d="M407 -54v-113c0 -70 -31 -114 -76 -137l-32 39c26 13 47 46 47 82v10h-35v119h96zM628 688v-688h-124l-264 460c-23 40 -48 90 -48 90h-2s2 -50 2 -90v-460h-104v688h134l254 -444c23 -40 48 -90 48 -90h2s-2 50 -2 90v444h104z" />
    <glyph glyph-name="ncommaaccent" unicode="&#x146;" horiz-adv-x="586" 
d="M347 -54v-113c0 -70 -31 -114 -76 -137l-32 39c26 13 47 46 47 82v10h-35v119h96zM508 328v-328h-107v300c0 52 -7 123 -89 123s-125 -71 -125 -151v-272h-107v494h105v-76h2c11 22 53 90 157 90s164 -66 164 -180z" />
    <glyph glyph-name="Nacute" unicode="&#x143;" horiz-adv-x="716" 
d="M378 894h110l-98 -136h-80zM628 688v-688h-124l-264 460c-23 40 -48 90 -48 90h-2s2 -50 2 -90v-460h-104v688h134l254 -444c23 -40 48 -90 48 -90h2s-2 50 -2 90v444h104z" />
    <glyph glyph-name="nacute" unicode="&#x144;" horiz-adv-x="586" 
d="M311 700h110l-98 -136h-78zM508 328v-328h-107v300c0 52 -7 123 -89 123s-125 -71 -125 -151v-272h-107v494h105v-76h2c11 22 53 90 157 90s164 -66 164 -180z" />
    <glyph glyph-name="Ncaron" unicode="&#x147;" horiz-adv-x="716" 
d="M413 894h70l-68 -136h-114l-68 136h70l54 -76h2zM628 688v-688h-124l-264 460c-23 40 -48 90 -48 90h-2s2 -50 2 -90v-460h-104v688h134l254 -444c23 -40 48 -90 48 -90h2s-2 50 -2 90v444h104z" />
    <glyph glyph-name="ncaron" unicode="&#x148;" horiz-adv-x="586" 
d="M350 700h70l-68 -136h-114l-68 136h70l54 -76h2zM508 328v-328h-107v300c0 52 -7 123 -89 123s-125 -71 -125 -151v-272h-107v494h105v-76h2c11 22 53 90 157 90s164 -66 164 -180z" />
    <glyph glyph-name="napostrophe" unicode="&#x149;" horiz-adv-x="682" 
d="M106 688v-150c0 -66 -30 -114 -82 -140l-36 42c32 16 54 44 54 92v18h-42v138h106zM604 328v-328h-107v300c0 52 -7 123 -89 123s-125 -71 -125 -151v-272h-107v494h105v-76h2c11 22 53 90 157 90s164 -66 164 -180z" />
    <glyph glyph-name="Eng" unicode="&#x14a;" horiz-adv-x="716" 
d="M628 688v-748c0 -24 -4 -62 -30 -90s-60 -39 -104 -39s-76 11 -93 18l19 79h2c10 -4 26 -9 44 -9s32 7 39 16s10 23 10 41v38l-275 466c-23 40 -48 90 -48 90h-2s2 -50 2 -90v-460h-104v688h134l254 -442c22 -39 48 -90 48 -90h2s-2 50 -2 90v442h104z" />
    <glyph glyph-name="eng" unicode="&#x14b;" horiz-adv-x="586" 
d="M508 328v-376c0 -42 -9 -78 -33 -104s-56 -37 -98 -37s-78 15 -86 19l18 66h2c10 -4 26 -8 40 -8s26 3 36 14s14 26 14 46v352c0 52 -7 123 -89 123s-125 -71 -125 -151v-272h-107v494h105v-76h2c11 22 53 90 157 90s164 -66 164 -180z" />
    <glyph glyph-name="Odieresis" unicode="&#xd6;" horiz-adv-x="710" 
d="M476 894v-136h-83v136h83zM318 894v-136h-83v136h83zM666 344c0 -200 -110 -358 -311 -358s-311 158 -311 358s110 358 311 358s311 -158 311 -358zM553 344c0 140 -59 267 -198 267s-198 -127 -198 -267s59 -267 198 -267s198 127 198 267z" />
    <glyph glyph-name="odieresis" unicode="&#xf6;" horiz-adv-x="552" 
d="M396 700v-136h-82v136h82zM239 700v-136h-82v136h82zM512 247c0 -149 -86 -261 -236 -261s-236 112 -236 261s86 261 236 261s236 -112 236 -261zM403 247c0 93 -33 179 -127 179s-127 -86 -127 -179s33 -179 127 -179s127 86 127 179z" />
    <glyph glyph-name="Oacute" unicode="&#xd3;" horiz-adv-x="710" 
d="M371 894h110l-98 -136h-80zM666 344c0 -200 -110 -358 -311 -358s-311 158 -311 358s110 358 311 358s311 -158 311 -358zM553 344c0 140 -59 267 -198 267s-198 -127 -198 -267s59 -267 198 -267s198 127 198 267z" />
    <glyph glyph-name="oacute" unicode="&#xf3;" horiz-adv-x="552" 
d="M292 700h110l-98 -136h-78zM512 247c0 -149 -86 -261 -236 -261s-236 112 -236 261s86 261 236 261s236 -112 236 -261zM403 247c0 93 -33 179 -127 179s-127 -86 -127 -179s33 -179 127 -179s127 86 127 179z" />
    <glyph glyph-name="Ograve" unicode="&#xd2;" horiz-adv-x="710" 
d="M339 894l68 -136h-80l-98 136h110zM666 344c0 -200 -110 -358 -311 -358s-311 158 -311 358s110 358 311 358s311 -158 311 -358zM553 344c0 140 -59 267 -198 267s-198 -127 -198 -267s59 -267 198 -267s198 127 198 267z" />
    <glyph glyph-name="ograve" unicode="&#xf2;" horiz-adv-x="552" 
d="M260 700l66 -136h-78l-98 136h110zM512 247c0 -149 -86 -261 -236 -261s-236 112 -236 261s86 261 236 261s236 -112 236 -261zM403 247c0 93 -33 179 -127 179s-127 -86 -127 -179s33 -179 127 -179s127 86 127 179z" />
    <glyph glyph-name="Ocircumflex" unicode="&#xd4;" horiz-adv-x="710" 
d="M412 894l68 -136h-70l-54 76h-2l-54 -76h-70l68 136h114zM666 344c0 -200 -110 -358 -311 -358s-311 158 -311 358s110 358 311 358s311 -158 311 -358zM553 344c0 140 -59 267 -198 267s-198 -127 -198 -267s59 -267 198 -267s198 127 198 267z" />
    <glyph glyph-name="ocircumflex" unicode="&#xf4;" horiz-adv-x="552" 
d="M333 700l68 -136h-70l-54 76h-2l-54 -76h-70l68 136h114zM512 247c0 -149 -86 -261 -236 -261s-236 112 -236 261s86 261 236 261s236 -112 236 -261zM403 247c0 93 -33 179 -127 179s-127 -86 -127 -179s33 -179 127 -179s127 86 127 179z" />
    <glyph glyph-name="Otilde" unicode="&#xd5;" horiz-adv-x="710" 
d="M666 344c0 -200 -110 -358 -311 -358s-311 158 -311 358s110 358 311 358s311 -158 311 -358zM553 344c0 140 -59 267 -198 267s-198 -127 -198 -267s59 -267 198 -267s198 127 198 267zM456 882l54 -14l-2 -18c-6 -56 -40 -90 -92 -90s-76 31 -79 34l-2 2
c-2 2 -19 24 -39 24s-34 -12 -40 -40l-2 -10l-54 14l2 18c6 56 40 90 92 90s76 -31 79 -34l2 -2c2 -2 19 -24 39 -24s34 12 40 40z" />
    <glyph glyph-name="otilde" unicode="&#xf5;" horiz-adv-x="552" 
d="M377 688l54 -14l-2 -18c-6 -56 -40 -90 -92 -90s-76 31 -79 34l-2 2c-2 2 -19 24 -39 24s-34 -12 -40 -40l-2 -10l-54 14l2 18c6 56 40 90 92 90s76 -31 79 -34l2 -2c2 -2 19 -24 39 -24s34 12 40 40zM512 247c0 -149 -86 -261 -236 -261s-236 112 -236 261
s86 261 236 261s236 -112 236 -261zM403 247c0 93 -33 179 -127 179s-127 -86 -127 -179s33 -179 127 -179s127 86 127 179z" />
    <glyph glyph-name="Omacron" unicode="&#x14c;" horiz-adv-x="710" 
d="M505 860v-68h-300v68h300zM666 344c0 -200 -110 -358 -311 -358s-311 158 -311 358s110 358 311 358s311 -158 311 -358zM553 344c0 140 -59 267 -198 267s-198 -127 -198 -267s59 -267 198 -267s198 127 198 267z" />
    <glyph glyph-name="omacron" unicode="&#x14d;" horiz-adv-x="552" 
d="M430 666v-68h-308v68h308zM512 247c0 -149 -86 -261 -236 -261s-236 112 -236 261s86 261 236 261s236 -112 236 -261zM403 247c0 93 -33 179 -127 179s-127 -86 -127 -179s33 -179 127 -179s127 86 127 179z" />
    <glyph glyph-name="Obreve" unicode="&#x14e;" horiz-adv-x="710" 
d="M439 892l62 -20c-18 -72 -66 -110 -146 -110s-128 38 -146 110l62 20c9 -36 36 -66 84 -66s75 30 84 66zM666 344c0 -200 -110 -358 -311 -358s-311 158 -311 358s110 358 311 358s311 -158 311 -358zM553 344c0 140 -59 267 -198 267s-198 -127 -198 -267
s59 -267 198 -267s198 127 198 267z" />
    <glyph glyph-name="obreve" unicode="&#x14f;" horiz-adv-x="552" 
d="M360 698l62 -20c-18 -72 -66 -110 -146 -110s-128 38 -146 110l62 20c9 -36 36 -66 84 -66s75 30 84 66zM512 247c0 -149 -86 -261 -236 -261s-236 112 -236 261s86 261 236 261s236 -112 236 -261zM403 247c0 93 -33 179 -127 179s-127 -86 -127 -179s33 -179 127 -179
s127 86 127 179z" />
    <glyph glyph-name="Ohungarumlaut" unicode="&#x150;" horiz-adv-x="710" 
d="M464 894h110l-98 -136h-80zM290 894h110l-98 -136h-80zM666 344c0 -200 -110 -358 -311 -358s-311 158 -311 358s110 358 311 358s311 -158 311 -358zM553 344c0 140 -59 267 -198 267s-198 -127 -198 -267s59 -267 198 -267s198 127 198 267z" />
    <glyph glyph-name="ohungarumlaut" unicode="&#x151;" horiz-adv-x="552" 
d="M386 700h110l-98 -136h-78zM212 700h110l-98 -136h-78zM512 247c0 -149 -86 -261 -236 -261s-236 112 -236 261s86 261 236 261s236 -112 236 -261zM403 247c0 93 -33 179 -127 179s-127 -86 -127 -179s33 -179 127 -179s127 86 127 179z" />
    <glyph glyph-name="Oslash" unicode="&#xd8;" horiz-adv-x="714" 
d="M668 344c0 -201 -110 -358 -311 -358c-84 0 -145 26 -191 64l-56 -66l-64 55l62 74c-36 56 -62 133 -62 231c0 201 110 358 311 358c84 0 145 -26 191 -64l56 66l64 -55l-62 -74c36 -56 62 -133 62 -231zM184 202l298 360c-24 23 -61 49 -125 49
c-139 0 -198 -126 -198 -267c0 -60 11 -108 25 -142zM555 344c0 60 -11 108 -25 144l-298 -362c24 -23 61 -49 125 -49c139 0 198 128 198 267z" />
    <glyph glyph-name="oslash" unicode="&#xf8;" horiz-adv-x="556" 
d="M514 247c0 -150 -86 -261 -236 -261c-60 0 -109 18 -144 46l-40 -46l-52 48l44 50c-24 36 -44 92 -44 163c0 149 86 261 236 261c60 0 108 -18 144 -46l40 46l52 -48l-44 -50c24 -36 44 -92 44 -163zM162 164l198 230c-10 10 -34 32 -82 32c-94 0 -127 -86 -127 -179
c0 -45 7 -71 11 -83zM405 247c0 43 -7 71 -11 83l-198 -230c18 -18 42 -32 82 -32c94 0 127 86 127 179z" />
    <glyph glyph-name="OE" unicode="&#x152;" horiz-adv-x="948" 
d="M898 93l17 -93h-422v18s-50 -32 -138 -32c-201 0 -311 158 -311 358s110 358 311 358c87 0 138 -31 138 -31v17h409l-17 -93h-283v-174h251v-93h-251v-235h296zM493 112v462c-45 32 -103 37 -138 37c-139 0 -198 -127 -198 -267s59 -267 198 -267c49 0 105 13 138 35z
" />
    <glyph glyph-name="oe" unicode="&#x153;" horiz-adv-x="877" 
d="M839 254v-28h-335v-8c0 -94 47 -151 119 -151s110 47 123 80l90 -30c-15 -33 -71 -131 -215 -131c-126 0 -170 78 -170 78h-2c-3 -7 -53 -78 -175 -78c-150 0 -236 112 -236 261s86 261 236 261c138 0 177 -78 177 -78h2c3 6 55 78 170 78c136 0 216 -98 216 -254z
M401 247c0 93 -33 179 -127 179s-127 -86 -127 -179s33 -179 127 -179s127 86 127 179zM504 304h227v4c0 64 -32 123 -108 123s-114 -55 -119 -127z" />
    <glyph glyph-name="Thorn" unicode="&#xde;" horiz-adv-x="626" 
d="M584 361c0 -134 -98 -197 -232 -197h-155v-164h-109v688h109v-130h155c134 0 232 -63 232 -197zM470 361c0 80 -56 107 -136 107h-137v-214h137c80 0 136 27 136 107z" />
    <glyph glyph-name="thorn" unicode="&#xfe;" horiz-adv-x="579" 
d="M537 250c0 -138 -71 -264 -205 -264c-110 0 -141 84 -141 84h-2v-246h-107v876h107v-274h2s41 82 149 82c132 0 197 -120 197 -258zM428 250c0 90 -28 177 -116 177s-123 -85 -123 -155v-44c0 -72 29 -159 117 -159s122 91 122 181z" />
    <glyph glyph-name="Racute" unicode="&#x154;" horiz-adv-x="660" 
d="M340 894h110l-98 -136h-80zM434 320l196 -320h-128l-186 312h-119v-312h-109v688h264c148 0 238 -64 238 -188s-90 -167 -156 -180zM476 500c0 76 -54 98 -128 98h-151v-196h151c74 0 128 22 128 98z" />
    <glyph glyph-name="racute" unicode="&#x155;" horiz-adv-x="388" 
d="M204 700h110l-98 -136h-78zM373 489l-16 -92h-2c-6 4 -23 14 -53 14s-51 -10 -68 -26s-47 -57 -47 -141v-244h-107v494h105v-92h2c7 34 25 60 39 74s38 30 80 30s67 -17 67 -17z" />
    <glyph glyph-name="Rcaron" unicode="&#x158;" horiz-adv-x="660" 
d="M396 894h70l-68 -136h-114l-68 136h70l54 -76h2zM434 320l196 -320h-128l-186 312h-119v-312h-109v688h264c148 0 238 -64 238 -188s-90 -167 -156 -180zM476 500c0 76 -54 98 -128 98h-151v-196h151c74 0 128 22 128 98z" />
    <glyph glyph-name="rcaron" unicode="&#x159;" horiz-adv-x="388" 
d="M276 700h70l-68 -136h-114l-68 136h70l54 -76h2zM373 489l-16 -92h-2c-6 4 -23 14 -53 14s-51 -10 -68 -26s-47 -57 -47 -141v-244h-107v494h105v-92h2c7 34 25 60 39 74s38 30 80 30s67 -17 67 -17z" />
    <glyph glyph-name="Rcommaaccent" unicode="&#x156;" horiz-adv-x="660" 
d="M378 -54v-113c0 -70 -31 -114 -76 -137l-32 39c26 13 47 46 47 82v10h-35v119h96zM434 320l196 -320h-128l-186 312h-119v-312h-109v688h264c148 0 238 -64 238 -188s-90 -167 -156 -180zM476 500c0 76 -54 98 -128 98h-151v-196h151c74 0 128 22 128 98z" />
    <glyph glyph-name="rcommaaccent" unicode="&#x157;" horiz-adv-x="388" 
d="M248 -54v-113c0 -70 -31 -114 -76 -137l-32 39c26 13 47 46 47 82v10h-35v119h96zM373 489l-16 -92h-2c-6 4 -23 14 -53 14s-51 -10 -68 -26s-47 -57 -47 -141v-244h-107v494h105v-92h2c7 34 25 60 39 74s38 30 80 30s67 -17 67 -17z" />
    <glyph glyph-name="Scaron" unicode="&#x160;" horiz-adv-x="584" 
d="M334 894h70l-68 -136h-114l-68 136h70l54 -76h2zM541 192c0 -128 -105 -207 -239 -207s-234 81 -274 187l92 50c38 -100 110 -146 184 -146s125 42 125 106s-45 92 -107 112l-86 28c-92 30 -182 80 -182 194s96 186 226 186s214 -84 238 -142l-79 -56
c-24 58 -87 107 -159 107s-115 -35 -115 -89s43 -76 103 -96l86 -28c78 -26 187 -78 187 -206z" />
    <glyph glyph-name="scaron" unicode="&#x161;" horiz-adv-x="469" 
d="M283 700h70l-68 -136h-114l-68 136h70l54 -76h2zM431 140c0 -100 -91 -154 -187 -154s-178 48 -215 139l88 34c24 -59 71 -94 127 -94s84 31 84 69s-34 58 -86 72l-44 12c-84 24 -150 60 -150 150s82 140 179 140s165 -54 190 -108l-74 -47c-22 48 -69 77 -117 77
s-78 -22 -78 -58s36 -52 80 -64l44 -12c72 -20 159 -56 159 -156z" />
    <glyph glyph-name="Sacute" unicode="&#x15a;" horiz-adv-x="584" 
d="M310 894h110l-98 -136h-80zM541 192c0 -128 -105 -207 -239 -207s-234 81 -274 187l92 50c38 -100 110 -146 184 -146s125 42 125 106s-45 92 -107 112l-86 28c-92 30 -182 80 -182 194s96 186 226 186s214 -84 238 -142l-79 -56c-24 58 -87 107 -159 107
s-115 -35 -115 -89s43 -76 103 -96l86 -28c78 -26 187 -78 187 -206z" />
    <glyph glyph-name="sacute" unicode="&#x15b;" horiz-adv-x="469" 
d="M242 700h110l-98 -136h-78zM431 140c0 -100 -91 -154 -187 -154s-178 48 -215 139l88 34c24 -59 71 -94 127 -94s84 31 84 69s-34 58 -86 72l-44 12c-84 24 -150 60 -150 150s81 140 179 140s166 -54 191 -108l-74 -47c-24 52 -70 77 -118 77s-78 -22 -78 -58
s36 -52 80 -64l44 -12c72 -20 159 -56 159 -156z" />
    <glyph glyph-name="Scircumflex" unicode="&#x15c;" horiz-adv-x="584" 
d="M336 894l68 -136h-70l-54 76h-2l-54 -76h-70l68 136h114zM541 192c0 -128 -105 -207 -239 -207s-234 81 -274 187l92 50c38 -100 110 -146 184 -146s125 42 125 106s-45 92 -107 112l-86 28c-92 30 -182 80 -182 194s96 186 226 186s214 -84 238 -142l-79 -56
c-24 58 -87 107 -159 107s-115 -35 -115 -89s43 -76 103 -96l86 -28c78 -26 187 -78 187 -206z" />
    <glyph glyph-name="scircumflex" unicode="&#x15d;" horiz-adv-x="469" 
d="M353 564h-70l-54 76h-2l-54 -76h-70l68 136h114zM431 140c0 -100 -91 -154 -187 -154s-178 48 -215 139l88 34c24 -59 71 -94 127 -94s84 31 84 69s-34 58 -86 72l-44 12c-84 24 -150 60 -150 150s81 140 179 140s166 -54 191 -108l-74 -47c-24 52 -70 77 -118 77
s-78 -22 -78 -58s36 -52 80 -64l44 -12c72 -20 159 -56 159 -156z" />
    <glyph glyph-name="Scedilla" unicode="&#x15e;" horiz-adv-x="584" 
d="M541 192c0 -114 -83 -189 -196 -204l-47 -140h-120l78 140c-111 16 -193 90 -228 184l92 50c38 -100 110 -146 184 -146s125 42 125 106s-45 92 -107 112l-86 28c-92 30 -182 80 -182 194s96 186 226 186s214 -84 238 -142l-79 -56c-24 58 -87 107 -159 107
s-115 -35 -115 -89s43 -76 103 -96l86 -28c78 -26 187 -78 187 -206z" />
    <glyph glyph-name="scedilla" unicode="&#x15f;" horiz-adv-x="469" 
d="M431 140c0 -92 -77 -145 -163 -153l-36 -129h-110l66 134c-71 14 -130 60 -159 133l88 34c24 -59 71 -94 127 -94s84 31 84 69s-34 58 -86 72l-44 12c-84 24 -150 60 -150 150s81 140 179 140s166 -54 191 -108l-74 -47c-24 52 -70 77 -118 77s-78 -22 -78 -58
s36 -52 80 -64l44 -12c72 -20 159 -56 159 -156z" />
    <glyph glyph-name="Scommaaccent" unicode="&#x218;" horiz-adv-x="584" 
d="M350 -54v-113c0 -70 -31 -114 -76 -137l-32 39c26 13 47 46 47 82v10h-35v119h96zM541 192c0 -128 -105 -207 -239 -207s-234 81 -274 187l92 50c38 -100 110 -146 184 -146s125 42 125 106s-45 92 -107 112l-86 28c-92 30 -182 80 -182 194s96 186 226 186
s214 -84 238 -142l-79 -56c-24 58 -87 107 -159 107s-115 -35 -115 -89s43 -76 103 -96l86 -28c78 -26 187 -78 187 -206z" />
    <glyph glyph-name="scommaaccent" unicode="&#x219;" horiz-adv-x="469" 
d="M289 -54v-113c0 -70 -31 -114 -76 -137l-32 39c26 13 47 46 47 82v10h-35v119h96zM431 140c0 -100 -91 -154 -187 -154s-178 48 -215 139l88 34c24 -59 71 -94 127 -94s84 31 84 69s-34 58 -86 72l-44 12c-84 24 -150 60 -150 150s81 140 179 140s166 -54 191 -108
l-74 -47c-24 52 -70 77 -118 77s-78 -22 -78 -58s36 -52 80 -64l44 -12c72 -20 159 -56 159 -156z" />
    <glyph glyph-name="Tcaron" unicode="&#x164;" horiz-adv-x="533" 
d="M7 688h527l-17 -93h-196v-595h-109v595h-205v93zM322 894h70l-68 -136h-114l-68 136h70l54 -76h2z" />
    <glyph glyph-name="tcaron" unicode="&#x165;" horiz-adv-x="373" 
d="M329 83l18 -74s-41 -23 -107 -23s-127 30 -127 138v293h-87v77h87v135l105 24h2v-159h122v-77h-122v-291c0 -44 22 -54 54 -54s53 11 53 11h2zM308 732h106l-62 -186h-72z" />
    <glyph glyph-name="Tbar" unicode="&#x166;" horiz-adv-x="537" 
d="M9 688h527l-17 -93h-196v-174h203l-17 -93h-186v-328h-109v328h-195v93h195v174h-205v93z" />
    <glyph glyph-name="tbar" unicode="&#x167;" horiz-adv-x="381" 
d="M333 83l18 -74s-41 -23 -107 -23s-127 30 -127 138v124h-77v77h77v92h-87v77h87v135l105 24h2v-159h122v-77h-122v-92h112l-14 -77h-98v-122c0 -44 22 -54 54 -54s53 11 53 11h2z" />
    <glyph glyph-name="Uacute" unicode="&#xda;" horiz-adv-x="708" 
d="M373 894h110l-98 -136h-80zM622 688v-438c0 -172 -96 -265 -268 -265s-268 93 -268 265v438h109v-430c0 -112 47 -175 159 -175s159 63 159 175v430h109z" />
    <glyph glyph-name="uacute" unicode="&#xfa;" horiz-adv-x="582" 
d="M303 700h110l-98 -136h-78zM78 166v328h107v-299c0 -52 5 -122 87 -122s123 70 123 150v271h107v-494h-105v76h-2c-11 -22 -51 -90 -155 -90s-162 66 -162 180z" />
    <glyph glyph-name="Ucircumflex" unicode="&#xdb;" horiz-adv-x="708" 
d="M411 894l68 -136h-70l-54 76h-2l-54 -76h-70l68 136h114zM622 688v-438c0 -172 -96 -265 -268 -265s-268 93 -268 265v438h109v-430c0 -112 47 -175 159 -175s159 63 159 175v430h109z" />
    <glyph glyph-name="ucircumflex" unicode="&#xfb;" horiz-adv-x="582" 
d="M348 700l68 -136h-70l-54 76h-2l-54 -76h-70l68 136h114zM78 166v328h107v-299c0 -52 5 -122 87 -122s123 70 123 150v271h107v-494h-105v76h-2c-11 -22 -51 -90 -155 -90s-162 66 -162 180z" />
    <glyph glyph-name="Ugrave" unicode="&#xd9;" horiz-adv-x="708" 
d="M335 894l68 -136h-80l-98 136h110zM622 688v-438c0 -172 -96 -265 -268 -265s-268 93 -268 265v438h109v-430c0 -112 47 -175 159 -175s159 63 159 175v430h109z" />
    <glyph glyph-name="ugrave" unicode="&#xf9;" horiz-adv-x="582" 
d="M278 700l66 -136h-78l-98 136h110zM78 166v328h107v-299c0 -52 5 -122 87 -122s123 70 123 150v271h107v-494h-105v76h-2c-11 -22 -51 -90 -155 -90s-162 66 -162 180z" />
    <glyph glyph-name="Udieresis" unicode="&#xdc;" horiz-adv-x="708" 
d="M475 894v-136h-83v136h83zM317 894v-136h-83v136h83zM622 688v-438c0 -172 -96 -265 -268 -265s-268 93 -268 265v438h109v-430c0 -112 47 -175 159 -175s159 63 159 175v430h109z" />
    <glyph glyph-name="udieresis" unicode="&#xfc;" horiz-adv-x="582" 
d="M410 700v-136h-82v136h82zM253 700v-136h-82v136h82zM78 166v328h107v-299c0 -52 5 -122 87 -122s123 70 123 150v271h107v-494h-105v76h-2c-11 -22 -51 -90 -155 -90s-162 66 -162 180z" />
    <glyph glyph-name="Utilde" unicode="&#x168;" horiz-adv-x="708" 
d="M622 688v-438c0 -172 -96 -265 -268 -265s-268 93 -268 265v438h109v-430c0 -112 47 -175 159 -175s159 63 159 175v430h109zM455 882l54 -14l-2 -18c-6 -56 -40 -90 -92 -90s-76 31 -79 34l-2 2c-2 2 -19 24 -39 24s-34 -12 -40 -40l-2 -10l-54 14l2 18
c6 56 40 90 92 90s76 -31 79 -34l2 -2c2 -2 19 -24 39 -24s34 12 40 40z" />
    <glyph glyph-name="utilde" unicode="&#x169;" horiz-adv-x="582" 
d="M392 688l54 -14l-2 -18c-6 -56 -40 -90 -92 -90s-76 31 -79 34l-2 2c-2 2 -19 24 -39 24s-34 -12 -40 -40l-2 -10l-54 14l2 18c6 56 40 90 92 90s76 -31 79 -34l2 -2c2 -2 19 -24 39 -24s34 12 40 40zM78 166v328h107v-299c0 -52 5 -122 87 -122s123 70 123 150v271h107
v-494h-105v76h-2c-11 -22 -51 -90 -155 -90s-162 66 -162 180z" />
    <glyph glyph-name="Umacron" unicode="&#x16a;" horiz-adv-x="708" 
d="M506 860v-68h-304v68h304zM622 688v-438c0 -172 -96 -265 -268 -265s-268 93 -268 265v438h109v-430c0 -112 47 -175 159 -175s159 63 159 175v430h109z" />
    <glyph glyph-name="umacron" unicode="&#x16b;" horiz-adv-x="582" 
d="M444 666v-68h-308v68h308zM78 166v328h107v-299c0 -52 5 -122 87 -122s123 70 123 150v271h107v-494h-105v76h-2c-11 -22 -51 -90 -155 -90s-162 66 -162 180z" />
    <glyph glyph-name="Ubreve" unicode="&#x16c;" horiz-adv-x="708" 
d="M438 892l62 -20c-18 -72 -66 -110 -146 -110s-128 38 -146 110l62 20c9 -36 36 -66 84 -66s75 30 84 66zM622 688v-438c0 -172 -96 -265 -268 -265s-268 93 -268 265v438h109v-430c0 -112 47 -175 159 -175s159 63 159 175v430h109z" />
    <glyph glyph-name="ubreve" unicode="&#x16d;" horiz-adv-x="582" 
d="M375 698l62 -20c-18 -72 -66 -110 -146 -110s-128 38 -146 110l62 20c9 -36 36 -66 84 -66s75 30 84 66zM78 166v328h107v-299c0 -52 5 -122 87 -122s123 70 123 150v271h107v-494h-105v76h-2c-11 -22 -51 -90 -155 -90s-162 66 -162 180z" />
    <glyph glyph-name="Uring" unicode="&#x16e;" horiz-adv-x="708" 
d="M622 688v-438c0 -172 -96 -265 -268 -265s-268 93 -268 265v438h109v-430c0 -112 47 -175 159 -175s159 63 159 175v430h109zM465 826c0 -60 -51 -88 -111 -88s-111 28 -111 88s51 88 111 88s111 -28 111 -88zM401 826c0 28 -19 45 -47 45s-47 -17 -47 -45s19 -45 47 -45
s47 17 47 45z" />
    <glyph glyph-name="uring" unicode="&#x16f;" horiz-adv-x="582" 
d="M402 632c0 -60 -51 -88 -111 -88s-111 28 -111 88s51 88 111 88s111 -28 111 -88zM338 632c0 28 -19 45 -47 45s-47 -17 -47 -45s19 -45 47 -45s47 17 47 45zM78 166v328h107v-299c0 -52 5 -122 87 -122s123 70 123 150v271h107v-494h-105v76h-2
c-11 -22 -51 -90 -155 -90s-162 66 -162 180z" />
    <glyph glyph-name="Uhungarumlaut" unicode="&#x170;" horiz-adv-x="708" 
d="M450 894h110l-98 -136h-80zM276 894h110l-98 -136h-80zM622 688v-438c0 -172 -96 -265 -268 -265s-268 93 -268 265v438h109v-430c0 -112 47 -175 159 -175s159 63 159 175v430h109z" />
    <glyph glyph-name="uhungarumlaut" unicode="&#x171;" horiz-adv-x="582" 
d="M392 700h110l-98 -136h-78zM218 700h110l-98 -136h-78zM78 166v328h107v-299c0 -52 5 -122 87 -122s123 70 123 150v271h107v-494h-105v76h-2c-11 -22 -51 -90 -155 -90s-162 66 -162 180z" />
    <glyph glyph-name="Uogonek" unicode="&#x172;" horiz-adv-x="708" 
d="M622 688v-438c0 -172 -97 -222 -119 -233s-43 -17 -61 -29s-42 -42 -42 -76s20 -52 48 -52s42 14 42 14h2l20 -58s-28 -22 -86 -22s-108 40 -108 106c0 58 42 84 42 84v2s-3 -1 -6 -1c-172 0 -268 93 -268 265v438h109v-430c0 -112 47 -175 159 -175s159 63 159 175v430
h109z" />
    <glyph glyph-name="uogonek" unicode="&#x173;" horiz-adv-x="582" 
d="M480 -126l20 -58s-28 -22 -86 -22s-108 40 -108 106s52 106 91 124v54h-2s-57 -92 -155 -92c-106 0 -162 68 -162 180v328h107v-299c0 -52 5 -122 87 -122s123 70 123 150v271h107v-494c-18 0 -46 -6 -70 -18s-44 -36 -44 -70s20 -52 48 -52s42 14 42 14h2z" />
    <glyph glyph-name="Wcircumflex" unicode="&#x174;" horiz-adv-x="910" 
d="M516 894l68 -136h-70l-54 76h-2l-54 -76h-70l68 136h114zM790 688h102l-182 -688h-116l-125 494c-8 30 -13 60 -13 60h-2s-5 -30 -13 -60l-125 -494h-116l-182 688h112l118 -474c8 -30 15 -72 15 -72h2s7 42 15 72l119 474h122l119 -474c8 -30 15 -72 15 -72h2
s7 42 15 72z" />
    <glyph glyph-name="wcircumflex" unicode="&#x175;" horiz-adv-x="746" 
d="M434 700l68 -136h-70l-54 76h-2l-54 -76h-70l68 136h114zM622 494h101l-141 -494h-114l-82 322c-8 30 -12 58 -12 58h-2s-4 -28 -12 -58l-82 -322h-114l-141 494h108l79 -314c8 -30 15 -68 15 -68h2s7 38 15 68l80 314h109l80 -314c8 -30 15 -68 15 -68h2s7 38 15 68z
" />
    <glyph glyph-name="Wgrave" unicode="&#x1e80;" horiz-adv-x="910" 
d="M435 894l68 -136h-80l-98 136h110zM790 688h102l-182 -688h-116l-125 494c-8 30 -13 60 -13 60h-2s-5 -30 -13 -60l-125 -494h-116l-182 688h112l118 -474c8 -30 15 -72 15 -72h2s7 42 15 72l119 474h122l119 -474c8 -30 15 -72 15 -72h2s7 42 15 72z" />
    <glyph glyph-name="wgrave" unicode="&#x1e81;" horiz-adv-x="746" 
d="M355 700l66 -136h-78l-98 136h110zM622 494h101l-141 -494h-114l-82 322c-8 30 -12 58 -12 58h-2s-4 -28 -12 -58l-82 -322h-114l-141 494h108l79 -314c8 -30 15 -68 15 -68h2s7 38 15 68l80 314h109l80 -314c8 -30 15 -68 15 -68h2s7 38 15 68z" />
    <glyph glyph-name="Wacute" unicode="&#x1e82;" horiz-adv-x="910" 
d="M483 894h110l-98 -136h-80zM790 688h102l-182 -688h-116l-125 494c-8 30 -13 60 -13 60h-2s-5 -30 -13 -60l-125 -494h-116l-182 688h112l118 -474c8 -30 15 -72 15 -72h2s7 42 15 72l119 474h122l119 -474c8 -30 15 -72 15 -72h2s7 42 15 72z" />
    <glyph glyph-name="wacute" unicode="&#x1e83;" horiz-adv-x="746" 
d="M398 700h110l-98 -136h-78zM622 494h101l-141 -494h-114l-82 322c-8 30 -12 58 -12 58h-2s-4 -28 -12 -58l-82 -322h-114l-141 494h108l79 -314c8 -30 15 -68 15 -68h2s7 38 15 68l80 314h109l80 -314c8 -30 15 -68 15 -68h2s7 38 15 68z" />
    <glyph glyph-name="Wdieresis" unicode="&#x1e84;" horiz-adv-x="910" 
d="M579 894v-136h-83v136h83zM421 894v-136h-83v136h83zM790 688h102l-182 -688h-116l-125 494c-8 30 -13 60 -13 60h-2s-5 -30 -13 -60l-125 -494h-116l-182 688h112l118 -474c8 -30 15 -72 15 -72h2s7 42 15 72l119 474h122l119 -474c8 -30 15 -72 15 -72h2s7 42 15 72z
" />
    <glyph glyph-name="wdieresis" unicode="&#x1e85;" horiz-adv-x="746" 
d="M496 700v-136h-82v136h82zM339 700v-136h-82v136h82zM622 494h101l-141 -494h-114l-82 322c-8 30 -12 58 -12 58h-2s-4 -28 -12 -58l-82 -322h-114l-141 494h108l79 -314c8 -30 15 -68 15 -68h2s7 38 15 68l80 314h109l80 -314c8 -30 15 -68 15 -68h2s7 38 15 68z" />
    <glyph glyph-name="Yacute" unicode="&#xdd;" horiz-adv-x="587" 
d="M317 894h110l-98 -136h-80zM466 688h111l-229 -382v-306h-109v306l-229 382h116l126 -212c21 -36 43 -80 43 -80h2s22 44 43 80z" />
    <glyph glyph-name="yacute" unicode="&#xfd;" horiz-adv-x="490" 
d="M263 700h110l-98 -136h-78zM377 494h103l-186 -534c-16 -46 -32 -82 -60 -110s-62 -39 -112 -39s-92 19 -96 21l22 76h2c4 -2 30 -12 56 -12s42 8 54 22s18 28 24 46l10 30l-178 500h111l105 -330c8 -24 18 -60 18 -60h2s10 36 18 60z" />
    <glyph glyph-name="Ydieresis" unicode="&#x178;" horiz-adv-x="587" 
d="M414 894v-136h-83v136h83zM256 894v-136h-83v136h83zM466 688h111l-229 -382v-306h-109v306l-229 382h116l126 -212c21 -36 43 -80 43 -80h2s22 44 43 80z" />
    <glyph glyph-name="ydieresis" unicode="&#xff;" horiz-adv-x="490" 
d="M367 700v-136h-82v136h82zM210 700v-136h-82v136h82zM377 494h103l-186 -534c-16 -46 -32 -82 -60 -110s-62 -39 -112 -39s-92 19 -96 21l22 76h2c4 -2 30 -12 56 -12s42 8 54 22s18 28 24 46l10 30l-178 500h111l105 -330c8 -24 18 -60 18 -60h2s10 36 18 60z" />
    <glyph glyph-name="Ycircumflex" unicode="&#x176;" horiz-adv-x="587" 
d="M351 894l68 -136h-70l-54 76h-2l-54 -76h-70l68 136h114zM466 688h111l-229 -382v-306h-109v306l-229 382h116l126 -212c21 -36 43 -80 43 -80h2s22 44 43 80z" />
    <glyph glyph-name="ycircumflex" unicode="&#x177;" horiz-adv-x="490" 
d="M304 700l68 -136h-70l-54 76h-2l-54 -76h-70l68 136h114zM377 494h103l-186 -534c-16 -46 -32 -82 -60 -110s-62 -39 -112 -39s-92 19 -96 21l22 76h2c4 -2 30 -12 56 -12s42 8 54 22s18 28 24 46l10 30l-178 500h111l105 -330c8 -24 18 -60 18 -60h2s10 36 18 60z" />
    <glyph glyph-name="Ygrave" unicode="&#x1ef2;" horiz-adv-x="587" 
d="M270 894l68 -136h-80l-98 136h110zM466 688h111l-229 -382v-306h-109v306l-229 382h116l126 -212c21 -36 43 -80 43 -80h2s22 44 43 80z" />
    <glyph glyph-name="ygrave" unicode="&#x1ef3;" horiz-adv-x="490" 
d="M264 700l66 -136h-78l-98 136h110zM377 494h103l-186 -534c-16 -46 -32 -82 -60 -110s-62 -39 -112 -39s-92 19 -96 21l22 76h2c4 -2 30 -12 56 -12s42 8 54 22s18 28 24 46l10 30l-178 500h111l105 -330c8 -24 18 -60 18 -60h2s10 36 18 60z" />
    <glyph glyph-name="Zacute" unicode="&#x179;" horiz-adv-x="580" 
d="M308 894h110l-98 -136h-80zM545 93v-93h-510v87l325 453c20 28 42 54 42 54v2s-42 -1 -84 -1h-268v93h480v-87l-325 -453c-21 -28 -42 -54 -42 -54v-2s42 1 84 1h298z" />
    <glyph glyph-name="zacute" unicode="&#x17a;" horiz-adv-x="450" 
d="M246 700h110l-98 -136h-78zM418 77v-77h-386v66l202 286c19 28 50 65 50 65v2s-36 -1 -72 -1h-168v76h362v-68l-200 -283c-20 -29 -50 -65 -50 -65v-2s36 1 72 1h190z" />
    <glyph glyph-name="Zdotaccent" unicode="&#x17b;" horiz-adv-x="580" 
d="M334 887v-122h-87v122h87zM545 93v-93h-510v87l325 453c20 28 42 54 42 54v2s-42 -1 -84 -1h-268v93h480v-87l-325 -453c-21 -28 -42 -54 -42 -54v-2s42 1 84 1h298z" />
    <glyph glyph-name="zdotaccent" unicode="&#x17c;" horiz-adv-x="450" 
d="M268 693v-122h-86v122h86zM418 77v-77h-386v66l202 286c19 28 50 65 50 65v2s-36 -1 -72 -1h-168v76h362v-68l-200 -283c-20 -29 -50 -65 -50 -65v-2s36 1 72 1h190z" />
    <glyph glyph-name="Zcaron" unicode="&#x17d;" horiz-adv-x="580" 
d="M345 894h70l-68 -136h-114l-68 136h70l54 -76h2zM545 93v-93h-510v87l325 453c20 28 42 54 42 54v2s-42 -1 -84 -1h-268v93h480v-87l-325 -453c-21 -28 -42 -54 -42 -54v-2s42 1 84 1h298z" />
    <glyph glyph-name="zcaron" unicode="&#x17e;" horiz-adv-x="450" 
d="M280 700h70l-68 -136h-114l-68 136h70l54 -76h2zM418 77v-77h-386v66l202 286c19 28 50 65 50 65v2s-36 -1 -72 -1h-168v76h362v-68l-200 -283c-20 -29 -50 -65 -50 -65v-2s36 1 72 1h190z" />
    <glyph glyph-name="zero" unicode="0" 
d="M504 344c0 -180 -62 -358 -229 -358s-229 178 -229 358s62 358 229 358s229 -178 229 -358zM392 344c0 152 -32 274 -117 274s-117 -122 -117 -274s32 -272 117 -272s117 120 117 272z" />
    <glyph glyph-name="one" unicode="1" 
d="M369 692v-610h133v-82h-374v82h134v464h-2c-6 -8 -26 -22 -42 -32s-42 -26 -80 -39l-34 77c38 12 82 38 110 60s56 56 64 80h91z" />
    <glyph glyph-name="two" unicode="2" 
d="M496 91v-91h-435c0 64 13 116 39 164s74 102 132 152l40 34c68 58 104 104 104 162s-34 106 -106 106s-107 -48 -107 -116c0 -34 10 -65 10 -65l-103 14s-10 31 -10 65c0 102 76 186 212 186s215 -80 215 -190s-91 -182 -132 -216l-38 -32c-31 -26 -65 -58 -87 -86
c-16 -20 -35 -50 -43 -85v-2h309z" />
    <glyph glyph-name="three" unicode="3" 
d="M494 194c0 -132 -100 -208 -228 -208s-212 74 -212 182c0 24 4 44 4 44l100 18s-4 -20 -4 -44c0 -78 50 -118 114 -118c68 0 116 42 116 132s-50 132 -128 132h-44v80h42c68 0 110 38 110 108s-42 104 -100 104s-98 -32 -98 -96c0 -24 4 -42 4 -42l-98 16s-4 18 -4 42
c0 90 78 158 198 158s204 -70 204 -178s-84 -144 -108 -148v-2c32 -4 132 -48 132 -180z" />
    <glyph glyph-name="four" unicode="4" 
d="M528 238v-90h-92v-148h-107v148h-303v100l295 440h115v-450h92zM172 238h157v278c0 32 1 58 1 58h-2s-18 -32 -36 -60l-138 -208c-14 -22 -47 -67 -47 -67v-2s29 1 65 1z" />
    <glyph glyph-name="five" unicode="5" 
d="M496 234c0 -156 -94 -248 -230 -248s-202 86 -202 180c0 10 2 22 2 22l98 18s-2 -12 -2 -22c0 -70 34 -118 104 -118s120 54 120 162s-50 156 -112 156c-49 0 -90 -28 -106 -82l-96 20l50 366h352l-15 -88h-249l-29 -188h2c4 4 41 50 121 50c102 0 192 -72 192 -228z" />
    <glyph glyph-name="six" unicode="6" 
d="M506 234c0 -126 -73 -248 -223 -248s-231 122 -231 348s90 368 248 368s184 -132 186 -151l-95 -22c-5 47 -29 95 -91 95s-94 -40 -112 -78s-32 -98 -32 -174h2s36 88 156 88s192 -100 192 -226zM398 226c0 88 -30 154 -110 154s-118 -70 -118 -158s30 -154 110 -154
s118 70 118 158z" />
    <glyph glyph-name="seven" unicode="7" 
d="M491 688v-82c-43 -60 -95 -172 -127 -262s-64 -214 -76 -344h-110c16 132 48 254 82 348s76 182 118 251h-325v89h438z" />
    <glyph glyph-name="eight" unicode="8" 
d="M500 192c0 -132 -94 -206 -225 -206s-225 74 -225 206s94 174 123 182v2c-17 6 -101 38 -101 150s90 176 203 176s203 -64 203 -176s-84 -144 -101 -150v-2c29 -8 123 -50 123 -182zM372 520c0 64 -34 106 -97 106s-97 -42 -97 -106s34 -106 97 -106s97 42 97 106z
M390 200c0 78 -38 134 -115 134s-115 -56 -115 -134s38 -134 115 -134s115 56 115 134z" />
    <glyph glyph-name="nine" unicode="9" 
d="M498 354c0 -226 -90 -368 -248 -368s-186 120 -188 154l94 22c4 -60 42 -96 98 -96c52 0 88 36 108 78s32 106 32 178h-2s-40 -88 -154 -88c-122 0 -194 94 -194 226c0 130 76 242 224 242s230 -122 230 -348zM380 474c0 84 -30 150 -110 150s-118 -74 -118 -158
s30 -150 110 -150s118 74 118 158z" />
    <glyph glyph-name="dollar" unicode="$" 
d="M505 223c0 -118 -101 -171 -184 -178v-87h-74v90c-83 12 -165 70 -195 158l82 42c24 -70 72 -106 114 -115v193l-24 8c-48 16 -156 52 -156 166s104 160 179 163v57h74v-62c85 -12 145 -68 167 -120l-74 -50c-22 52 -56 76 -94 87v-171l18 -6c54 -18 167 -57 167 -175z
M230 432l18 -7v155c-44 -2 -80 -26 -80 -74s34 -63 62 -74zM405 216c0 52 -37 72 -69 84l-16 6v-178c50 4 85 36 85 88z" />
    <glyph glyph-name="cent" unicode="&#xa2;" 
d="M414 259l84 -18c-8 -39 -56 -151 -194 -159l-6 -88h-74l7 92c-93 20 -169 110 -169 260s84 248 208 259l6 77h74l-6 -80c108 -22 148 -116 152 -152l-80 -19c-4 36 -26 77 -78 93l-28 -366c72 8 96 62 104 101zM156 346c0 -120 46 -162 81 -181l27 363
c-54 -10 -108 -62 -108 -182z" />
    <glyph glyph-name="sterling" unicode="&#xa3;" 
d="M526 120c0 -84 -54 -134 -130 -134s-124 46 -135 54l-15 12c-14 -26 -58 -64 -118 -64s-106 38 -106 100s50 99 108 99c48 0 76 -23 76 -23s6 18 6 54c0 52 -24 110 -26 116l-2 6h-122v72h97l-2 6c-2 6 -23 66 -23 116c0 78 50 168 182 168c128 0 166 -84 166 -146
c0 -16 -3 -34 -3 -34l-90 -18s3 18 3 34c0 50 -24 89 -76 89s-80 -39 -80 -91s22 -112 24 -118l2 -6h166v-72h-145l3 -8c6 -16 20 -66 20 -112s-12 -82 -18 -96l15 -12c11 -8 45 -38 83 -38s56 24 56 62s-10 62 -10 62l84 -16s10 -24 10 -62zM186 96c-20 18 -35 28 -59 28
s-40 -14 -40 -36s16 -38 38 -38s49 18 61 46z" />
    <glyph glyph-name="currency" unicode="&#xa4;" 
d="M413 232l64 -64l-48 -48l-64 64c-6 -6 -42 -27 -90 -27s-84 21 -90 27l-64 -64l-48 48l64 64c-6 6 -27 42 -27 90s21 84 27 90l-64 64l48 48l64 -64c6 6 42 27 90 27s84 -21 90 -27l64 64l48 -48l-64 -64c6 -6 27 -42 27 -90s-21 -84 -27 -90zM375 322
c0 56 -44 100 -100 100s-100 -44 -100 -100s44 -100 100 -100s100 44 100 100z" />
    <glyph glyph-name="yen" unicode="&#xa5;" 
d="M407 688h107l-138 -280h104v-72h-140l-11 -24v-66h151v-72h-151v-174h-107v174h-151v72h151v66l-11 24h-140v72h104l-138 280h112l109 -239c9 -21 19 -49 19 -49h2s10 28 19 49z" />
    <glyph glyph-name="florin" unicode="&#x192;" 
d="M507 692l-26 -70h-2c-16 12 -42 18 -54 18s-22 -2 -32 -8s-22 -16 -30 -52l-39 -168h135v-72h-151l-73 -316c-13 -58 -32 -89 -54 -108c-27 -23 -60 -30 -90 -30s-72 10 -98 28l30 70h2c6 -4 26 -14 46 -14s32 6 40 14s18 25 26 60l69 296h-117v72h133l43 186
c11 47 28 78 54 98c24 18 52 26 90 26s81 -18 98 -30z" />
    <glyph glyph-name="Euro" unicode="&#x20ac;" 
d="M432 208l90 -14s2 -10 2 -20c0 -86 -56 -188 -198 -188s-206 110 -220 250h-56v72h51s-1 24 -1 45s1 45 1 45h-51v72h60c14 126 80 232 220 232s188 -112 188 -178c0 -6 -1 -14 -1 -14l-88 -16s1 8 1 14c0 62 -32 116 -100 116s-106 -60 -114 -154h163v-72h-172
s-1 -28 -1 -45s1 -45 1 -45h172v-72h-167c4 -74 30 -166 114 -166s108 63 108 118c0 10 -2 20 -2 20z" />
    <glyph glyph-name="numbersign" unicode="#" horiz-adv-x="660" 
d="M612 506v-72h-132l-37 -180h117v-72h-131l-40 -196h-55l40 196h-153l-40 -196h-55l40 196h-118v72h132l37 180h-117v72h131l40 196h55l-40 -196h153l40 196h55l-40 -196h118zM388 254l37 180h-153l-37 -180h153z" />
    <glyph glyph-name="onesuperior" unicode="&#xb9;" horiz-adv-x="336" 
d="M236 891v-408h-91v306h-2c-15 -16 -51 -34 -73 -42l-26 64c22 8 50 23 66 34s36 30 43 46h83z" />
    <glyph glyph-name="twosuperior" unicode="&#xb2;" horiz-adv-x="416" 
d="M364 559v-74h-302c0 48 12 88 40 126s52 54 72 70l18 14c38 30 70 48 70 86s-25 58 -60 58c-38 0 -58 -24 -58 -58c0 -24 6 -40 6 -40l-82 8s-6 16 -6 40c0 70 56 114 142 114s148 -44 148 -118s-60 -110 -84 -128l-18 -14c-12 -10 -38 -28 -52 -42s-22 -28 -26 -40v-2
h192z" />
    <glyph glyph-name="threesuperior" unicode="&#xb3;" horiz-adv-x="416" 
d="M356 597c0 -76 -56 -128 -152 -128s-144 52 -144 116c0 12 2 20 2 20l82 16s-2 -8 -2 -20c0 -48 24 -68 62 -68s64 20 64 68s-26 70 -70 70h-26v60h24c36 0 59 19 59 57c0 34 -19 55 -55 55s-56 -22 -56 -52c0 -14 4 -30 4 -30l-76 10s-4 16 -4 30c0 56 42 102 132 102
s142 -46 142 -112s-54 -84 -66 -88v-2c26 -6 80 -28 80 -104z" />
    <glyph glyph-name="zero.onum" horiz-adv-x="564" 
d="M514 256c0 -148 -82 -270 -232 -270s-232 122 -232 270s82 270 232 270s232 -122 232 -270zM405 257c0 91 -31 185 -123 185s-123 -94 -123 -185s31 -185 123 -185s123 95 123 185z" />
    <glyph glyph-name="one.onum" horiz-adv-x="390" 
d="M292 514v-514h-107v374h-2c-11 -10 -25 -22 -41 -32s-46 -28 -82 -40l-34 78c38 12 82 38 110 60s57 50 65 74h91z" />
    <glyph glyph-name="two.onum" horiz-adv-x="512" 
d="M464 90v-90h-410c0 60 18 110 44 148s63 70 124 106l40 24c70 42 84 60 84 94s-24 76 -94 76s-96 -44 -96 -86c0 -32 9 -46 9 -46l-98 14s-9 14 -9 46c0 68 56 150 196 150s198 -76 198 -154s-60 -120 -108 -148l-34 -20c-28 -16 -62 -36 -82 -54s-36 -38 -42 -58v-2h278
z" />
    <glyph glyph-name="three.onum" horiz-adv-x="500" 
d="M448 64c0 -134 -94 -218 -220 -218s-196 74 -196 174c0 22 4 34 4 34l97 16s-4 -14 -4 -36c0 -72 35 -108 97 -108s114 38 114 136s-54 136 -112 136c-42 0 -62 -14 -62 -14l-40 66l180 176v2h-240v84h362v-78l-170 -166v-2h12c86 0 178 -68 178 -202z" />
    <glyph glyph-name="four.onum" horiz-adv-x="552" 
d="M528 90v-90h-91v-142h-107v142h-306v100l283 412h130v-422h91zM190 90h140v274c0 30 2 58 2 58h-2s-14 -28 -34 -58l-156 -228c-12 -18 -34 -46 -34 -46v-2s42 2 84 2z" />
    <glyph glyph-name="five.onum" horiz-adv-x="540" 
d="M492 82c0 -150 -92 -236 -226 -236s-202 84 -202 170c0 8 2 18 2 18l100 18s-2 -10 -2 -18c0 -66 32 -108 102 -108s118 52 118 152s-52 138 -106 138s-92 -26 -110 -74l-96 20l48 350h348l-16 -86h-244l-26 -180h2c2 4 40 48 126 48s182 -62 182 -212z" />
    <glyph glyph-name="six.onum" horiz-adv-x="560" 
d="M510 224c0 -130 -76 -238 -224 -238s-228 122 -228 338s96 346 246 346s184 -112 186 -146l-94 -20c-3 50 -32 88 -92 88s-88 -36 -106 -68s-36 -96 -36 -170h2s44 84 154 84s192 -84 192 -214zM402 216c0 76 -30 144 -108 144s-118 -74 -118 -150s30 -144 108 -144
s118 74 118 150z" />
    <glyph glyph-name="seven.onum" horiz-adv-x="476" 
d="M432 512v-82c-34 -48 -94 -170 -126 -256s-64 -186 -76 -316h-110c14 130 46 234 82 326s70 160 118 240v2h-306v86h418z" />
    <glyph glyph-name="eight.onum" horiz-adv-x="552" 
d="M498 184c0 -126 -92 -198 -222 -198s-222 72 -222 198s96 164 122 171v2c-14 5 -98 35 -98 143s86 170 198 170s198 -62 198 -170s-84 -138 -98 -143v-2c26 -7 122 -45 122 -171zM368 494c0 60 -32 100 -92 100s-92 -40 -92 -100s32 -100 92 -100s92 40 92 100zM390 192
c0 72 -38 126 -114 126s-114 -54 -114 -126s38 -126 114 -126s114 54 114 126z" />
    <glyph glyph-name="nine.onum" horiz-adv-x="560" 
d="M50 292c0 130 81 234 223 234c149 0 229 -118 229 -332s-98 -348 -246 -348s-186 116 -188 150l94 22c4 -52 36 -94 96 -94s92 40 108 72s32 94 32 168h-2s-44 -86 -154 -86s-192 84 -192 214zM384 306c0 76 -30 142 -108 142s-118 -72 -118 -148s30 -142 108 -142
s118 72 118 148z" />
    <glyph glyph-name="zero.pnum" horiz-adv-x="564" 
d="M518 344c0 -180 -68 -358 -236 -358s-236 178 -236 358s68 358 236 358s236 -178 236 -358zM406 344c0 152 -40 274 -124 274s-124 -122 -124 -274s40 -272 124 -272s124 120 124 272z" />
    <glyph glyph-name="one.pnum" horiz-adv-x="386" 
d="M284 692v-692h-107v546h-2c-6 -8 -25 -22 -41 -32s-42 -26 -80 -39l-34 77c38 12 82 38 110 60s55 56 63 80h91z" />
    <glyph glyph-name="two.pnum" horiz-adv-x="528" 
d="M484 91v-91h-435c0 64 13 116 39 164s74 102 132 152l40 34c68 58 104 104 104 162s-34 106 -106 106s-107 -48 -107 -116c0 -34 10 -65 10 -65l-103 14s-10 31 -10 65c0 102 76 186 212 186s215 -80 215 -190s-91 -182 -132 -216l-38 -32c-31 -26 -65 -58 -87 -86
c-16 -20 -35 -50 -43 -85v-2h309z" />
    <glyph glyph-name="three.pnum" horiz-adv-x="526" 
d="M480 194c0 -132 -100 -208 -228 -208s-212 74 -212 182c0 24 4 44 4 44l100 18s-4 -20 -4 -44c0 -78 50 -118 114 -118c68 0 116 42 116 132s-50 132 -128 132h-44v80h42c68 0 110 38 110 108s-42 104 -100 104s-98 -32 -98 -96c0 -24 4 -42 4 -42l-98 16s-4 18 -4 42
c0 90 78 158 198 158s204 -70 204 -178s-84 -144 -108 -148v-2c32 -4 132 -48 132 -180z" />
    <glyph glyph-name="four.pnum" 
d="M528 238v-90h-92v-148h-107v148h-303v100l295 440h115v-450h92zM172 238h157v278c0 32 1 58 1 58h-2s-18 -32 -36 -60l-138 -208c-14 -22 -47 -67 -47 -67v-2s29 1 65 1z" />
    <glyph glyph-name="five.pnum" horiz-adv-x="534" 
d="M486 234c0 -156 -94 -248 -230 -248s-202 86 -202 180c0 10 2 22 2 22l98 18s-2 -12 -2 -22c0 -70 34 -118 104 -118s120 54 120 162s-50 156 -112 156c-49 0 -90 -28 -106 -82l-96 20l50 366h352l-15 -88h-249l-29 -188h2c4 4 41 50 121 50c102 0 192 -72 192 -228z" />
    <glyph glyph-name="six.pnum" horiz-adv-x="540" 
d="M502 234c0 -126 -73 -248 -223 -248s-231 122 -231 348s90 368 248 368s184 -132 186 -151l-95 -22c-5 47 -29 95 -91 95s-94 -40 -112 -78s-32 -98 -32 -174h2s36 88 156 88s192 -100 192 -226zM394 226c0 88 -30 154 -110 154s-118 -70 -118 -158s30 -154 110 -154
s118 70 118 158z" />
    <glyph glyph-name="seven.pnum" horiz-adv-x="504" 
d="M464 688v-82c-44 -60 -96 -172 -128 -262s-64 -214 -76 -344h-110c16 132 48 254 82 348s76 182 118 251h-312v89h426z" />
    <glyph glyph-name="eight.pnum" horiz-adv-x="548" 
d="M500 192c0 -132 -94 -206 -226 -206s-226 74 -226 206s94 174 124 182v2c-18 6 -102 38 -102 150s90 176 204 176s204 -64 204 -176s-84 -144 -102 -150v-2c30 -8 124 -50 124 -182zM372 520c0 64 -34 106 -98 106s-98 -42 -98 -106s34 -106 98 -106s98 42 98 106z
M390 200c0 78 -38 134 -116 134s-116 -56 -116 -134s38 -134 116 -134s116 56 116 134z" />
    <glyph glyph-name="nine.pnum" horiz-adv-x="540" 
d="M492 354c0 -226 -90 -368 -248 -368s-186 120 -188 154l94 22c4 -60 42 -96 98 -96c52 0 88 36 108 78s32 106 32 178h-2s-40 -88 -154 -88c-122 0 -194 94 -194 226c0 130 76 242 224 242s230 -122 230 -348zM374 474c0 84 -30 150 -110 150s-118 -74 -118 -158
s30 -150 110 -150s118 74 118 158z" />
    <glyph glyph-name="oneeighth" unicode="&#x215b;" horiz-adv-x="848" 
d="M810 113c0 -78 -61 -127 -157 -127s-157 49 -157 127s56 99 78 105v2c-5 2 -62 20 -62 90s61 110 141 110s141 -40 141 -110s-57 -88 -62 -90v-2c22 -6 78 -27 78 -105zM524 688h84l-362 -688h-84zM707 304c0 34 -20 54 -54 54s-54 -20 -54 -54s20 -54 54 -54
s54 20 54 54zM718 119c0 44 -21 70 -65 70s-65 -26 -65 -70s21 -71 65 -71s65 27 65 71zM236 690v-408h-91v306h-2c-15 -16 -51 -34 -73 -42l-26 64c22 8 50 23 66 34s36 30 43 46h83z" />
    <glyph glyph-name="threeeighths" unicode="&#x215c;" horiz-adv-x="848" 
d="M810 113c0 -78 -61 -127 -157 -127s-157 49 -157 127s56 99 78 105v2c-5 2 -62 20 -62 90s61 110 141 110s141 -40 141 -110s-57 -88 -62 -90v-2c22 -6 78 -27 78 -105zM560 688h84l-362 -688h-84zM707 304c0 34 -20 54 -54 54s-54 -20 -54 -54s20 -54 54 -54
s54 20 54 54zM718 119c0 44 -21 70 -65 70s-65 -26 -65 -70s21 -71 65 -71s65 27 65 71zM338 396c0 -76 -56 -128 -152 -128s-144 52 -144 116c0 12 2 20 2 20l82 16s-2 -8 -2 -20c0 -48 24 -68 62 -68s64 20 64 68s-26 70 -70 70h-26v60h24c36 0 59 19 59 57
c0 34 -19 55 -55 55s-56 -22 -56 -52c0 -14 4 -30 4 -30l-76 10s-4 16 -4 30c0 56 42 102 132 102s142 -46 142 -112s-54 -84 -66 -88v-2c26 -6 80 -28 80 -104z" />
    <glyph glyph-name="fiveeighths" unicode="&#x215d;" horiz-adv-x="848" 
d="M810 113c0 -78 -61 -127 -157 -127s-157 49 -157 127s56 99 78 105v2c-5 2 -62 20 -62 90s61 110 141 110s141 -40 141 -110s-57 -88 -62 -90v-2c22 -6 78 -27 78 -105zM558 688h84l-362 -688h-84zM707 304c0 34 -20 54 -54 54s-54 -20 -54 -54s20 -54 54 -54
s54 20 54 54zM718 119c0 44 -21 70 -65 70s-65 -26 -65 -70s21 -71 65 -71s65 27 65 71zM330 418c0 -88 -54 -150 -154 -150s-138 60 -138 100c0 10 2 20 2 20l79 18s-2 -10 -2 -20c0 -32 25 -54 59 -54s66 24 66 84s-30 78 -60 78s-52 -12 -64 -38l-74 13l30 219h240
l-10 -66h-162l-14 -94h2s24 26 76 26c68 0 124 -48 124 -136z" />
    <glyph glyph-name="seveneighths" unicode="&#x215e;" horiz-adv-x="848" 
d="M810 113c0 -78 -61 -127 -157 -127s-157 49 -157 127s56 99 78 105v2c-5 2 -62 20 -62 90s61 110 141 110s141 -40 141 -110s-57 -88 -62 -90v-2c22 -6 78 -27 78 -105zM536 688h84l-362 -688h-84zM345 688v-62c-22 -24 -64 -96 -85 -148c-19 -47 -40 -123 -48 -196h-92
c8 68 26 134 54 200c23 54 50 102 78 138v2s-28 -1 -56 -1h-136v67h285zM707 304c0 34 -20 54 -54 54s-54 -20 -54 -54s20 -54 54 -54s54 20 54 54zM718 119c0 44 -21 70 -65 70s-65 -26 -65 -70s21 -71 65 -71s65 27 65 71z" />
    <glyph glyph-name="onequarter" unicode="&#xbc;" horiz-adv-x="848" 
d="M794 150v-72h-58v-79h-92v79h-202v74l190 258h104v-260h58zM524 688h84l-362 -688h-84zM549 148h96v126c0 24 1 50 1 50h-2s-16 -26 -28 -42l-70 -97c-10 -13 -28 -36 -28 -36v-2s18 1 31 1zM236 690v-408h-91v306h-2c-15 -16 -51 -34 -73 -42l-26 64c22 8 50 23 66 34
s36 30 43 46h83z" />
    <glyph glyph-name="threequarters" unicode="&#xbe;" horiz-adv-x="848" 
d="M576 688h84l-362 -688h-84zM804 150v-72h-58v-79h-92v79h-202v74l190 258h104v-260h58zM559 148h96v126c0 24 1 50 1 50h-2s-16 -26 -28 -42l-70 -97c-10 -13 -28 -36 -28 -36v-2s18 1 31 1zM338 396c0 -76 -56 -128 -152 -128s-144 52 -144 116c0 12 2 20 2 20l82 16
s-2 -8 -2 -20c0 -48 24 -68 62 -68s64 20 64 68s-26 70 -70 70h-26v60h24c36 0 59 19 59 57c0 34 -19 55 -55 55s-56 -22 -56 -52c0 -14 4 -30 4 -30l-76 10s-4 16 -4 30c0 56 42 102 132 102s142 -46 142 -112s-54 -84 -66 -88v-2c26 -6 80 -28 80 -104z" />
    <glyph glyph-name="onethird" unicode="&#x2153;" horiz-adv-x="848" 
d="M524 688h84l-362 -688h-84zM236 690v-408h-91v306h-2c-15 -16 -51 -34 -73 -42l-26 64c22 8 50 23 66 34s36 30 43 46h83zM800 112c0 -76 -56 -128 -152 -128s-144 52 -144 116c0 12 2 20 2 20l82 16s-2 -8 -2 -20c0 -48 24 -68 62 -68s64 20 64 68s-26 70 -70 70h-26v60
h24c36 0 59 19 59 57c0 34 -19 55 -55 55s-56 -22 -56 -52c0 -14 4 -30 4 -30l-76 10s-4 16 -4 30c0 56 42 102 132 102s142 -46 142 -112s-54 -84 -66 -88v-2c26 -6 80 -28 80 -104z" />
    <glyph glyph-name="twothirds" unicode="&#x2154;" horiz-adv-x="848" 
d="M564 688h84l-362 -688h-84zM320 358v-74h-292c0 48 12 88 40 126s52 54 72 70l18 14c38 30 70 48 70 86s-25 58 -60 58c-38 0 -58 -24 -58 -58c0 -24 6 -40 6 -40l-82 8s-6 16 -6 40c0 70 56 114 142 114s148 -44 148 -118s-60 -110 -84 -128l-18 -14
c-12 -10 -38 -28 -52 -42s-22 -28 -26 -40v-2h182zM800 112c0 -76 -56 -128 -152 -128s-144 52 -144 116c0 12 2 20 2 20l82 16s-2 -8 -2 -20c0 -48 24 -68 62 -68s64 20 64 68s-26 70 -70 70h-26v60h24c36 0 59 19 59 57c0 34 -19 55 -55 55s-56 -22 -56 -52
c0 -14 4 -30 4 -30l-76 10s-4 16 -4 30c0 56 42 102 132 102s142 -46 142 -112s-54 -84 -66 -88v-2c26 -6 80 -28 80 -104z" />
    <glyph glyph-name="onehalf" unicode="&#xbd;" horiz-adv-x="848" 
d="M514 688h84l-362 -688h-84zM236 690v-408h-91v306h-2c-15 -16 -51 -34 -73 -42l-26 64c22 8 50 23 66 34s36 30 43 46h83zM780 74v-74h-302c0 48 12 88 40 126s52 54 72 70l18 14c38 30 70 48 70 86s-25 58 -60 58c-38 0 -58 -24 -58 -58c0 -24 6 -40 6 -40l-82 8
s-6 16 -6 40c0 70 56 114 142 114s148 -44 148 -118s-60 -110 -84 -128l-18 -14c-12 -10 -38 -28 -52 -42s-22 -28 -26 -40v-2h192z" />
    <glyph glyph-name="fraction" unicode="&#x2044;" horiz-adv-x="130" 
d="M204 688h84l-362 -688h-84z" />
    <glyph glyph-name="percent" unicode="%" horiz-adv-x="850" 
d="M804 202c0 -120 -52 -216 -156 -216s-156 96 -156 216s52 216 156 216s156 -96 156 -216zM564 688h84l-362 -688h-84zM358 486c0 -120 -52 -216 -156 -216s-156 96 -156 216s52 216 156 216s156 -96 156 -216zM716 202c0 92 -26 148 -68 148s-68 -56 -68 -148
s26 -148 68 -148s68 56 68 148zM270 486c0 92 -26 148 -68 148s-68 -56 -68 -148s26 -148 68 -148s68 56 68 148z" />
    <glyph glyph-name="perthousand" unicode="&#x2030;" horiz-adv-x="1200" 
d="M1154 202c0 -120 -52 -216 -156 -216s-156 96 -156 216s52 216 156 216s156 -96 156 -216zM1066 202c0 92 -26 148 -68 148s-68 -56 -68 -148s26 -148 68 -148s68 56 68 148zM804 202c0 -120 -52 -216 -156 -216s-156 96 -156 216s52 216 156 216s156 -96 156 -216z
M564 688h84l-362 -688h-84zM358 486c0 -120 -52 -216 -156 -216s-156 96 -156 216s52 216 156 216s156 -96 156 -216zM716 202c0 92 -26 148 -68 148s-68 -56 -68 -148s26 -148 68 -148s68 56 68 148zM270 486c0 92 -26 148 -68 148s-68 -56 -68 -148s26 -148 68 -148
s68 56 68 148z" />
    <glyph glyph-name="plus" unicode="+" 
d="M505 316v-74h-193v-194h-74v194h-193v74h193v194h74v-194h193z" />
    <glyph glyph-name="minus" unicode="&#x2212;" 
d="M505 316v-74h-460v74h460z" />
    <glyph glyph-name="multiply" unicode="&#xd7;" 
d="M411 468l53 -53l-137 -136l137 -136l-53 -53l-136 137l-136 -137l-53 53l137 136l-137 136l53 53l136 -137z" />
    <glyph glyph-name="divide" unicode="&#xf7;" 
d="M314 512v-116h-78v116h78zM505 316v-74h-460v74h460zM314 162v-116h-78v116h78z" />
    <glyph glyph-name="plusminus" unicode="&#xb1;" 
d="M505 366v-74h-193v-180h-74v180h-193v74h193v180h74v-180h193zM505 74v-74h-460v74h460z" />
    <glyph glyph-name="equal" unicode="=" 
d="M505 414v-74h-460v74h460zM505 218v-74h-460v74h460z" />
    <glyph glyph-name="notequal" unicode="&#x2260;" 
d="M505 218v-74h-247l-45 -102h-84l45 102h-129v74h161l54 122h-215v74h247l45 102h84l-45 -102h129v-74h-161l-54 -122h215z" />
    <glyph glyph-name="approxequal" unicode="&#x2248;" 
d="M453 428l56 -40c-38 -74 -96 -96 -144 -96s-80 24 -100 38s-48 38 -82 38s-64 -22 -86 -64l-56 40c38 74 96 96 144 96s80 -24 100 -38s48 -38 82 -38s64 22 86 64zM453 256l56 -40c-38 -74 -96 -96 -144 -96s-80 24 -100 38s-48 38 -82 38s-64 -22 -86 -64l-56 40
c38 74 96 96 144 96s80 -24 100 -38s48 -38 82 -38s64 22 86 64z" />
    <glyph glyph-name="less" unicode="&#x3c;" 
d="M505 116v-76l-460 202v74l460 202v-76l-374 -162v-2z" />
    <glyph glyph-name="greater" unicode="&#x3e;" 
d="M505 316v-74l-460 -202v76l374 162v2l-374 162v76z" />
    <glyph glyph-name="lessequal" unicode="&#x2264;" 
d="M505 176v-76l-460 182v74l460 182v-76l-374 -142v-2zM505 74v-74h-460v74h460z" />
    <glyph glyph-name="greaterequal" unicode="&#x2265;" 
d="M505 356v-74l-460 -182v76l374 142v2l-374 142v76zM505 74v-74h-460v74h460z" />
    <glyph glyph-name="logicalnot" unicode="&#xac;" 
d="M495 316v-268h-74v194h-386v74h460z" />
    <glyph glyph-name="section" unicode="&#xa7;" 
d="M482 254c0 -88 -60 -124 -92 -144c10 -6 78 -52 78 -139c0 -83 -72 -167 -192 -167s-198 80 -218 152l76 40c20 -72 80 -115 142 -115s98 37 98 83s-26 68 -92 100l-74 36c-72 36 -132 92 -132 180s58 124 92 144c-14 10 -75 50 -75 130s65 148 179 148
c124 0 176 -82 192 -118l-68 -46c-24 54 -72 90 -124 90s-86 -28 -86 -70s34 -60 90 -88l74 -36c72 -36 132 -92 132 -180zM394 238c0 58 -36 86 -80 108l-92 46c-14 -8 -58 -38 -58 -96s36 -86 80 -108l92 -46c14 8 58 38 58 96z" />
    <glyph glyph-name="asciicircum" unicode="^" 
d="M313 703l196 -363h-88l-145 278h-2l-145 -278h-88l196 363h76z" />
    <glyph glyph-name="asciitilde" unicode="~" 
d="M453 342l56 -40c-38 -74 -96 -96 -144 -96s-80 24 -100 38s-48 38 -82 38s-64 -22 -86 -64l-56 40c38 74 96 96 144 96s80 -24 100 -38s48 -38 82 -38s64 22 86 64z" />
    <glyph glyph-name="asterisk" unicode="*" horiz-adv-x="500" 
d="M430 567v-72l-144 15l86 -118l-63 -36l-59 132l-59 -132l-63 36l86 118l-144 -15v72l144 -15l-86 118l63 36l59 -132l59 132l63 -36l-86 -118z" />
    <glyph glyph-name="bar" unicode="|" horiz-adv-x="296" 
d="M191 745v-937h-86v937h86z" />
    <glyph glyph-name="brokenbar" unicode="&#xa6;" horiz-adv-x="296" 
d="M191 746v-372h-86v372h86zM191 180v-372h-86v372h86z" />
    <glyph glyph-name="bullet" unicode="&#x2022;" 
d="M405 350c0 -74 -56 -130 -130 -130s-130 56 -130 130s56 130 130 130s130 -56 130 -130z" />
    <glyph glyph-name="periodcentered" unicode="&#xb7;" horiz-adv-x="275" 
d="M191 336v-138h-106v138h106z" />
    <glyph glyph-name="period" unicode="." horiz-adv-x="275" 
d="M191 138v-138h-106v138h106z" />
    <glyph glyph-name="comma" unicode="," horiz-adv-x="275" 
d="M191 138v-150c0 -66 -30 -114 -82 -140l-36 42c32 16 54 44 54 92v18h-42v138h106z" />
    <glyph glyph-name="colon" unicode=":" horiz-adv-x="275" 
d="M191 494v-138h-106v138h106zM191 138v-138h-106v138h106z" />
    <glyph glyph-name="semicolon" unicode=";" horiz-adv-x="275" 
d="M191 494v-138h-106v138h106zM191 138v-150c0 -66 -30 -114 -82 -140l-36 42c32 16 54 44 54 92v18h-42v138h106z" />
    <glyph glyph-name="ellipsis" unicode="&#x2026;" horiz-adv-x="831" 
d="M747 138v-138h-106v138h106zM469 138v-138h-106v138h106zM191 138v-138h-106v138h106z" />
    <glyph glyph-name="degree" unicode="&#xb0;" horiz-adv-x="392" 
d="M350 549c0 -85 -69 -154 -154 -154s-154 69 -154 154s69 154 154 154s154 -69 154 -154zM280 549c0 47 -37 84 -84 84s-84 -37 -84 -84s37 -84 84 -84s84 37 84 84z" />
    <glyph glyph-name="ampersand" unicode="&#x26;" horiz-adv-x="678" 
d="M638 88l24 -72c-4 -4 -40 -28 -104 -28s-96 20 -114 42l-10 12s-52 -56 -166 -56s-222 72 -222 206s96 184 142 208l31 16l-3 6c-4 8 -36 60 -36 130s52 150 170 150s158 -76 158 -138s-48 -116 -128 -156l-36 -18s38 -68 56 -100s59 -103 59 -103c7 11 21 33 35 65
s28 72 34 104l80 -36c-6 -32 -20 -72 -34 -104s-42 -80 -66 -104l11 -14c13 -16 31 -26 59 -26s54 12 60 16zM418 564c0 38 -26 65 -64 65s-72 -25 -72 -71s18 -78 28 -98l4 -8l34 20c48 28 70 58 70 92zM386 114c0 0 -52 90 -70 122s-67 118 -67 118l-11 -6
c-26 -14 -82 -58 -82 -144s56 -132 124 -132s106 42 106 42z" />
    <glyph glyph-name="at" unicode="@" horiz-adv-x="998" 
d="M924 310c0 -186 -118 -310 -246 -310c-98 0 -120 68 -122 88h-2c-4 -16 -52 -86 -140 -86s-140 74 -140 192s52 210 94 252s82 60 134 60s100 -28 114 -74h2l20 58h92l-70 -274c-10 -38 -14 -68 -14 -82s4 -58 54 -58c68 0 148 82 148 234c0 170 -114 324 -326 324
s-366 -156 -366 -390c0 -228 146 -364 358 -364c168 0 270 80 270 80l32 -56s-106 -92 -300 -92c-256 0 -440 166 -440 434c0 278 200 456 446 456s402 -176 402 -392zM556 190l39 154c-6 62 -45 84 -81 84s-62 -14 -88 -48s-56 -108 -56 -186s28 -108 74 -108
s96 40 112 104z" />
    <glyph glyph-name="paragraph" unicode="&#xb6;" 
d="M463 688v-878h-64v878h64zM331 688v-878h-64v478c-122 0 -220 70 -220 200s94 200 230 200h54z" />
    <glyph glyph-name="copyright" unicode="&#xa9;" horiz-adv-x="844" 
d="M788 350c0 -202 -164 -366 -366 -366s-366 164 -366 366s164 366 366 366s366 -164 366 -366zM730 350c0 172 -136 310 -308 310s-308 -138 -308 -310s136 -310 308 -310s308 138 308 310zM530 282l70 -23c-10 -39 -52 -133 -178 -133s-194 98 -194 224s74 223 198 223
s164 -95 170 -133l-72 -22c-5 32 -26 89 -100 89s-110 -73 -110 -157s34 -158 110 -158s99 63 106 90z" />
    <glyph glyph-name="registered" unicode="&#xae;" horiz-adv-x="764" 
d="M708 504c0 -180 -146 -326 -326 -326s-326 146 -326 326s146 326 326 326s326 -146 326 -326zM654 504c0 151 -121 274 -272 274s-272 -123 -272 -274s121 -274 272 -274s272 123 272 274zM456 482l100 -162h-86l-95 156h-53v-156h-76v368h164c76 0 126 -42 126 -106
s-48 -92 -80 -100zM456 582c0 36 -26 48 -62 48h-72v-96h72c36 0 62 12 62 48z" />
    <glyph glyph-name="trademark" unicode="&#x2122;" horiz-adv-x="846" 
d="M746 688v-368h-76v256c0 24 1 50 1 50h-2s-5 -26 -11 -50l-60 -256h-88l-60 256c-6 24 -11 50 -11 50h-2s1 -26 1 -50v-256h-70v368h124l52 -230c6 -26 12 -62 12 -62h2s6 36 12 62l52 230h124zM50 688h278l-12 -62h-92v-306h-76v306h-98v62z" />
    <glyph glyph-name="pressmark" unicode="&#x24c5;" horiz-adv-x="764" 
d="M708 504c0 -180 -146 -326 -326 -326s-326 146 -326 326s146 326 326 326s326 -146 326 -326zM654 504c0 151 -121 274 -272 274s-272 -123 -272 -274s121 -274 272 -274s272 123 272 274zM546 576c0 -72 -52 -112 -124 -112h-90v-144h-76v368h166c72 0 124 -40 124 -112
zM466 576c0 38 -22 54 -60 54h-74v-108h74c38 0 60 16 60 54z" />
    <glyph glyph-name="dagger" unicode="&#x2020;" 
d="M505 486v-83l-198 11l12 -226l-14 -380h-60l-14 380l12 226l-198 -11v83l198 -11l-12 227h88l-12 -227z" />
    <glyph glyph-name="daggerdbl" unicode="&#x2021;" 
d="M505 107v-83l-198 11l12 -227h-88l12 227l-198 -11v83l198 -11l-12 159l12 159l-198 -11v83l198 -11l-12 227h88l-12 -227l198 11v-83l-198 11l12 -159l-12 -159z" />
    <glyph glyph-name="braceleft" unicode="{" horiz-adv-x="350" 
d="M284 -144l30 -2l-6 -56l-62 4c-60 4 -96 20 -118 40s-32 46 -32 84s18 92 26 116l20 60c6 18 12 44 12 62s-2 40 -20 58s-50 24 -86 24h-12v64h12c36 0 68 6 86 24s20 40 20 58s-6 44 -12 62l-20 60c-8 24 -26 78 -26 116s10 64 32 84s58 36 118 40l62 4l6 -56l-30 -2
c-43 -3 -60 -12 -72 -24s-16 -26 -16 -42s8 -58 18 -88l20 -60c9 -26 18 -58 18 -86s-6 -50 -26 -74s-58 -42 -94 -47v-2c36 -5 74 -23 94 -47s26 -46 26 -74s-9 -60 -18 -86l-20 -60c-10 -30 -18 -72 -18 -88s4 -30 16 -42s29 -21 72 -24z" />
    <glyph glyph-name="braceright" unicode="}" horiz-adv-x="350" 
d="M66 700l-30 2l6 56l62 -4c60 -4 96 -20 118 -40s32 -46 32 -84s-18 -92 -26 -116l-20 -60c-6 -18 -12 -44 -12 -62s2 -40 20 -58s50 -24 86 -24h12v-64h-12c-36 0 -68 -6 -86 -24s-20 -40 -20 -58s6 -44 12 -62l20 -60c8 -24 26 -78 26 -116s-10 -64 -32 -84
s-58 -36 -118 -40l-62 -4l-6 56l30 2c43 3 60 12 72 24s16 26 16 42s-8 58 -18 88l-20 60c-9 26 -18 58 -18 86s6 50 26 74s58 42 94 47v2c-36 5 -74 23 -94 47s-26 46 -26 74s9 60 18 86l20 60c10 30 18 72 18 88s-4 30 -16 42s-29 21 -72 24z" />
    <glyph glyph-name="bracketleft" unicode="[" horiz-adv-x="316" 
d="M278 -124l12 -66h-234v936h234l-12 -66h-128v-804h128z" />
    <glyph glyph-name="bracketright" unicode="]" horiz-adv-x="350" 
d="M26 -190l12 66h128v804h-128l-12 66h234v-936h-234z" />
    <glyph glyph-name="parenleft" unicode="(" horiz-adv-x="350" 
d="M332 -162l-44 -42c-94 82 -228 242 -228 482s134 400 228 482l44 -42c-84 -86 -172 -240 -172 -440s88 -354 172 -440z" />
    <glyph glyph-name="parenright" unicode=")" horiz-adv-x="350" 
d="M62 -204l-44 42c84 86 172 240 172 440s-88 354 -172 440l44 42c94 -82 228 -242 228 -482s-134 -400 -228 -482z" />
    <glyph glyph-name="guilsinglleft" unicode="&#x2039;" horiz-adv-x="272" 
d="M216 52l-74 -26c-18 60 -60 160 -108 220c48 60 90 160 108 220l74 -26c-18 -60 -50 -140 -92 -193v-2c42 -53 74 -133 92 -193z" />
    <glyph glyph-name="guilsinglright" unicode="&#x203a;" horiz-adv-x="272" 
d="M130 26l-74 26c18 60 50 140 92 193v2c-42 53 -74 133 -92 193l74 26c18 -60 60 -160 108 -220c-48 -60 -90 -160 -108 -220z" />
    <glyph glyph-name="guillemotleft" unicode="&#xab;" horiz-adv-x="452" 
d="M216 52l-74 -26c-18 60 -60 160 -108 220c48 60 90 160 108 220l74 -26c-18 -60 -50 -140 -92 -193v-2c42 -53 74 -133 92 -193zM396 52l-74 -26c-18 60 -60 160 -108 220c48 60 90 160 108 220l74 -26c-18 -60 -50 -140 -92 -193v-2c42 -53 74 -133 92 -193z" />
    <glyph glyph-name="guillemotright" unicode="&#xbb;" horiz-adv-x="452" 
d="M310 26l-74 26c18 60 50 140 92 193v2c-42 53 -74 133 -92 193l74 26c18 -60 60 -160 108 -220c-48 -60 -90 -160 -108 -220zM130 26l-74 26c18 60 50 140 92 193v2c-42 53 -74 133 -92 193l74 26c18 -60 60 -160 108 -220c-48 -60 -90 -160 -108 -220z" />
    <glyph glyph-name="quotesingle" unicode="'" horiz-adv-x="272" 
d="M83 688h106l-18 -248h-70z" />
    <glyph glyph-name="quotedbl" unicode="&#x22;" horiz-adv-x="452" 
d="M264 688h106l-18 -248h-70zM82 688h106l-18 -248h-70z" />
    <glyph glyph-name="quotedblleft" unicode="&#x201c;" horiz-adv-x="452" 
d="M345 705l36 -42c-32 -16 -54 -44 -54 -92v-18h42v-138h-106v150c0 66 30 114 82 140zM165 705l36 -42c-32 -16 -54 -44 -54 -92v-18h42v-138h-106v150c0 66 30 114 82 140z" />
    <glyph glyph-name="quotedblright" unicode="&#x201d;" horiz-adv-x="452" 
d="M369 688v-150c0 -66 -30 -114 -82 -140l-36 42c32 16 54 44 54 92v18h-42v138h106zM189 688v-150c0 -66 -30 -114 -82 -140l-36 42c32 16 54 44 54 92v18h-42v138h106z" />
    <glyph glyph-name="quotesinglbase" unicode="&#x201a;" horiz-adv-x="272" 
d="M189 138v-150c0 -66 -30 -114 -82 -140l-36 42c32 16 54 44 54 92v18h-42v138h106z" />
    <glyph glyph-name="quotedblbase" unicode="&#x201e;" horiz-adv-x="452" 
d="M369 138v-150c0 -66 -30 -114 -82 -140l-36 42c32 16 54 44 54 92v18h-42v138h106zM189 138v-150c0 -66 -30 -114 -82 -140l-36 42c32 16 54 44 54 92v18h-42v138h106z" />
    <glyph glyph-name="hyphen" unicode="-" horiz-adv-x="300" 
d="M44 290h222l-14 -78h-222z" />
    <glyph glyph-name="uni00AD" unicode="&#xad;" horiz-adv-x="300" 
d="M44 290h222l-14 -78h-222z" />
    <glyph glyph-name="endash" unicode="&#x2013;" 
d="M504 284v-68h-458v68h458z" />
    <glyph glyph-name="emdash" unicode="&#x2014;" horiz-adv-x="1000" 
d="M960 284v-68h-920v68h920z" />
    <glyph glyph-name="underscore" unicode="_" 
d="M560 -110v-58h-570v58h570z" />
    <glyph glyph-name="exclam" unicode="!" horiz-adv-x="304" 
d="M94 688h116l-22 -474h-72zM205 138v-138h-106v138h106z" />
    <glyph glyph-name="exclamdown" unicode="&#xa1;" horiz-adv-x="304" 
d="M205 494v-138h-106v138h106zM188 280l22 -474h-116l22 474h72z" />
    <glyph glyph-name="question" unicode="?" horiz-adv-x="510" 
d="M452 530c0 -84 -62 -138 -82 -160l-50 -54c-8 -8 -22 -24 -28 -38s-6 -30 -6 -42v-22h-84v22c0 36 0 56 10 78s32 45 48 64l32 38c24 29 54 58 54 110s-32 92 -92 92s-98 -36 -98 -98c0 -30 8 -56 8 -56l-96 18s-8 28 -8 56c0 76 58 164 194 164s198 -88 198 -172z
M297 138v-138h-106v138h106z" />
    <glyph glyph-name="questiondown" unicode="&#xbf;" horiz-adv-x="510" 
d="M58 -36c0 84 62 138 82 160l50 54c8 8 22 24 28 38s6 30 6 42v22h84v-22c0 -36 0 -56 -10 -78s-32 -45 -48 -64l-32 -38c-24 -29 -54 -58 -54 -110s32 -92 92 -92s98 36 98 98c0 30 -8 56 -8 56l96 -18s8 -28 8 -56c0 -76 -58 -164 -194 -164s-198 88 -198 172zM213 356
v138h106v-138h-106z" />
    <glyph glyph-name="infinity" unicode="&#x221e;" 
d="M527 279c0 -80 -52 -141 -128 -141s-116 72 -124 88c-8 -16 -48 -88 -124 -88s-128 61 -128 141s52 141 128 141s116 -72 124 -88c8 16 48 88 124 88s128 -61 128 -141zM463 279c0 43 -26 77 -68 77s-61 -31 -80 -61l-10 -16l10 -16c19 -30 38 -61 80 -61s68 34 68 77z
M235 263l10 16l-10 16c-19 30 -38 61 -80 61s-68 -34 -68 -77s26 -77 68 -77s61 31 80 61z" />
    <glyph glyph-name="integral" unicode="&#x222b;" horiz-adv-x="338" 
d="M318 688l-13 -76h-2s-18 10 -38 10c-12 0 -24 -4 -33 -16s-17 -42 -17 -125v-457c0 -108 -14 -158 -41 -188c-23 -26 -55 -38 -92 -38c-36 0 -59 12 -62 14l12 76h2s15 -10 36 -10c9 0 24 2 34 16c9 12 18 36 18 124v460c0 111 14 158 40 186c27 30 63 38 93 38
c37 0 60 -12 63 -14z" />
    <glyph glyph-name="lozenge" unicode="&#x25ca;" 
d="M311 703l187 -359l-187 -359h-72l-187 359l187 359h72zM276 76l136 268l-136 268h-2l-136 -268l136 -268h2z" />
    <glyph glyph-name="partialdiff" unicode="&#x2202;" 
d="M480 375c0 -278 -114 -389 -236 -389c-111 0 -180 93 -180 227c0 148 83 255 197 255c84 0 120 -58 127 -74h2c0 60 -12 132 -32 178s-55 88 -119 88c-60 0 -99 -36 -123 -60h-2l-32 74c10 10 69 66 163 66c97 0 235 -60 235 -365zM384 300c-13 39 -52 88 -111 88
c-69 0 -117 -69 -117 -178c0 -104 44 -144 94 -144c60 0 124 58 134 234z" />
    <glyph glyph-name="mu" unicode="&#xb5;" horiz-adv-x="583" 
d="M503 494v-494h-105v77h-2c-9 -21 -56 -91 -152 -91c-26 0 -50 6 -59 14v-190h-107v684h107v-306c0 -60 15 -114 87 -114s124 62 124 142v278h107z" />
    <glyph glyph-name="summation" unicode="&#x2211;" 
d="M513 -90v-86h-458v76l228 380l-218 336v72h434v-84h-316v-2l208 -322l-222 -368v-2h344z" />
    <glyph glyph-name="product" unicode="&#x220f;" 
d="M525 688v-84h-88v-794h-88v794h-148v-794h-88v794h-88v84h500z" />
    <glyph glyph-name="pi" unicode="&#x3c0;" 
d="M523 512v-80h-75v-272c0 -70 7 -135 19 -160h-88c-12 25 -18 90 -18 160v272h-142c-3 -61 -8 -132 -20 -216c-10 -70 -24 -149 -45 -216h-88c21 67 38 155 47 216c11 73 17 153 20 216c-42 0 -68 -12 -88 -22h-2l-20 76c20 10 52 26 124 26h376z" />
    <glyph glyph-name="radical" unicode="&#x221a;" 
d="M453 764l76 -16l-190 -918h-84l-128 440l-72 -22l-22 72l152 46l107 -374h2z" />
    <glyph glyph-name="Delta" unicode="&#x2206;" 
d="M523 60v-60h-496v60l208 642h80zM117 78h316l-157 497h-2z" />
    <glyph glyph-name="Omega" unicode="&#x2126;" 
d="M514 80v-80h-213v74c47 34 120 142 120 308s-62 246 -146 246s-146 -80 -146 -246s74 -274 120 -308v-74h-213v80h116v2c-12 12 -113 112 -113 308s92 322 236 322s236 -126 236 -322s-101 -296 -113 -308v-2h116z" />
    <glyph glyph-name="ordfeminine" unicode="&#xaa;" horiz-adv-x="410" 
d="M370 426l10 -50s-24 -16 -62 -16s-50 13 -54 18c-5 6 -12 22 -14 36h-2c-6 -16 -34 -54 -98 -54s-110 38 -110 104s46 86 70 94s68 18 86 22s42 10 52 14v10c0 30 -18 45 -56 45s-57 -11 -67 -50l-73 16c13 56 54 87 142 87c86 0 142 -30 142 -106v-152
c0 -16 6 -22 16 -22s16 4 16 4h2zM372 307v-52h-329v52h329zM250 486v58h-2c-10 -4 -30 -10 -44 -14s-38 -10 -48 -14s-26 -14 -26 -44s18 -51 52 -51s68 21 68 65z" />
    <glyph glyph-name="ordmasculine" unicode="&#xba;" horiz-adv-x="410" 
d="M371 531c0 -103 -66 -171 -166 -171s-166 68 -166 171s66 171 166 171s166 -68 166 -171zM365 307v-52h-320v52h320zM284 531c0 70 -32 109 -79 109s-79 -39 -79 -109s32 -109 79 -109s79 39 79 109z" />
    <glyph glyph-name="grave" unicode="`" 
d="M297 700l66 -136h-78l-98 136h110z" />
    <glyph glyph-name="acute" unicode="&#xb4;" 
d="M187 564l66 136h110l-98 -136h-78z" />
    <glyph glyph-name="dieresis" unicode="&#xa8;" 
d="M395 700v-136h-82v136h82zM238 700v-136h-82v136h82z" />
    <glyph glyph-name="quoteleft" unicode="&#x2018;" horiz-adv-x="275" 
d="M167 705l36 -42c-32 -16 -54 -44 -54 -92v-18h42v-138h-106v150c0 66 30 114 82 140z" />
    <glyph glyph-name="quoteright" unicode="&#x2019;" horiz-adv-x="275" 
d="M190 688v-150c0 -66 -30 -114 -82 -140l-36 42c32 16 54 44 54 92v18h-42v138h106z" />
    <glyph glyph-name="circumflex" unicode="&#x2c6;" 
d="M332 700l68 -136h-70l-54 76h-2l-54 -76h-70l68 136h114z" />
    <glyph glyph-name="tilde" unicode="&#x2dc;" 
d="M376 688l54 -14l-2 -18c-6 -56 -40 -90 -92 -90s-76 31 -79 34l-2 2c-2 2 -19 24 -39 24s-34 -12 -40 -40l-2 -10l-54 14l2 18c6 56 40 90 92 90s76 -31 79 -34l2 -2c2 -2 19 -24 39 -24s34 12 40 40z" />
    <glyph glyph-name="macron" unicode="&#xaf;" 
d="M432 664v-64h-314v64h314z" />
    <glyph glyph-name="breve" unicode="&#x2d8;" 
d="M359 698l62 -20c-18 -72 -66 -110 -146 -110s-128 38 -146 110l62 20c9 -36 36 -66 84 -66s75 30 84 66z" />
    <glyph glyph-name="dotaccent" unicode="&#x2d9;" 
d="M318 693v-122h-86v122h86z" />
    <glyph glyph-name="ring" unicode="&#x2da;" 
d="M386 632c0 -60 -51 -88 -111 -88s-111 28 -111 88s51 88 111 88s111 -28 111 -88zM322 632c0 28 -19 45 -47 45s-47 -17 -47 -45s19 -45 47 -45s47 17 47 45z" />
    <glyph glyph-name="cedilla" unicode="&#xb8;" 
d="M276 0h80l-52 -142h-110z" />
    <glyph glyph-name="hungarumlaut" unicode="&#x2dd;" 
d="M274 564l66 136h110l-98 -136h-78zM100 564l66 136h110l-98 -136h-78z" />
    <glyph glyph-name="ogonek" unicode="&#x2db;" 
d="M232 0h80c-32 -24 -52 -54 -52 -88s20 -52 48 -52s42 14 42 14h2l20 -58s-28 -22 -86 -22s-108 40 -108 106s54 100 54 100z" />
    <glyph glyph-name="caron" unicode="&#x2c7;" 
d="M330 700h70l-68 -136h-114l-68 136h70l54 -76h2z" />
    <glyph glyph-name="commaaccent" unicode="&#xf6c3;" 
d="M329 -54v-113c0 -70 -31 -114 -76 -137l-32 39c26 13 47 46 47 82v10h-35v119h96z" />
    <glyph glyph-name="slash" unicode="/" horiz-adv-x="426" 
d="M273 694h79l-199 -694h-79z" />
    <glyph glyph-name="backslash" unicode="\" horiz-adv-x="426" 
d="M74 694h79l199 -694h-79z" />
    <glyph glyph-name="a.alt" horiz-adv-x="578" 
d="M42 244c0 138 72 264 206 264c110 0 143 -80 143 -80h2v66h105v-494h-105v68h-2s-43 -82 -151 -82c-132 0 -198 120 -198 258zM151 246c0 -90 29 -177 117 -177s123 85 123 155v48c0 70 -29 155 -117 155s-123 -91 -123 -181z" />
    <glyph glyph-name="adieresis.alt" horiz-adv-x="578" 
d="M409 700v-136h-82v136h82zM252 700v-136h-82v136h82zM42 244c0 138 72 264 206 264c110 0 143 -80 143 -80h2v66h105v-494h-105v68h-2s-43 -82 -151 -82c-132 0 -198 120 -198 258zM151 246c0 -90 29 -177 117 -177s123 85 123 155v48c0 70 -29 155 -117 155
s-123 -91 -123 -181z" />
    <glyph glyph-name="aring.alt" horiz-adv-x="578" 
d="M398 632c0 -60 -51 -88 -111 -88s-111 28 -111 88s51 88 111 88s111 -28 111 -88zM331 632c0 26 -18 44 -44 44s-44 -18 -44 -44s18 -44 44 -44s44 18 44 44zM42 244c0 138 72 264 206 264c110 0 143 -80 143 -80h2v66h105v-494h-105v68h-2s-43 -82 -151 -82
c-132 0 -198 120 -198 258zM151 246c0 -90 29 -177 117 -177s123 85 123 155v48c0 70 -29 155 -117 155s-123 -91 -123 -181z" />
    <glyph glyph-name="aacute.alt" horiz-adv-x="578" 
d="M298 700h110l-98 -136h-80zM42 244c0 138 72 264 206 264c110 0 143 -80 143 -80h2v66h105v-494h-105v68h-2s-43 -82 -151 -82c-132 0 -198 120 -198 258zM151 246c0 -90 29 -177 117 -177s123 85 123 155v48c0 70 -29 155 -117 155s-123 -91 -123 -181z" />
    <glyph glyph-name="agrave.alt" horiz-adv-x="578" 
d="M42 244c0 138 72 264 206 264c110 0 143 -80 143 -80h2v66h105v-494h-105v68h-2s-43 -82 -151 -82c-132 0 -198 120 -198 258zM151 246c0 -90 29 -177 117 -177s123 85 123 155v48c0 70 -29 155 -117 155s-123 -91 -123 -181zM262 700l66 -136h-78l-98 136h110z" />
    <glyph glyph-name="acircumflex.alt" horiz-adv-x="578" 
d="M338 700l68 -136h-68l-56 76h-2l-56 -76h-68l68 136h114zM42 244c0 138 72 264 206 264c110 0 143 -80 143 -80h2v66h105v-494h-105v68h-2s-43 -82 -151 -82c-132 0 -198 120 -198 258zM151 246c0 -90 29 -177 117 -177s123 85 123 155v48c0 70 -29 155 -117 155
s-123 -91 -123 -181z" />
    <glyph glyph-name="atilde.alt" horiz-adv-x="578" 
d="M384 688l54 -14l-2 -22c-5 -54 -42 -86 -92 -86s-73 28 -79 34l-2 2c-2 2 -19 23 -41 23s-32 -11 -38 -39l-2 -10l-54 14l2 22c5 54 42 86 92 86s73 -28 79 -34l2 -2c2 -2 19 -23 41 -23s32 11 38 39zM42 244c0 138 72 264 206 264c110 0 143 -80 143 -80h2v66h105v-494
h-105v68h-2s-43 -82 -151 -82c-132 0 -198 120 -198 258zM151 246c0 -90 29 -177 117 -177s123 85 123 155v48c0 70 -29 155 -117 155s-123 -91 -123 -181z" />
    <glyph glyph-name="amacron.alt" horiz-adv-x="578" 
d="M444 666v-68h-312v68h312zM42 244c0 138 72 264 206 264c110 0 143 -80 143 -80h2v66h105v-494h-105v68h-2s-43 -82 -151 -82c-132 0 -198 120 -198 258zM151 246c0 -90 29 -177 117 -177s123 85 123 155v48c0 70 -29 155 -117 155s-123 -91 -123 -181z" />
    <glyph glyph-name="abreve.alt" horiz-adv-x="578" 
d="M370 698l62 -20c-18 -72 -66 -110 -146 -110s-128 38 -146 110l62 20c9 -36 36 -66 84 -66s75 30 84 66zM42 244c0 138 72 264 206 264c110 0 143 -80 143 -80h2v66h105v-494h-105v68h-2s-43 -82 -151 -82c-132 0 -198 120 -198 258zM151 246c0 -90 29 -177 117 -177
s123 85 123 155v48c0 70 -29 155 -117 155s-123 -91 -123 -181z" />
    <glyph glyph-name="aogonek.alt" horiz-adv-x="578" 
d="M476 -126l20 -58s-28 -22 -86 -22s-108 40 -108 106s51 106 91 124v46h-2s-59 -84 -151 -84c-132 0 -198 120 -198 258s73 264 207 264c110 0 142 -80 142 -80h2v66h105v-494c-17 0 -44 -6 -68 -18s-46 -36 -46 -70s20 -52 48 -52s42 14 42 14h2zM151 246
c0 -90 29 -177 117 -177s123 85 123 155v48c0 70 -29 155 -117 155s-123 -91 -123 -181z" />
    <glyph glyph-name="ae.alt" horiz-adv-x="812" 
d="M774 260v-16l-335 -32v-4c0 -84 47 -141 119 -141s110 47 123 80l90 -30c-15 -33 -71 -131 -215 -131s-186 101 -186 101h-2c-20 -51 -66 -101 -164 -101s-166 64 -166 162s76 132 102 142s85 23 108 28s70 14 85 20v22c0 50 -27 73 -91 73s-84 -33 -93 -77l-91 24
c16 78 68 127 192 127s156 -53 159 -59h2s37 60 147 60c136 0 216 -100 216 -248zM334 172v96h-2c-20 -6 -46 -12 -70 -18s-42 -10 -60 -18s-56 -26 -56 -80s36 -84 88 -84s100 34 100 104zM439 288l227 22v2c0 58 -32 119 -108 119s-119 -57 -119 -143z" />
    <glyph glyph-name="aeacute.alt" horiz-adv-x="812" 
d="M430 700h110l-98 -136h-80zM774 260v-16l-335 -32v-4c0 -84 47 -141 119 -141s110 47 123 80l90 -30c-15 -33 -71 -131 -215 -131s-186 101 -186 101h-2c-20 -51 -66 -101 -164 -101s-166 64 -166 162s76 132 102 142s85 23 108 28s70 14 85 20v22c0 50 -27 73 -91 73
s-84 -33 -93 -77l-91 24c16 78 68 127 192 127s156 -53 159 -59h2s37 60 147 60c136 0 216 -100 216 -248zM334 172v96h-2c-20 -6 -46 -12 -70 -18s-42 -10 -60 -18s-56 -26 -56 -80s36 -84 88 -84s100 34 100 104zM439 288l227 22v2c0 58 -32 119 -108 119
s-119 -57 -119 -143z" />
    <glyph glyph-name="e.alt" horiz-adv-x="524" 
d="M484 260v-16l-335 -32v-4c0 -84 47 -141 119 -141s110 47 123 80l90 -30c-15 -33 -71 -131 -215 -131s-226 102 -226 262s92 260 228 260s216 -100 216 -248zM149 288l227 22v2c0 58 -32 119 -108 119s-119 -57 -119 -143z" />
    <glyph glyph-name="eacute.alt" horiz-adv-x="524" 
d="M284 700h110l-98 -136h-80zM484 260v-16l-335 -32v-4c0 -84 47 -141 119 -141s110 47 123 80l90 -30c-15 -33 -71 -131 -215 -131s-226 102 -226 262s92 260 228 260s216 -100 216 -248zM149 288l227 22v2c0 58 -32 119 -108 119s-119 -57 -119 -143z" />
    <glyph glyph-name="egrave.alt" horiz-adv-x="524" 
d="M252 700l66 -136h-78l-98 136h110zM484 260v-16l-335 -32v-4c0 -84 47 -141 119 -141s110 47 123 80l90 -30c-15 -33 -71 -131 -215 -131s-226 102 -226 262s92 260 228 260s216 -100 216 -248zM149 288l227 22v2c0 58 -32 119 -108 119s-119 -57 -119 -143z" />
    <glyph glyph-name="ecircumflex.alt" horiz-adv-x="524" 
d="M325 700l68 -136h-70l-54 76h-2l-54 -76h-70l68 136h114zM484 260v-16l-335 -32v-4c0 -84 47 -141 119 -141s110 47 123 80l90 -30c-15 -33 -71 -131 -215 -131s-226 102 -226 262s92 260 228 260s216 -100 216 -248zM149 288l227 22v2c0 58 -32 119 -108 119
s-119 -57 -119 -143z" />
    <glyph glyph-name="edieresis.alt" horiz-adv-x="524" 
d="M388 700v-136h-82v136h82zM231 700v-136h-82v136h82zM484 260v-16l-335 -32v-4c0 -84 47 -141 119 -141s110 47 123 80l90 -30c-15 -33 -71 -131 -215 -131s-226 102 -226 262s92 260 228 260s216 -100 216 -248zM149 288l227 22v2c0 58 -32 119 -108 119
s-119 -57 -119 -143z" />
    <glyph glyph-name="emacron.alt" horiz-adv-x="524" 
d="M420 666v-68h-304v68h304zM484 260v-16l-335 -32v-4c0 -84 47 -141 119 -141s110 47 123 80l90 -30c-15 -33 -71 -131 -215 -131s-226 102 -226 262s92 260 228 260s216 -100 216 -248zM149 288l227 22v2c0 58 -32 119 -108 119s-119 -57 -119 -143z" />
    <glyph glyph-name="ebreve.alt" horiz-adv-x="524" 
d="M352 698l62 -20c-18 -72 -66 -110 -146 -110s-128 38 -146 110l62 20c9 -36 36 -66 84 -66s75 30 84 66zM484 260v-16l-335 -32v-4c0 -84 47 -141 119 -141s110 47 123 80l90 -30c-15 -33 -71 -131 -215 -131s-226 102 -226 262s92 260 228 260s216 -100 216 -248z
M149 288l227 22v2c0 58 -32 119 -108 119s-119 -57 -119 -143z" />
    <glyph glyph-name="edotaccent.alt" horiz-adv-x="524" 
d="M311 693v-122h-86v122h86zM484 260v-16l-335 -32v-4c0 -84 47 -141 119 -141s110 47 123 80l90 -30c-15 -33 -71 -131 -215 -131s-226 102 -226 262s92 260 228 260s216 -100 216 -248zM149 288l227 22v2c0 58 -32 119 -108 119s-119 -57 -119 -143z" />
    <glyph glyph-name="eogonek.alt" horiz-adv-x="524" 
d="M484 260v-16l-335 -32v-3c0 -85 47 -142 119 -142s110 47 123 80l90 -30c-11 -25 -31 -51 -47 -67s-36 -30 -44 -36s-22 -20 -32 -32s-28 -36 -28 -70s20 -52 48 -52s42 14 42 14h2l20 -58s-28 -22 -86 -22s-108 40 -108 106c0 58 48 86 48 86v2s-14 -2 -30 -2
c-144 0 -226 102 -226 262s92 260 228 260s216 -100 216 -248zM149 288l227 22v2c0 58 -32 119 -108 119s-119 -57 -119 -143z" />
    <glyph glyph-name="ecaron.alt" horiz-adv-x="524" 
d="M323 700h70l-68 -136h-114l-68 136h70l54 -76h2zM484 260v-16l-335 -32v-4c0 -84 47 -141 119 -141s110 47 123 80l90 -30c-15 -33 -71 -131 -215 -131s-226 102 -226 262s92 260 228 260s216 -100 216 -248zM149 288l227 22v2c0 58 -32 119 -108 119s-119 -57 -119 -143
z" />
    <glyph glyph-name="f.alt" horiz-adv-x="346" 
d="M353 690l-20 -73h-2c-19 11 -39 16 -57 16s-30 -3 -40 -13s-13 -26 -13 -48v-78h116v-77h-116v-517h-107v517h-88v77h88v86c0 46 10 76 32 98s52 36 104 36s92 -18 103 -24z" />
    <glyph glyph-name="fi.alt" horiz-adv-x="617" 
d="M535 700v-118h-107v118h107zM535 494v-494h-107v494h107zM353 690l-20 -73h-2c-19 11 -39 16 -57 16s-30 -3 -40 -13s-13 -26 -13 -48v-78h116v-77h-116v-517h-107v517h-88v77h88v86c0 46 10 76 32 98s52 36 104 36s92 -18 103 -24z" />
    <glyph glyph-name="fl.alt" horiz-adv-x="630" 
d="M353 690l-20 -73h-2c-19 11 -39 16 -57 16s-30 -3 -40 -13s-13 -26 -13 -48v-78h116v-77h-116v-517h-107v517h-88v77h88v86c0 46 10 76 32 98s52 36 104 36s92 -18 103 -24zM646 3c0 0 -36 -17 -98 -17s-118 32 -118 126v588h107v-576c0 -44 15 -56 41 -56s50 9 50 9h2z
" />
    <glyph glyph-name="f_f.alt" horiz-adv-x="675" 
d="M353 690l-20 -73h-2c-19 11 -39 16 -57 16s-30 -3 -40 -13s-13 -26 -13 -48v-78h116v-77h-116v-517h-107v517h-88v77h88v86c0 46 10 76 32 98s52 36 104 36s92 -18 103 -24zM682 690l-20 -73h-2c-19 11 -39 16 -57 16s-30 -3 -40 -13s-13 -26 -13 -48v-78h116v-77h-116
v-517h-107v517h-88v77h88v86c0 46 10 76 32 98s52 36 104 36s92 -18 103 -24z" />
    <glyph glyph-name="f_f_i.alt" horiz-adv-x="946" 
d="M864 700v-118h-107v118h107zM864 494v-494h-107v494h107zM353 690l-20 -73h-2c-19 11 -39 16 -57 16s-30 -3 -40 -13s-13 -26 -13 -48v-78h116v-77h-116v-517h-107v517h-88v77h88v86c0 46 10 76 32 98s52 36 104 36s92 -18 103 -24zM682 690l-20 -73h-2
c-19 11 -39 16 -57 16s-30 -3 -40 -13s-13 -26 -13 -48v-78h116v-77h-116v-517h-107v517h-88v77h88v86c0 46 10 76 32 98s52 36 104 36s92 -18 103 -24z" />
    <glyph glyph-name="f_f_l.alt" horiz-adv-x="959" 
d="M353 690l-20 -73h-2c-19 11 -39 16 -57 16s-30 -3 -40 -13s-13 -26 -13 -48v-78h116v-77h-116v-517h-107v517h-88v77h88v86c0 46 10 76 32 98s52 36 104 36s92 -18 103 -24zM682 690l-20 -73h-2c-19 11 -39 16 -57 16s-30 -3 -40 -13s-13 -26 -13 -48v-78h116v-77h-116
v-517h-107v517h-88v77h88v86c0 46 10 76 32 98s52 36 104 36s92 -18 103 -24zM975 3c0 0 -36 -17 -98 -17s-118 32 -118 126v588h107v-576c0 -44 15 -56 41 -56s50 9 50 9h2z" />
    <glyph glyph-name="f_j.dlig.alt" horiz-adv-x="615" 
d="M535 700v-118h-107v118h107zM353 690l-20 -73h-2c-19 11 -39 16 -57 16s-30 -3 -40 -13s-13 -26 -13 -48v-78h116v-77h-116v-517h-107v517h-88v77h88v86c0 46 10 76 32 98s52 36 104 36s92 -18 103 -24zM535 494v-542c0 -42 -9 -78 -33 -104s-56 -37 -98 -37
s-78 15 -86 19l18 66h2c10 -4 26 -8 40 -8s26 3 36 14s14 26 14 46v546h107z" />
    <glyph glyph-name="l.alt" horiz-adv-x="284" 
d="M300 3c0 0 -36 -17 -98 -17s-118 32 -118 126v588h107v-576c0 -44 15 -56 41 -56s50 9 50 9h2z" />
    <glyph glyph-name="lslash.alt" horiz-adv-x="284" 
d="M300 3c0 0 -36 -17 -98 -17s-118 32 -118 126v137l-60 -46v93l60 46v358h107v-276l67 53v-93l-67 -53v-207c0 -44 15 -56 41 -56s50 9 50 9h2z" />
    <glyph glyph-name="lacute.alt" horiz-adv-x="284" 
d="M152 906h110l-98 -136h-78zM300 3c0 0 -36 -17 -98 -17s-118 32 -118 126v588h107v-576c0 -44 15 -56 41 -56s50 9 50 9h2z" />
    <glyph glyph-name="lcaron.alt" horiz-adv-x="348" 
d="M306 688h106l-68 -206h-70zM300 3c0 0 -36 -17 -98 -17s-118 32 -118 126v588h107v-576c0 -44 15 -56 41 -56s50 9 50 9h2z" />
    <glyph glyph-name="ldot.alt" horiz-adv-x="412" 
d="M383 423v-122h-86v122h86zM300 3c0 0 -36 -17 -98 -17s-118 32 -118 126v588h107v-576c0 -44 15 -56 41 -56s50 9 50 9h2z" />
    <glyph glyph-name="lcommaaccent.alt" horiz-adv-x="284" 
d="M224 -54v-113c0 -70 -31 -114 -76 -137l-32 39c26 13 47 46 47 82v10h-35v119h96zM300 3c0 0 -36 -17 -98 -17s-118 32 -118 126v588h107v-576c0 -44 15 -56 41 -56s50 9 50 9h2z" />
    <glyph glyph-name="oe.alt" horiz-adv-x="877" 
d="M839 260v-16l-335 -32v-3c0 -85 47 -142 119 -142s110 47 123 80l90 -30c-15 -33 -71 -131 -215 -131c-125 0 -170 78 -170 78h-2c-3 -7 -56 -78 -175 -78c-150 0 -236 112 -236 261s86 261 236 261c126 0 177 -78 177 -78h2c4 8 56 78 170 78c136 0 216 -100 216 -248z
M401 247c0 93 -33 179 -127 179s-127 -86 -127 -179s33 -179 127 -179s127 86 127 179zM504 288l227 22v2c0 58 -32 119 -108 119s-119 -57 -119 -143z" />
    <glyph glyph-name="a.sc" horiz-adv-x="514" 
d="M324 512l190 -512h-112l-41 122h-210l-41 -122h-110l190 512h134zM179 208h154l-59 176c-10 28 -17 56 -17 56h-2s-8 -28 -17 -56z" />
    <glyph glyph-name="b.sc" horiz-adv-x="548" 
d="M504 147c0 -94 -72 -147 -198 -147h-226v512h204c122 0 187 -40 187 -126s-77 -101 -108 -107v-2c56 -2 141 -36 141 -130zM361 375c0 54 -43 61 -105 61h-70v-122h70c62 0 105 7 105 61zM392 159c0 66 -48 81 -122 81h-84v-162h84c74 0 122 15 122 81z" />
    <glyph glyph-name="c.sc" horiz-adv-x="551" 
d="M420 178l98 -22c-8 -52 -70 -168 -228 -168s-250 110 -250 268s98 268 254 268s214 -114 220 -166l-96 -20c-6 36 -34 102 -124 102s-145 -72 -145 -184s53 -184 143 -184s122 66 128 106z" />
    <glyph glyph-name="d.sc" horiz-adv-x="588" 
d="M548 256c0 -168 -100 -256 -268 -256h-200v512h200c168 0 268 -88 268 -256zM439 256c0 120 -59 176 -179 176h-73v-352h73c120 0 179 56 179 176z" />
    <glyph glyph-name="e.sc" horiz-adv-x="478" 
d="M430 80l20 -80h-370v512h358l-18 -78h-233v-118h207v-78h-207v-158h243z" />
    <glyph glyph-name="f.sc" horiz-adv-x="440" 
d="M80 512h348l-18 -78h-223v-138h197v-78h-197v-218h-107v512z" />
    <glyph glyph-name="g.sc" horiz-adv-x="586" 
d="M520 298v-220s-62 -90 -226 -90s-254 110 -254 268s98 268 258 268s209 -106 212 -114l-88 -44c-12 26 -42 76 -126 76s-147 -62 -147 -188c0 -122 59 -184 149 -184c86 0 117 38 117 38v108h-127v82h232z" />
    <glyph glyph-name="h.sc" horiz-adv-x="602" 
d="M522 512v-512h-107v234h-228v-234h-107v512h107v-192h228v192h107z" />
    <glyph glyph-name="i.sc" horiz-adv-x="271" 
d="M189 512v-512h-107v512h107z" />
    <glyph glyph-name="j.sc" horiz-adv-x="426" 
d="M348 512v-384c0 -86 -52 -140 -160 -140s-160 54 -160 140c0 30 8 50 8 50l91 18s-8 -20 -8 -50c0 -40 11 -80 61 -80s61 40 61 80v366h107z" />
    <glyph glyph-name="k.sc" horiz-adv-x="540" 
d="M324 312l206 -312h-122l-152 242l-69 -72v-170h-107v512h107v-224h2l205 224h122z" />
    <glyph glyph-name="l.sc" horiz-adv-x="426" 
d="M400 80l20 -80h-340v512h107v-432h213z" />
    <glyph glyph-name="m.sc" horiz-adv-x="742" 
d="M660 512v-512h-106v374c0 36 1 74 1 74h-2s-9 -37 -20 -74l-108 -374h-115l-108 374c-11 36 -20 74 -20 74h-2s1 -38 1 -74v-374h-99v512h174l94 -336c10 -34 20 -80 20 -80h2s10 46 20 80l94 336h174z" />
    <glyph glyph-name="n.sc" horiz-adv-x="602" 
d="M522 512v-512h-118l-192 314c-23 39 -40 76 -40 76h-2s2 -38 2 -76v-314h-92v512h128l182 -300c23 -38 40 -76 40 -76h2s-2 38 -2 76v300h92z" />
    <glyph glyph-name="o.sc" horiz-adv-x="594" 
d="M554 256c0 -158 -99 -268 -257 -268s-257 110 -257 268s99 268 257 268s257 -110 257 -268zM445 256c0 102 -46 186 -148 186s-148 -84 -148 -186s46 -186 148 -186s148 84 148 186z" />
    <glyph glyph-name="p.sc" horiz-adv-x="524" 
d="M488 362c0 -110 -86 -150 -196 -150h-105v-212h-107v512h212c110 0 196 -40 196 -150zM376 362c0 62 -42 74 -104 74h-86v-148h86c62 0 104 12 104 74z" />
    <glyph glyph-name="q.sc" horiz-adv-x="594" 
d="M554 256c0 -156 -96 -217 -96 -217c16 -27 50 -65 74 -77l-72 -48c-28 14 -60 50 -78 86c0 0 -36 -12 -85 -12c-158 0 -257 110 -257 268s99 268 257 268s257 -110 257 -268zM445 256c0 102 -46 186 -148 186s-148 -84 -148 -186s46 -186 148 -186c24 0 37 4 37 4
c-6 12 -40 50 -64 62l72 48c28 -14 52 -46 64 -64c0 0 39 40 39 136z" />
    <glyph glyph-name="r.sc" horiz-adv-x="554" 
d="M375 233l155 -233h-122l-140 224h-81v-224h-107v512h216c124 0 197 -50 197 -144s-75 -126 -118 -135zM381 368c0 54 -39 68 -99 68h-96v-136h96c60 0 99 14 99 68z" />
    <glyph glyph-name="s.sc" horiz-adv-x="496" 
d="M454 144c0 -92 -78 -157 -198 -157s-192 67 -222 137l94 40c28 -66 75 -95 129 -95s91 27 91 69s-36 64 -80 76l-66 18c-66 18 -150 53 -150 148s86 146 186 146s176 -60 196 -112l-78 -46c-20 52 -76 77 -120 77s-80 -19 -80 -58c0 -40 44 -53 80 -63l66 -18
c80 -22 152 -70 152 -162z" />
    <glyph glyph-name="t.sc" horiz-adv-x="441" 
d="M2 512h446l-18 -78h-156v-434h-107v434h-165v78z" />
    <glyph glyph-name="u.sc" horiz-adv-x="596" 
d="M518 512v-322c0 -134 -78 -202 -220 -202s-220 68 -220 202v322h107v-312c0 -80 33 -124 113 -124s113 44 113 124v312h107z" />
    <glyph glyph-name="v.sc" horiz-adv-x="510" 
d="M396 512h108l-184 -512h-130l-184 512h112l110 -320c13 -38 28 -94 28 -94h2s15 56 28 94z" />
    <glyph glyph-name="w.sc" horiz-adv-x="756" 
d="M636 512h104l-142 -512h-120l-82 328c-9 36 -17 82 -17 82h-2s-8 -46 -17 -82l-82 -328h-120l-142 512h110l76 -304c9 -36 21 -98 21 -98h2s12 62 21 98l76 304h118l76 -304c9 -36 21 -98 21 -98h2s12 62 21 98z" />
    <glyph glyph-name="x.sc" horiz-adv-x="516" 
d="M330 268l176 -268h-126l-82 138c-22 36 -42 74 -42 74h-2s-20 -38 -42 -74l-82 -138h-120l176 268l-166 244h122l76 -124c20 -32 42 -72 42 -72h2s22 40 42 72l76 124h116z" />
    <glyph glyph-name="y.sc" horiz-adv-x="491" 
d="M374 512h111l-186 -286v-226h-107v226l-186 286h116l88 -146c17 -28 37 -68 37 -68h2s20 40 37 68z" />
    <glyph glyph-name="z.sc" horiz-adv-x="486" 
d="M454 80v-80h-422v69l244 315c15 20 42 50 42 50v2s-40 -2 -78 -2h-196v78h398v-72l-240 -310c-15 -20 -42 -50 -42 -50v-2s40 2 78 2h216z" />
    <glyph glyph-name="fi.sc" horiz-adv-x="711" 
d="M629 512v-512h-107v512h107zM80 512h348l-18 -78h-223v-138h197v-78h-197v-218h-107v512z" />
    <glyph glyph-name="fl.sc" horiz-adv-x="866" 
d="M840 80l20 -80h-340v512h107v-432h213zM80 512h348l-18 -78h-223v-138h197v-78h-197v-218h-107v512z" />
    <glyph glyph-name="f_f.sc" horiz-adv-x="880" 
d="M520 512h348l-18 -78h-223v-138h197v-78h-197v-218h-107v512zM80 512h348l-18 -78h-223v-138h197v-78h-197v-218h-107v512z" />
    <glyph glyph-name="f_f_i.sc" horiz-adv-x="1151" 
d="M80 512h348l-18 -78h-223v-138h197v-78h-197v-218h-107v512zM1069 512v-512h-107v512h107zM520 512h348l-18 -78h-223v-138h197v-78h-197v-218h-107v512z" />
    <glyph glyph-name="f_f_l.sc" horiz-adv-x="1306" 
d="M80 512h348l-18 -78h-223v-138h197v-78h-197v-218h-107v512zM1280 80l20 -80h-340v512h107v-432h213zM520 512h348l-18 -78h-223v-138h197v-78h-197v-218h-107v512z" />
    <glyph glyph-name="f_j.dlig.sc" horiz-adv-x="838" 
d="M80 512h348l-18 -78h-223v-138h197v-78h-197v-218h-107v512zM760 512v-384c0 -86 -52 -140 -160 -140s-160 54 -160 140c0 30 8 50 8 50l91 18s-8 -20 -8 -50c0 -40 11 -80 61 -80s61 40 61 80v366h107z" />
    <glyph glyph-name="germandbls.sc" horiz-adv-x="992" 
d="M950 144c0 -92 -78 -157 -198 -157s-192 67 -222 137l94 40c28 -66 75 -95 129 -95s91 27 91 69s-36 64 -80 76l-66 18c-66 18 -150 53 -150 148s86 146 186 146s176 -60 196 -112l-78 -46c-20 52 -76 77 -120 77s-80 -19 -80 -58c0 -40 44 -53 80 -63l66 -18
c80 -22 152 -70 152 -162zM454 144c0 -92 -78 -157 -198 -157s-192 67 -222 137l94 40c28 -66 75 -95 129 -95s91 27 91 69s-36 64 -80 76l-66 18c-66 18 -150 53 -150 148s86 146 186 146s176 -60 196 -112l-78 -46c-20 52 -76 77 -120 77s-80 -19 -80 -58
c0 -40 44 -53 80 -63l66 -18c80 -22 152 -70 152 -162z" />
    <glyph glyph-name="agrave.sc" horiz-adv-x="514" 
d="M236 702l68 -136h-80l-98 136h110zM324 512l190 -512h-112l-41 122h-210l-41 -122h-110l190 512h134zM179 208h154l-59 176c-10 28 -17 56 -17 56h-2s-8 -28 -17 -56z" />
    <glyph glyph-name="aacute.sc" horiz-adv-x="514" 
d="M278 702h110l-98 -136h-80zM324 512l190 -512h-112l-41 122h-210l-41 -122h-110l190 512h134zM179 208h154l-59 176c-10 28 -17 56 -17 56h-2s-8 -28 -17 -56z" />
    <glyph glyph-name="acircumflex.sc" horiz-adv-x="514" 
d="M314 702l68 -136h-68l-56 76h-2l-56 -76h-68l68 136h114zM324 512l190 -512h-112l-41 122h-210l-41 -122h-110l190 512h134zM179 208h154l-59 176c-10 28 -17 56 -17 56h-2s-8 -28 -17 -56z" />
    <glyph glyph-name="atilde.sc" horiz-adv-x="514" 
d="M324 512l190 -512h-112l-41 122h-210l-41 -122h-110l190 512h134zM179 208h154l-59 176c-10 28 -17 56 -17 56h-2s-8 -28 -17 -56zM358 690l54 -14l-2 -18c-6 -56 -40 -90 -92 -90s-76 31 -79 34l-2 2c-2 2 -19 24 -39 24s-34 -12 -40 -40l-2 -10l-54 14l2 18
c6 56 40 90 92 90s76 -31 79 -34l2 -2c2 -2 19 -24 39 -24s34 12 40 40z" />
    <glyph glyph-name="adieresis.sc" horiz-adv-x="514" 
d="M377 702v-136h-82v136h82zM220 702v-136h-82v136h82zM324 512l190 -512h-112l-41 122h-210l-41 -122h-110l190 512h134zM179 208h154l-59 176c-10 28 -17 56 -17 56h-2s-8 -28 -17 -56z" />
    <glyph glyph-name="aring.sc" horiz-adv-x="514" 
d="M324 512l190 -512h-112l-41 122h-210l-41 -122h-110l190 512h134zM179 208h154l-59 176c-10 28 -17 56 -17 56h-2s-8 -28 -17 -56zM368 634c0 -60 -51 -88 -111 -88s-111 28 -111 88s51 88 111 88s111 -28 111 -88zM304 634c0 28 -19 45 -47 45s-47 -17 -47 -45
s19 -45 47 -45s47 17 47 45z" />
    <glyph glyph-name="amacron.sc" horiz-adv-x="514" 
d="M404 668v-68h-294v68h294zM324 512l190 -512h-112l-41 122h-210l-41 -122h-110l190 512h134zM179 208h154l-59 176c-10 28 -17 56 -17 56h-2s-8 -28 -17 -56z" />
    <glyph glyph-name="abreve.sc" horiz-adv-x="514" 
d="M341 700l62 -20c-18 -72 -66 -110 -146 -110s-128 38 -146 110l62 20c9 -36 36 -66 84 -66s75 30 84 66zM324 512l190 -512h-112l-41 122h-210l-41 -122h-110l190 512h134zM179 208h154l-59 176c-10 28 -17 56 -17 56h-2s-8 -28 -17 -56z" />
    <glyph glyph-name="aogonek.sc" horiz-adv-x="514" 
d="M324 512l190 -512c-20 0 -60 -6 -90 -18s-54 -36 -54 -70s20 -52 48 -52s42 14 42 14h2l20 -58s-28 -22 -86 -22s-108 40 -108 106s48 114 103 132l-30 90h-210l-41 -122h-110l190 512h134zM179 208h154l-59 176c-10 28 -17 56 -17 56h-2s-8 -28 -17 -56z" />
    <glyph glyph-name="ae.sc" horiz-adv-x="756" 
d="M710 80l20 -80h-358v120h-207l-75 -120h-116l334 512h410l-18 -78h-221v-118h195v-78h-195v-158h231zM219 206h153v190c0 32 2 54 2 54h-2s-14 -22 -34 -54z" />
    <glyph glyph-name="ccedilla.sc" horiz-adv-x="551" 
d="M420 178l98 -22c-8 -52 -64 -151 -193 -166l-48 -132h-110l76 133c-113 17 -203 107 -203 265s98 268 254 268s214 -114 220 -166l-96 -20c-6 36 -34 102 -124 102s-145 -72 -145 -184s53 -184 143 -184s122 66 128 106z" />
    <glyph glyph-name="cacute.sc" horiz-adv-x="551" 
d="M306 702h110l-98 -136h-80zM420 178l98 -22c-8 -52 -70 -168 -228 -168s-250 110 -250 268s98 268 254 268s214 -114 220 -166l-96 -20c-6 36 -34 102 -124 102s-145 -72 -145 -184s53 -184 143 -184s122 66 128 106z" />
    <glyph glyph-name="ccircumflex.sc" horiz-adv-x="551" 
d="M349 702l68 -136h-70l-54 76h-2l-54 -76h-70l68 136h114zM420 178l98 -22c-8 -52 -70 -168 -228 -168s-250 110 -250 268s98 268 254 268s214 -114 220 -166l-96 -20c-6 36 -34 102 -124 102s-145 -72 -145 -184s53 -184 143 -184s122 66 128 106z" />
    <glyph glyph-name="cdotaccent.sc" horiz-adv-x="551" 
d="M335 695v-122h-86v122h86zM420 178l98 -22c-8 -52 -70 -168 -228 -168s-250 110 -250 268s98 268 254 268s214 -114 220 -166l-96 -20c-6 36 -34 102 -124 102s-145 -72 -145 -184s53 -184 143 -184s122 66 128 106z" />
    <glyph glyph-name="ccaron.sc" horiz-adv-x="551" 
d="M417 702l-68 -136h-114l-68 136h70l54 -76h2l54 76h70zM420 178l98 -22c-8 -52 -70 -168 -228 -168s-250 110 -250 268s98 268 254 268s214 -114 220 -166l-96 -20c-6 36 -34 102 -124 102s-145 -72 -145 -184s53 -184 143 -184s122 66 128 106z" />
    <glyph glyph-name="dcaron.sc" horiz-adv-x="588" 
d="M336 702h70l-68 -136h-114l-68 136h70l54 -76h2zM548 256c0 -168 -100 -256 -268 -256h-200v512h200c168 0 268 -88 268 -256zM439 256c0 120 -59 176 -179 176h-73v-352h73c120 0 179 56 179 176z" />
    <glyph glyph-name="dcroat.sc" horiz-adv-x="588" 
d="M548 256c0 -168 -100 -256 -268 -256h-200v238h-54v78h54v196h200c168 0 268 -88 268 -256zM439 256c0 120 -59 176 -179 176h-73v-116h83v-78h-83v-158h73c120 0 179 56 179 176z" />
    <glyph glyph-name="eth.sc" horiz-adv-x="588" 
d="M548 256c0 -168 -100 -256 -268 -256h-200v238h-54v78h54v196h200c168 0 268 -88 268 -256zM439 256c0 120 -59 176 -179 176h-73v-116h83v-78h-83v-158h73c120 0 179 56 179 176z" />
    <glyph glyph-name="egrave.sc" horiz-adv-x="478" 
d="M250 702l68 -136h-80l-98 136h110zM430 80l20 -80h-370v512h358l-18 -78h-233v-118h207v-78h-207v-158h243z" />
    <glyph glyph-name="eacute.sc" horiz-adv-x="478" 
d="M276 702h110l-98 -136h-80zM430 80l20 -80h-370v512h358l-18 -78h-233v-118h207v-78h-207v-158h243z" />
    <glyph glyph-name="ecircumflex.sc" horiz-adv-x="478" 
d="M316 702l68 -136h-70l-54 76h-2l-54 -76h-70l68 136h114zM430 80l20 -80h-370v512h358l-18 -78h-233v-118h207v-78h-207v-158h243z" />
    <glyph glyph-name="edieresis.sc" horiz-adv-x="478" 
d="M382 702v-136h-82v136h82zM225 702v-136h-82v136h82zM430 80l20 -80h-370v512h358l-18 -78h-233v-118h207v-78h-207v-158h243z" />
    <glyph glyph-name="emacron.sc" horiz-adv-x="478" 
d="M402 668v-68h-290v68h290zM430 80l20 -80h-370v512h358l-18 -78h-233v-118h207v-78h-207v-158h243z" />
    <glyph glyph-name="ebreve.sc" horiz-adv-x="478" 
d="M341 700l62 -20c-18 -72 -66 -110 -146 -110s-128 38 -146 110l62 20c9 -36 36 -66 84 -66s75 30 84 66zM430 80l20 -80h-370v512h358l-18 -78h-233v-118h207v-78h-207v-158h243z" />
    <glyph glyph-name="edotaccent.sc" horiz-adv-x="478" 
d="M303 695v-122h-86v122h86zM430 80l20 -80h-370v512h358l-18 -78h-233v-118h207v-78h-207v-158h243z" />
    <glyph glyph-name="eogonek.sc" horiz-adv-x="478" 
d="M430 80l20 -80c-15 0 -55 -4 -87 -18s-54 -36 -54 -70s20 -52 48 -52s42 14 42 14h2l20 -58s-28 -22 -86 -22s-108 40 -108 106s63 98 63 98v2h-210v512h358l-18 -78h-233v-118h207v-78h-207v-158h243z" />
    <glyph glyph-name="ecaron.sc" horiz-adv-x="478" 
d="M315 702h70l-68 -136h-114l-68 136h70l54 -76h2zM430 80l20 -80h-370v512h358l-18 -78h-233v-118h207v-78h-207v-158h243z" />
    <glyph glyph-name="gcircumflex.sc" horiz-adv-x="586" 
d="M351 702l68 -136h-70l-54 76h-2l-54 -76h-70l68 136h114zM520 298v-220s-62 -90 -226 -90s-254 110 -254 268s98 268 258 268s209 -106 212 -114l-88 -44c-12 26 -42 76 -126 76s-147 -62 -147 -188c0 -122 59 -184 149 -184c86 0 117 38 117 38v108h-127v82h232z" />
    <glyph glyph-name="gbreve.sc" horiz-adv-x="586" 
d="M380 700l62 -20c-18 -72 -66 -110 -146 -110s-128 38 -146 110l62 20c9 -36 36 -66 84 -66s75 30 84 66zM520 298v-220s-62 -90 -226 -90s-254 110 -254 268s98 268 258 268s209 -106 212 -114l-88 -44c-12 26 -42 76 -126 76s-147 -62 -147 -188
c0 -122 59 -184 149 -184c86 0 117 38 117 38v108h-127v82h232z" />
    <glyph glyph-name="gdotaccent.sc" horiz-adv-x="586" 
d="M337 695v-122h-86v122h86zM520 298v-220s-62 -90 -226 -90s-254 110 -254 268s98 268 258 268s209 -106 212 -114l-88 -44c-12 26 -42 76 -126 76s-147 -62 -147 -188c0 -122 59 -184 149 -184c86 0 117 38 117 38v108h-127v82h232z" />
    <glyph glyph-name="gcommaaccent.sc" horiz-adv-x="586" 
d="M342 -54v-113c0 -70 -31 -114 -76 -137l-32 39c26 13 47 46 47 82v10h-35v119h96zM520 298v-220s-62 -90 -226 -90s-254 110 -254 268s98 268 258 268s209 -106 212 -114l-88 -44c-12 26 -42 76 -126 76s-147 -62 -147 -188c0 -122 59 -184 149 -184c86 0 117 38 117 38
v108h-127v82h232z" />
    <glyph glyph-name="hcircumflex.sc" horiz-adv-x="602" 
d="M358 702l68 -136h-70l-54 76h-2l-54 -76h-70l68 136h114zM522 512v-512h-107v234h-228v-234h-107v512h107v-192h228v192h107z" />
    <glyph glyph-name="hbar.sc" horiz-adv-x="602" 
d="M576 454v-74h-54v-380h-107v234h-228v-234h-107v380h-54v74h54v58h107v-58h228v58h107v-58h54zM187 320h228v60h-228v-60z" />
    <glyph glyph-name="igrave.sc" horiz-adv-x="271" 
d="M189 512v-512h-107v512h107zM120 702l68 -136h-80l-98 136h110z" />
    <glyph glyph-name="iacute.sc" horiz-adv-x="271" 
d="M189 512v-512h-107v512h107zM151 702h110l-98 -136h-80z" />
    <glyph glyph-name="icircumflex.sc" horiz-adv-x="271" 
d="M192 702l69 -136h-70l-55 76h-2l-54 -76h-70l68 136h114zM189 512v-512h-107v512h107z" />
    <glyph glyph-name="idieresis.sc" horiz-adv-x="271" 
d="M189 512v-512h-107v512h107zM253 702v-136h-82v136h82zM100 702v-136h-82v136h82z" />
    <glyph glyph-name="itilde.sc" horiz-adv-x="271" 
d="M189 512v-512h-107v512h107zM215 690l54 -14l-3 -28c-6 -56 -36 -80 -76 -80c-38 0 -58 21 -71 34l-5 5c-7 7 -18 21 -32 21s-21 -9 -24 -36l-2 -14l-54 14l3 28c6 56 36 80 76 80c38 0 58 -21 71 -34l5 -5c7 -7 18 -21 32 -21s21 9 24 36z" />
    <glyph glyph-name="imacron.sc" horiz-adv-x="271" 
d="M189 512v-512h-107v512h107zM251 668v-68h-231v68h231z" />
    <glyph glyph-name="iogonek.sc" horiz-adv-x="271" 
d="M166 -126l20 -58s-28 -22 -86 -22s-108 40 -108 106s36 108 90 132v480h107v-512c-17 0 -47 -6 -71 -18s-44 -36 -44 -70s20 -52 48 -52s42 14 42 14h2z" />
    <glyph glyph-name="dotlessi.sc" horiz-adv-x="271" 
d="M189 512v-512h-107v512h107z" />
    <glyph glyph-name="ibreve.sc" horiz-adv-x="271" 
d="M189 512v-512h-107v512h107zM215 700l62 -20c-18 -72 -67 -110 -141 -110s-124 38 -142 110l62 20c8 -36 36 -66 80 -66s71 30 79 66z" />
    <glyph glyph-name="ij.sc" horiz-adv-x="697" 
d="M189 512v-512h-107v512h107zM619 512v-384c0 -86 -52 -140 -160 -140s-160 54 -160 140c0 30 8 50 8 50l91 18s-8 -20 -8 -50c0 -40 11 -80 61 -80s61 40 61 80v366h107z" />
    <glyph glyph-name="jcircumflex.sc" horiz-adv-x="426" 
d="M351 702l68 -136h-70l-54 76h-2l-54 -76h-70l68 136h114zM348 512v-384c0 -86 -52 -140 -160 -140s-160 54 -160 140c0 30 8 50 8 50l91 18s-8 -20 -8 -50c0 -40 11 -80 61 -80s61 40 61 80v366h107z" />
    <glyph glyph-name="kcommaaccent.sc" horiz-adv-x="540" 
d="M341 -54v-113c0 -70 -31 -114 -76 -137l-32 39c26 13 47 46 47 82v10h-35v119h96zM324 312l206 -312h-122l-152 242l-69 -72v-170h-107v512h107v-224h2l205 224h122z" />
    <glyph glyph-name="kgreenlandic.sc" horiz-adv-x="540" 
d="M324 312l206 -312h-122l-152 242l-69 -72v-170h-107v512h107v-224h2l205 224h122z" />
    <glyph glyph-name="lacute.sc" horiz-adv-x="426" 
d="M400 80l20 -80h-340v512h107v-432h213zM152 702h110l-98 -136h-80z" />
    <glyph glyph-name="lcommaaccent.sc" horiz-adv-x="426" 
d="M400 80l20 -80h-340v512h107v-432h213zM303 -54v-113c0 -70 -31 -114 -76 -137l-32 39c26 13 47 46 47 82v10h-35v119h96z" />
    <glyph glyph-name="lcaron.sc" horiz-adv-x="438" 
d="M400 80l20 -80h-340v512h107v-432h213zM314 512h106l-70 -206h-70z" />
    <glyph glyph-name="ldot.sc" horiz-adv-x="426" 
d="M355 361v-122h-86v122h86zM400 80l20 -80h-340v512h107v-432h213z" />
    <glyph glyph-name="lslash.sc" horiz-adv-x="426" 
d="M400 80l20 -80h-340v192l-54 -42v92l54 42v228h107v-150l100 78v-92l-100 -78v-190h213z" />
    <glyph glyph-name="ntilde.sc" horiz-adv-x="602" 
d="M522 512v-512h-118l-192 314c-23 39 -40 76 -40 76h-2s2 -38 2 -76v-314h-92v512h128l182 -300c23 -38 40 -76 40 -76h2s-2 38 -2 76v300h92zM402 690l54 -14l-2 -18c-6 -56 -40 -90 -92 -90s-76 31 -79 34l-2 2c-2 2 -19 24 -39 24s-34 -12 -40 -40l-2 -10l-54 14l2 18
c6 56 40 90 92 90s76 -31 79 -34l2 -2c2 -2 19 -24 39 -24s34 12 40 40z" />
    <glyph glyph-name="nacute.sc" horiz-adv-x="602" 
d="M326 702h110l-98 -136h-80zM522 512v-512h-118l-192 314c-23 39 -40 76 -40 76h-2s2 -38 2 -76v-314h-92v512h128l182 -300c23 -38 40 -76 40 -76h2s-2 38 -2 76v300h92z" />
    <glyph glyph-name="ncommaaccent.sc" horiz-adv-x="602" 
d="M349 -54v-113c0 -70 -31 -114 -76 -137l-32 39c26 13 47 46 47 82v10h-35v119h96zM522 512v-512h-118l-192 314c-23 39 -40 76 -40 76h-2s2 -38 2 -76v-314h-92v512h128l182 -300c23 -38 40 -76 40 -76h2s-2 38 -2 76v300h92z" />
    <glyph glyph-name="ncaron.sc" horiz-adv-x="602" 
d="M356 702h70l-68 -136h-114l-68 136h70l54 -76h2zM522 512v-512h-118l-192 314c-23 39 -40 76 -40 76h-2s2 -38 2 -76v-314h-92v512h128l182 -300c23 -38 40 -76 40 -76h2s-2 38 -2 76v300h92z" />
    <glyph glyph-name="eng.sc" horiz-adv-x="602" 
d="M522 512v-560c0 -42 -9 -78 -33 -104s-56 -37 -98 -37s-78 15 -86 19l18 66h2c10 -4 26 -8 40 -8s27 4 36 14s14 24 14 46v34l-203 332c-23 38 -40 76 -40 76h-2s2 -38 2 -76v-314h-92v512h128l182 -300c23 -38 40 -76 40 -76h2s-2 38 -2 76v300h92z" />
    <glyph glyph-name="ograve.sc" horiz-adv-x="594" 
d="M278 702l68 -136h-80l-98 136h110zM554 256c0 -158 -99 -268 -257 -268s-257 110 -257 268s99 268 257 268s257 -110 257 -268zM445 256c0 102 -46 186 -148 186s-148 -84 -148 -186s46 -186 148 -186s148 84 148 186z" />
    <glyph glyph-name="oacute.sc" horiz-adv-x="594" 
d="M316 702h110l-98 -136h-80zM554 256c0 -158 -99 -268 -257 -268s-257 110 -257 268s99 268 257 268s257 -110 257 -268zM445 256c0 102 -46 186 -148 186s-148 -84 -148 -186s46 -186 148 -186s148 84 148 186z" />
    <glyph glyph-name="ocircumflex.sc" horiz-adv-x="594" 
d="M354 702l68 -136h-70l-54 76h-2l-54 -76h-70l68 136h114zM554 256c0 -158 -99 -268 -257 -268s-257 110 -257 268s99 268 257 268s257 -110 257 -268zM445 256c0 102 -46 186 -148 186s-148 -84 -148 -186s46 -186 148 -186s148 84 148 186z" />
    <glyph glyph-name="otilde.sc" horiz-adv-x="594" 
d="M554 256c0 -158 -99 -268 -257 -268s-257 110 -257 268s99 268 257 268s257 -110 257 -268zM445 256c0 102 -46 186 -148 186s-148 -84 -148 -186s46 -186 148 -186s148 84 148 186zM398 690l54 -14l-2 -18c-6 -56 -40 -90 -92 -90s-76 31 -79 34l-2 2
c-2 2 -19 24 -39 24s-34 -12 -40 -40l-2 -10l-54 14l2 18c6 56 40 90 92 90s76 -31 79 -34l2 -2c2 -2 19 -24 39 -24s34 12 40 40z" />
    <glyph glyph-name="odieresis.sc" horiz-adv-x="594" 
d="M417 702v-136h-82v136h82zM260 702v-136h-82v136h82zM554 256c0 -158 -99 -268 -257 -268s-257 110 -257 268s99 268 257 268s257 -110 257 -268zM445 256c0 102 -46 186 -148 186s-148 -84 -148 -186s46 -186 148 -186s148 84 148 186z" />
    <glyph glyph-name="omacron.sc" horiz-adv-x="594" 
d="M454 668v-68h-314v68h314zM554 256c0 -158 -99 -268 -257 -268s-257 110 -257 268s99 268 257 268s257 -110 257 -268zM445 256c0 102 -46 186 -148 186s-148 -84 -148 -186s46 -186 148 -186s148 84 148 186z" />
    <glyph glyph-name="obreve.sc" horiz-adv-x="594" 
d="M381 700l62 -20c-18 -72 -66 -110 -146 -110s-128 38 -146 110l62 20c9 -36 36 -66 84 -66s75 30 84 66zM554 256c0 -158 -99 -268 -257 -268s-257 110 -257 268s99 268 257 268s257 -110 257 -268zM445 256c0 102 -46 186 -148 186s-148 -84 -148 -186s46 -186 148 -186
s148 84 148 186z" />
    <glyph glyph-name="ohungarumlaut.sc" horiz-adv-x="594" 
d="M410 702h110l-98 -136h-80zM236 702h110l-98 -136h-80zM554 256c0 -158 -99 -268 -257 -268s-257 110 -257 268s99 268 257 268s257 -110 257 -268zM445 256c0 102 -46 186 -148 186s-148 -84 -148 -186s46 -186 148 -186s148 84 148 186z" />
    <glyph glyph-name="oslash.sc" horiz-adv-x="598" 
d="M556 256c0 -158 -99 -268 -257 -268c-81 0 -132 28 -160 49l-49 -51l-48 48l49 52c-29 41 -49 98 -49 170c0 158 99 268 257 268c81 0 132 -28 160 -49l49 51l48 -48l-49 -52c29 -41 49 -98 49 -170zM166 162l228 246c-18 16 -47 34 -95 34c-102 0 -148 -84 -148 -186
c0 -42 9 -80 15 -94zM447 256c0 42 -9 80 -15 94l-228 -246c18 -16 47 -34 95 -34c102 0 148 84 148 186z" />
    <glyph glyph-name="oe.sc" horiz-adv-x="788" 
d="M742 80l20 -80h-360v7s-37 -19 -105 -19c-158 0 -257 110 -257 268s99 268 257 268c68 0 105 -19 105 -19v7h348l-18 -78h-223v-118h197v-78h-197v-158h233zM402 106v300c-8 8 -41 36 -105 36c-102 0 -148 -84 -148 -186s46 -186 148 -186c68 0 99 30 105 36z" />
    <glyph glyph-name="thorn.sc" horiz-adv-x="524" 
d="M488 268c0 -110 -86 -148 -196 -148h-105v-120h-107v512h107v-96h105c110 0 196 -38 196 -148zM376 268c0 62 -42 72 -104 72h-86v-144h86c62 0 104 10 104 72z" />
    <glyph glyph-name="racute.sc" horiz-adv-x="554" 
d="M278 702h110l-98 -136h-80zM375 233l155 -233h-122l-140 224h-81v-224h-107v512h216c124 0 197 -50 197 -144s-75 -126 -118 -135zM381 368c0 54 -39 68 -99 68h-96v-136h96c60 0 99 14 99 68z" />
    <glyph glyph-name="rcommaaccent.sc" horiz-adv-x="554" 
d="M340 -54v-113c0 -70 -31 -114 -76 -137l-32 39c26 13 47 46 47 82v10h-35v119h96zM375 233l155 -233h-122l-140 224h-81v-224h-107v512h216c124 0 197 -50 197 -144s-75 -126 -118 -135zM381 368c0 54 -39 68 -99 68h-96v-136h96c60 0 99 14 99 68z" />
    <glyph glyph-name="rcaron.sc" horiz-adv-x="554" 
d="M324 702h70l-68 -136h-114l-68 136h70l54 -76h2zM375 233l155 -233h-122l-140 224h-81v-224h-107v512h216c124 0 197 -50 197 -144s-75 -126 -118 -135zM381 368c0 54 -39 68 -99 68h-96v-136h96c60 0 99 14 99 68z" />
    <glyph glyph-name="sacute.sc" horiz-adv-x="496" 
d="M262 702h110l-98 -136h-80zM454 144c0 -92 -78 -157 -198 -157s-192 67 -222 137l94 40c28 -66 75 -95 129 -95s91 27 91 69s-36 64 -80 76l-66 18c-66 18 -150 53 -150 148s86 146 186 146s176 -60 196 -112l-78 -46c-20 52 -76 77 -120 77s-80 -19 -80 -58
c0 -40 44 -53 80 -63l66 -18c80 -22 152 -70 152 -162z" />
    <glyph glyph-name="scircumflex.sc" horiz-adv-x="496" 
d="M298 702l68 -136h-70l-54 76h-2l-54 -76h-70l68 136h114zM454 144c0 -92 -78 -157 -198 -157s-192 67 -222 137l94 40c28 -66 75 -95 129 -95s91 27 91 69s-36 64 -80 76l-66 18c-66 18 -150 53 -150 148s86 146 186 146s176 -60 196 -112l-78 -46c-20 52 -76 77 -120 77
s-80 -19 -80 -58c0 -40 44 -53 80 -63l66 -18c80 -22 152 -70 152 -162z" />
    <glyph glyph-name="scedilla.sc" horiz-adv-x="496" 
d="M454 144c0 -82 -62 -142 -159 -154l-47 -132h-110l75 132c-95 14 -153 72 -179 134l94 40c28 -66 75 -95 129 -95s91 27 91 69s-37 64 -81 76l-66 18c-66 18 -150 53 -150 148s88 146 188 146s174 -60 194 -112l-78 -46c-20 52 -74 77 -118 77s-82 -19 -82 -58
c0 -40 44 -53 80 -63l66 -18c80 -22 153 -70 153 -162z" />
    <glyph glyph-name="scommaaccent.sc" horiz-adv-x="496" 
d="M303 -54v-113c0 -70 -31 -114 -76 -137l-32 39c26 13 47 46 47 82v10h-35v119h96zM454 144c0 -92 -78 -157 -198 -157s-192 67 -222 137l94 40c28 -66 75 -95 129 -95s91 27 91 69s-36 64 -80 76l-66 18c-66 18 -150 53 -150 148s86 146 186 146s176 -60 196 -112
l-78 -46c-20 52 -76 77 -120 77s-80 -19 -80 -58c0 -40 44 -53 80 -63l66 -18c80 -22 152 -70 152 -162z" />
    <glyph glyph-name="scaron.sc" horiz-adv-x="496" 
d="M366 702l-68 -136h-114l-68 136h70l54 -76h2l54 76h70zM454 144c0 -92 -78 -157 -198 -157s-192 67 -222 137l94 40c28 -66 75 -95 129 -95s91 27 91 69s-36 64 -80 76l-66 18c-66 18 -150 53 -150 148s86 146 186 146s176 -60 196 -112l-78 -46c-20 52 -76 77 -120 77
s-80 -19 -80 -58c0 -40 44 -53 80 -63l66 -18c80 -22 152 -70 152 -162z" />
    <glyph glyph-name="tcaron.sc" horiz-adv-x="441" 
d="M276 702h70l-68 -136h-114l-68 136h70l54 -76h2zM2 512h446l-18 -78h-156v-434h-107v434h-165v78z" />
    <glyph glyph-name="tbar.sc" horiz-adv-x="445" 
d="M4 512h446l-18 -78h-156v-128h164l-18 -78h-146v-228h-107v228h-155v78h155v128h-165v78z" />
    <glyph glyph-name="ugrave.sc" horiz-adv-x="596" 
d="M273 702l68 -136h-80l-98 136h110zM518 512v-322c0 -134 -78 -202 -220 -202s-220 68 -220 202v322h107v-312c0 -80 33 -124 113 -124s113 44 113 124v312h107z" />
    <glyph glyph-name="uacute.sc" horiz-adv-x="596" 
d="M323 702h110l-98 -136h-80zM518 512v-322c0 -134 -78 -202 -220 -202s-220 68 -220 202v322h107v-312c0 -80 33 -124 113 -124s113 44 113 124v312h107z" />
    <glyph glyph-name="ucircumflex.sc" horiz-adv-x="596" 
d="M355 702l68 -136h-70l-54 76h-2l-54 -76h-70l68 136h114zM518 512v-322c0 -134 -78 -202 -220 -202s-220 68 -220 202v322h107v-312c0 -80 33 -124 113 -124s113 44 113 124v312h107z" />
    <glyph glyph-name="udieresis.sc" horiz-adv-x="596" 
d="M418 702v-136h-82v136h82zM261 702v-136h-82v136h82zM518 512v-322c0 -134 -78 -202 -220 -202s-220 68 -220 202v322h107v-312c0 -80 33 -124 113 -124s113 44 113 124v312h107z" />
    <glyph glyph-name="utilde.sc" horiz-adv-x="596" 
d="M518 512v-322c0 -134 -78 -202 -220 -202s-220 68 -220 202v322h107v-312c0 -80 33 -124 113 -124s113 44 113 124v312h107zM399 690l54 -14l-2 -18c-6 -56 -40 -90 -92 -90s-76 31 -79 34l-2 2c-2 2 -19 24 -39 24s-34 -12 -40 -40l-2 -10l-54 14l2 18c6 56 40 90 92 90
s76 -31 79 -34l2 -2c2 -2 19 -24 39 -24s34 12 40 40z" />
    <glyph glyph-name="umacron.sc" horiz-adv-x="596" 
d="M455 668v-68h-314v68h314zM518 512v-322c0 -134 -78 -202 -220 -202s-220 68 -220 202v322h107v-312c0 -80 33 -124 113 -124s113 44 113 124v312h107z" />
    <glyph glyph-name="ubreve.sc" horiz-adv-x="596" 
d="M382 700l62 -20c-18 -72 -66 -110 -146 -110s-128 38 -146 110l62 20c9 -36 36 -66 84 -66s75 30 84 66zM518 512v-322c0 -134 -78 -202 -220 -202s-220 68 -220 202v322h107v-312c0 -80 33 -124 113 -124s113 44 113 124v312h107z" />
    <glyph glyph-name="uring.sc" horiz-adv-x="596" 
d="M518 512v-322c0 -134 -78 -202 -220 -202s-220 68 -220 202v322h107v-312c0 -80 33 -124 113 -124s113 44 113 124v312h107zM409 634c0 -60 -51 -88 -111 -88s-111 28 -111 88s51 88 111 88s111 -28 111 -88zM345 634c0 28 -19 45 -47 45s-47 -17 -47 -45s19 -45 47 -45
s47 17 47 45z" />
    <glyph glyph-name="uhungarumlaut.sc" horiz-adv-x="596" 
d="M397 702h110l-98 -136h-80zM223 702h110l-98 -136h-80zM518 512v-322c0 -134 -78 -202 -220 -202s-220 68 -220 202v322h107v-312c0 -80 33 -124 113 -124s113 44 113 124v312h107z" />
    <glyph glyph-name="uogonek.sc" horiz-adv-x="596" 
d="M518 512v-322c0 -135 -79 -170 -108 -183c-38 -31 -52 -61 -52 -95s20 -52 48 -52s42 14 42 14h2l20 -58s-28 -22 -86 -22s-108 40 -108 106c0 58 42 88 42 88v2s-10 -2 -20 -2c-142 0 -220 68 -220 202v322h107v-312c0 -80 33 -124 113 -124s113 44 113 124v312h107z
" />
    <glyph glyph-name="wcircumflex.sc" horiz-adv-x="756" 
d="M438 702l68 -136h-70l-54 76h-2l-54 -76h-70l68 136h114zM636 512h104l-142 -512h-120l-82 328c-9 36 -17 82 -17 82h-2s-8 -46 -17 -82l-82 -328h-120l-142 512h110l76 -304c9 -36 21 -98 21 -98h2s12 62 21 98l76 304h118l76 -304c9 -36 21 -98 21 -98h2s12 62 21 98z
" />
    <glyph glyph-name="wgrave.sc" horiz-adv-x="756" 
d="M360 702l68 -136h-80l-98 136h110zM636 512h104l-142 -512h-120l-82 328c-9 36 -17 82 -17 82h-2s-8 -46 -17 -82l-82 -328h-120l-142 512h110l76 -304c9 -36 21 -98 21 -98h2s12 62 21 98l76 304h118l76 -304c9 -36 21 -98 21 -98h2s12 62 21 98z" />
    <glyph glyph-name="wacute.sc" horiz-adv-x="756" 
d="M402 702h110l-98 -136h-80zM636 512h104l-142 -512h-120l-82 328c-9 36 -17 82 -17 82h-2s-8 -46 -17 -82l-82 -328h-120l-142 512h110l76 -304c9 -36 21 -98 21 -98h2s12 62 21 98l76 304h118l76 -304c9 -36 21 -98 21 -98h2s12 62 21 98z" />
    <glyph glyph-name="wdieresis.sc" horiz-adv-x="756" 
d="M500 702v-136h-82v136h82zM343 702v-136h-82v136h82zM636 512h104l-142 -512h-120l-82 328c-9 36 -17 82 -17 82h-2s-8 -46 -17 -82l-82 -328h-120l-142 512h110l76 -304c9 -36 21 -98 21 -98h2s12 62 21 98l76 304h118l76 -304c9 -36 21 -98 21 -98h2s12 62 21 98z" />
    <glyph glyph-name="yacute.sc" horiz-adv-x="491" 
d="M264 702h110l-98 -136h-80zM374 512h111l-186 -286v-226h-107v226l-186 286h116l88 -146c17 -28 37 -68 37 -68h2s20 40 37 68z" />
    <glyph glyph-name="ydieresis.sc" horiz-adv-x="491" 
d="M365 702v-136h-82v136h82zM208 702v-136h-82v136h82zM374 512h111l-186 -286v-226h-107v226l-186 286h116l88 -146c17 -28 37 -68 37 -68h2s20 40 37 68z" />
    <glyph glyph-name="ygrave.sc" horiz-adv-x="491" 
d="M227 702l68 -136h-80l-98 136h110zM374 512h111l-186 -286v-226h-107v226l-186 286h116l88 -146c17 -28 37 -68 37 -68h2s20 40 37 68z" />
    <glyph glyph-name="ycircumflex.sc" horiz-adv-x="491" 
d="M121 566l68 136h114l68 -136h-70l-54 76h-2l-54 -76h-70zM374 512h111l-186 -286v-226h-107v226l-186 286h116l88 -146c17 -28 37 -68 37 -68h2s20 40 37 68z" />
    <glyph glyph-name="zacute.sc" horiz-adv-x="486" 
d="M264 702h110l-98 -136h-80zM454 80v-80h-422v69l244 315c15 20 42 50 42 50v2s-40 -2 -78 -2h-196v78h398v-72l-240 -310c-15 -20 -42 -50 -42 -50v-2s40 2 78 2h216z" />
    <glyph glyph-name="zdotaccent.sc" horiz-adv-x="486" 
d="M286 695v-122h-86v122h86zM454 80v-80h-422v69l244 315c15 20 42 50 42 50v2s-40 -2 -78 -2h-196v78h398v-72l-240 -310c-15 -20 -42 -50 -42 -50v-2s40 2 78 2h216z" />
    <glyph glyph-name="zcaron.sc" horiz-adv-x="486" 
d="M298 702h70l-68 -136h-114l-68 136h70l54 -76h2zM454 80v-80h-422v69l244 315c15 20 42 50 42 50v2s-40 -2 -78 -2h-196v78h398v-72l-240 -310c-15 -20 -42 -50 -42 -50v-2s40 2 78 2h216z" />
    <glyph glyph-name="dollar.sc" horiz-adv-x="496" 
d="M450 182c0 -96 -80 -144 -163 -152v-76h-70v78c-71 14 -139 55 -169 135l85 32c19 -50 55 -79 85 -87v150l-18 6c-46 14 -135 46 -135 140s83 134 152 139v64h70v-66c67 -9 125 -51 150 -108l-73 -37c-18 41 -48 60 -78 68v-132l13 -4c59 -18 151 -54 151 -150zM218 356
v117c-30 -3 -60 -21 -60 -57s30 -52 60 -60zM358 174c0 38 -34 58 -60 67l-12 4v-139c44 2 72 30 72 68z" />
    <glyph glyph-name="cent.sc" horiz-adv-x="468" 
d="M426 184c-10 -48 -50 -116 -160 -125l-6 -73h-67l6 77c-71 15 -145 79 -145 195s74 190 177 196l5 68h67l-6 -70c87 -16 121 -78 128 -121l-78 -15c-5 34 -23 62 -56 70l-21 -263c54 7 69 41 76 75zM148 258c0 -78 29 -114 58 -126l21 256c-43 -6 -79 -52 -79 -130z" />
    <glyph glyph-name="sterling.sc" horiz-adv-x="536" 
d="M514 106c0 -74 -50 -120 -126 -120s-138 52 -140 54l-6 4c-26 -36 -70 -56 -114 -56c-52 0 -104 30 -104 94s52 94 104 94c44 0 74 -22 74 -22s4 12 4 34c0 30 -8 60 -19 88l-7 17h-118v70h94l-2 6c-3 8 -20 53 -20 97c0 76 56 146 176 146s162 -72 162 -128
c0 -20 -2 -28 -2 -28l-88 -18s2 8 2 28c0 46 -28 74 -74 74s-76 -28 -76 -74s20 -92 22 -98l2 -5h160v-70h-137l2 -5c9 -22 21 -58 21 -100s-18 -76 -18 -76l28 -18c8 -5 36 -26 68 -26s50 22 50 54c0 34 -12 58 -12 58l82 -16s12 -24 12 -58zM186 91c-15 15 -34 28 -56 28
s-42 -15 -42 -37s18 -37 40 -37s47 19 58 46z" />
    <glyph glyph-name="yen.sc" horiz-adv-x="537" 
d="M396 598h105l-125 -238h96v-70h-132l-18 -34v-46h150v-70h-150v-140h-107v140h-150v70h150v46l-18 34h-132v70h96l-125 238h110l102 -210c10 -20 22 -54 22 -54h2s12 34 22 54z" />
    <glyph glyph-name="florin.sc" horiz-adv-x="518" 
d="M482 596l-26 -66h-2c-20 12 -40 16 -54 16s-22 -2 -31 -8s-22 -16 -31 -54l-27 -116h124v-72h-140l-55 -240c-9 -42 -27 -81 -54 -104s-60 -30 -90 -30s-72 10 -96 28l28 66h2c6 -4 26 -14 46 -14s32 6 40 14s20 30 26 58l51 222h-106v72h122l31 134c10 46 30 80 54 98
s52 26 90 26s80 -18 98 -30z" />
    <glyph glyph-name="Euro.sc" horiz-adv-x="536" 
d="M510 150c0 -64 -48 -164 -190 -164s-200 104 -213 210h-57v70h51s-2 20 -2 40s2 40 2 40h-51v70h61c19 112 85 196 215 196s178 -90 178 -152c0 -16 -2 -26 -2 -26l-86 -12s2 10 2 26c0 42 -26 90 -92 90s-102 -48 -111 -122h157v-70h-166s-2 -19 -2 -42
c0 -17 1 -38 1 -38h167v-70h-161c7 -68 33 -133 109 -133s102 57 102 97c0 18 -2 30 -2 30l88 -10s2 -12 2 -30z" />
    <glyph glyph-name="fraction.sc" horiz-adv-x="422" 
d="M348 598h80l-354 -598h-80z" />
    <glyph glyph-name="percent.sc" horiz-adv-x="826" 
d="M550 598h80l-354 -598h-80zM348 422c0 -104 -48 -190 -152 -190s-152 86 -152 190s48 190 152 190s152 -86 152 -190zM261 422c0 94 -29 130 -65 130s-65 -36 -65 -130s29 -129 65 -129s65 35 65 129zM782 176c0 -104 -48 -190 -152 -190s-152 86 -152 190
s48 190 152 190s152 -86 152 -190zM695 176c0 94 -29 130 -65 130s-65 -36 -65 -130s29 -129 65 -129s65 35 65 129z" />
    <glyph glyph-name="perthousand.sc" horiz-adv-x="1172" 
d="M1128 176c0 -104 -48 -190 -152 -190s-152 86 -152 190s48 190 152 190s152 -86 152 -190zM1041 176c0 94 -29 130 -65 130s-65 -36 -65 -130s29 -129 65 -129s65 35 65 129zM550 598h80l-354 -598h-80zM348 422c0 -104 -48 -190 -152 -190s-152 86 -152 190
s48 190 152 190s152 -86 152 -190zM261 422c0 94 -29 130 -65 130s-65 -36 -65 -130s29 -129 65 -129s65 35 65 129zM782 176c0 -104 -48 -190 -152 -190s-152 86 -152 190s48 190 152 190s152 -86 152 -190zM695 176c0 94 -29 130 -65 130s-65 -36 -65 -130
s29 -129 65 -129s65 35 65 129z" />
    <glyph glyph-name="numbersign.sc" horiz-adv-x="590" 
d="M542 414v-72h-118l-28 -132h98v-72h-113l-29 -138h-54l29 138h-122l-29 -138h-54l29 138h-103v72h118l28 132h-98v72h113l29 138h54l-29 -138h122l29 138h54l-29 -138h103zM342 210l28 132h-122l-28 -132h122z" />
    <glyph glyph-name="ampersand.sc" horiz-adv-x="590" 
d="M550 76l24 -64s-34 -26 -100 -26s-96 28 -109 42c0 0 -43 -42 -139 -42s-188 46 -188 156s104 148 126 156l22 8l-4 6c-4 6 -28 52 -28 96c0 64 54 118 150 118s136 -58 136 -108s-32 -92 -99 -122l-27 -12s14 -25 42 -72c15 -25 35 -60 35 -60c11 16 21 36 29 54
s20 44 26 70l76 -26c-6 -26 -24 -68 -32 -84s-34 -62 -51 -77l9 -11c8 -8 20 -18 48 -18s54 16 54 16zM354 416c0 28 -20 48 -48 48s-52 -18 -52 -52s20 -64 24 -71l4 -7l22 12c34 20 50 42 50 70zM320 90c0 0 -40 62 -54 86s-48 82 -48 82l-16 -9c-24 -13 -54 -39 -54 -95
s36 -94 92 -94s80 30 80 30z" />
    <glyph glyph-name="dagger.sc" horiz-adv-x="468" 
d="M426 382v-80l-164 12l14 -180l-14 -286h-56l-14 286l14 180l-164 -12v80l164 -12l-14 180h84l-14 -180z" />
    <glyph glyph-name="daggerdbl.sc" horiz-adv-x="468" 
d="M426 98v-80l-164 12l14 -180h-84l14 180l-164 -12v80l164 -12l-14 114l14 114l-164 -12v80l164 -12l-14 180h84l-14 -180l164 12v-80l-164 12l14 -114l-14 -114z" />
    <glyph glyph-name="parenleft.sc" horiz-adv-x="316" 
d="M282 -78l-42 -38c-78 64 -180 188 -180 370s102 306 180 370l42 -38c-60 -60 -126 -174 -126 -332s66 -272 126 -332z" />
    <glyph glyph-name="parenright.sc" horiz-adv-x="316" 
d="M76 -116l-42 38c60 60 126 174 126 332s-66 272 -126 332l42 38c78 -64 180 -188 180 -370s-102 -306 -180 -370z" />
    <glyph glyph-name="bracketleft.sc" horiz-adv-x="316" 
d="M298 -26l12 -66h-230v692h230l-12 -66h-132v-560h132z" />
    <glyph glyph-name="bracketright.sc" horiz-adv-x="316" 
d="M236 600v-692h-230l12 66h132v560h-132l-12 66h230z" />
    <glyph glyph-name="braceleft.sc" horiz-adv-x="316" 
d="M240 -50l40 -4l-4 -48l-50 2c-68 3 -96 14 -114 32s-24 40 -24 62s8 54 12 66l16 52c4 12 14 42 14 58s-4 28 -14 38s-26 18 -68 18h-12v56h12c42 0 58 8 68 18s14 22 14 38s-10 46 -14 58l-16 52c-4 12 -12 44 -12 66s6 44 24 62s46 29 114 32l50 2l4 -48l-40 -4
c-18 -2 -34 -6 -44 -16s-10 -24 -10 -30s4 -28 8 -42l14 -48c4 -14 18 -56 18 -78s-6 -40 -18 -54s-34 -30 -84 -35v-2c50 -5 72 -21 84 -35s18 -32 18 -54s-14 -64 -18 -78l-14 -48c-4 -14 -8 -36 -8 -42s0 -20 10 -30s26 -14 44 -16z" />
    <glyph glyph-name="braceright.sc" horiz-adv-x="316" 
d="M36 -54l40 4c18 2 34 6 44 16s10 24 10 30s-4 28 -8 42l-14 48c-4 14 -18 56 -18 78s6 40 18 54s34 30 84 35v2c-50 5 -72 21 -84 35s-18 32 -18 54s14 64 18 78l14 48c4 14 8 36 8 42s0 20 -10 30s-26 14 -44 16l-40 4l4 48l50 -2c68 -3 96 -14 114 -32s24 -40 24 -62
s-8 -54 -12 -66l-16 -52c-4 -12 -14 -42 -14 -58s4 -28 14 -38s26 -18 68 -18h12v-56h-12c-42 0 -58 -8 -68 -18s-14 -22 -14 -38s10 -46 14 -58l16 -52c4 -12 12 -44 12 -66s-6 -44 -24 -62s-46 -29 -114 -32l-50 -2z" />
    <glyph glyph-name="guilsinglleft.sc" horiz-adv-x="272" 
d="M216 62l-74 -26c-18 60 -60 160 -108 220c48 60 90 160 108 220l74 -26c-18 -60 -50 -140 -92 -193v-2c42 -53 74 -133 92 -193z" />
    <glyph glyph-name="guilsinglright.sc" horiz-adv-x="272" 
d="M130 36l-74 26c18 60 50 140 92 193v2c-42 53 -74 133 -92 193l74 26c18 -60 60 -160 108 -220c-48 -60 -90 -160 -108 -220z" />
    <glyph glyph-name="guillemotleft.sc" horiz-adv-x="452" 
d="M216 62l-74 -26c-18 60 -60 160 -108 220c48 60 90 160 108 220l74 -26c-18 -60 -50 -140 -92 -193v-2c42 -53 74 -133 92 -193zM396 62l-74 -26c-18 60 -60 160 -108 220c48 60 90 160 108 220l74 -26c-18 -60 -50 -140 -92 -193v-2c42 -53 74 -133 92 -193z" />
    <glyph glyph-name="guillemotright.sc" horiz-adv-x="452" 
d="M310 36l-74 26c18 60 50 140 92 193v2c-42 53 -74 133 -92 193l74 26c18 -60 60 -160 108 -220c-48 -60 -90 -160 -108 -220zM130 36l-74 26c18 60 50 140 92 193v2c-42 53 -74 133 -92 193l74 26c18 -60 60 -160 108 -220c-48 -60 -90 -160 -108 -220z" />
    <glyph glyph-name="quotesingle.sc" horiz-adv-x="272" 
d="M83 512h106l-18 -236h-70z" />
    <glyph glyph-name="quotedbl.sc" horiz-adv-x="452" 
d="M264 512h106l-18 -236h-70zM82 512h106l-18 -236h-70z" />
    <glyph glyph-name="quoteleft.sc" horiz-adv-x="272" 
d="M167 527l36 -42c-30 -15 -54 -45 -54 -93v-16h42v-137h-108v146c0 71 33 117 84 142z" />
    <glyph glyph-name="quoteright.sc" horiz-adv-x="272" 
d="M189 512v-146c0 -70 -33 -117 -84 -142l-36 42c30 15 54 45 54 93v16h-42v137h108z" />
    <glyph glyph-name="quotedblleft.sc" horiz-adv-x="449" 
d="M343 527l37 -42c-30 -15 -54 -45 -54 -93v-16h41v-137h-108v146c0 71 33 117 84 142zM167 527l36 -42c-30 -15 -54 -45 -54 -93v-16h42v-137h-108v146c0 71 33 117 84 142z" />
    <glyph glyph-name="quotedblright.sc" horiz-adv-x="449" 
d="M366 512v-146c0 -70 -33 -117 -84 -142l-37 42c30 15 54 45 54 93v16h-41v137h108zM189 512v-146c0 -70 -33 -117 -84 -142l-36 42c30 15 54 45 54 93v16h-42v137h108z" />
    <glyph glyph-name="exclam.sc" horiz-adv-x="296" 
d="M90 512h116l-22 -326h-72zM202 130v-130h-108v130h108z" />
    <glyph glyph-name="exclamdown.sc" horiz-adv-x="296" 
d="M202 512v-130h-108v130h108zM184 326l22 -326h-116l22 326h72z" />
    <glyph glyph-name="question.sc" horiz-adv-x="456" 
d="M400 397c0 -67 -52 -105 -76 -127l-26 -24c-13 -12 -23 -23 -30 -30s-10 -11 -10 -22v-14h-84v14c0 24 0 38 8 54c8 15 14 21 46 50l26 24c19 17 42 36 42 71c0 37 -26 61 -74 61s-74 -25 -74 -65c0 -20 7 -39 7 -39l-95 14s-6 22 -6 42c0 56 47 120 171 120
c121 0 175 -60 175 -129zM270 130v-130h-108v130h108z" />
    <glyph glyph-name="questiondown.sc" horiz-adv-x="456" 
d="M56 115c0 67 52 105 76 127l26 24c13 12 23 23 30 30s10 11 10 22v14h84v-14c0 -24 0 -38 -8 -54c-8 -15 -14 -21 -46 -50l-26 -24c-19 -17 -42 -36 -42 -71c0 -37 26 -61 74 -61s74 25 74 65c0 20 -7 39 -7 39l95 -14s6 -22 6 -42c0 -56 -47 -120 -171 -120
c-121 0 -175 60 -175 129zM186 382v130h108v-130h-108z" />
    <glyph glyph-name="at.sc" horiz-adv-x="890" 
d="M824 290c0 -188 -128 -270 -218 -270s-114 62 -116 78h-2c-6 -12 -38 -76 -118 -76s-128 58 -128 164s44 178 80 216c27 28 66 52 124 52s88 -30 100 -62h2l16 50h90l-62 -242c-6 -24 -10 -46 -10 -60s2 -50 44 -50s126 44 126 200s-98 276 -290 276s-320 -138 -320 -330
c0 -188 120 -316 314 -316c158 0 238 68 238 68l34 -54s-94 -78 -272 -78c-242 0 -388 158 -388 379c0 241 172 397 394 397s362 -154 362 -342zM494 192l32 126c-6 46 -40 66 -68 66s-54 -10 -78 -40s-48 -80 -48 -154c0 -66 24 -94 66 -94s82 42 96 96z" />
    <glyph glyph-name="asterisk.sc" horiz-adv-x="414" 
d="M348 437v-72l-104 15l68 -86l-62 -36l-43 100l-43 -100l-62 36l68 86l-104 -15v72l104 -15l-68 86l62 36l43 -100l43 100l62 -36l-68 -86z" />
    <glyph glyph-name="copyright.sc" horiz-adv-x="632" 
d="M584 258c0 -148 -120 -268 -268 -268s-268 120 -268 268s120 268 268 268s268 -120 268 -268zM538 258c0 124 -98 224 -222 224s-222 -100 -222 -224s98 -224 222 -224s222 100 222 224zM390 216l68 -16c-6 -32 -44 -104 -140 -104s-152 66 -152 162s56 162 152 162
s131 -70 135 -100l-65 -20c-4 18 -20 60 -68 60s-74 -44 -74 -102s24 -102 74 -102s66 42 70 60z" />
    <glyph glyph-name="pressmark.sc" horiz-adv-x="580" 
d="M532 375c0 -134 -108 -242 -242 -242s-242 108 -242 242s108 242 242 242s242 -108 242 -242zM489 375c0 112 -87 201 -199 201s-199 -89 -199 -201s87 -201 199 -201s199 89 199 201zM416 429c0 -58 -42 -83 -100 -83h-60v-108h-60v274h120c58 0 100 -25 100 -83z
M353 429c0 28 -19 36 -47 36h-51v-72h51c28 0 47 8 47 36z" />
    <glyph glyph-name="registered.sc" horiz-adv-x="580" 
d="M532 375c0 -134 -108 -242 -242 -242s-242 108 -242 242s108 242 242 242s242 -108 242 -242zM489 375c0 112 -87 201 -199 201s-199 -89 -199 -201s87 -201 199 -201s199 89 199 201zM346 355l74 -117h-68l-68 112h-38v-112h-60v274h124c56 0 98 -25 98 -81
s-44 -74 -62 -76zM345 431c0 26 -21 34 -47 34h-53v-68h53c26 0 47 8 47 34z" />
    <glyph glyph-name="trademark.sc" horiz-adv-x="660" 
d="M576 512v-274h-60v180c0 22 1 50 1 50h-2s-6 -28 -11 -50l-43 -180h-67l-43 180c-5 22 -11 50 -11 50h-2s1 -28 1 -50v-180h-56v274h99l38 -162c6 -24 9 -46 9 -46h2s3 22 9 46l37 162h99zM42 512h212l-8 -48h-70v-226h-60v226h-74v48z" />
    <glyph glyph-name="backslash.sc" horiz-adv-x="407" 
d="M71 576h77l188 -576h-77z" />
    <glyph glyph-name="slash.sc" horiz-adv-x="407" 
d="M259 576h77l-188 -576h-77z" />
    <glyph glyph-name="macron.sc" 
d="M432 668v-68h-314v68h314z" />
    <glyph glyph-name="acute.sc" 
d="M254 702h110l-98 -136h-80z" />
    <glyph glyph-name="circumflex.sc" 
d="M332 702l68 -136h-70l-54 76h-2l-54 -76h-70l68 136h114z" />
    <glyph glyph-name="caron.sc" 
d="M330 702h70l-68 -136h-114l-68 136h70l54 -76h2z" />
    <glyph glyph-name="breve.sc" 
d="M359 700l62 -20c-18 -72 -66 -110 -146 -110s-128 38 -146 110l62 20c9 -36 36 -66 84 -66s75 30 84 66z" />
    <glyph glyph-name="dotaccent.sc" 
d="M318 695v-122h-86v122h86z" />
    <glyph glyph-name="ring.sc" 
d="M386 634c0 -60 -51 -88 -111 -88s-111 28 -111 88s51 88 111 88s111 -28 111 -88zM322 634c0 28 -19 45 -47 45s-47 -17 -47 -45s19 -45 47 -45s47 17 47 45z" />
    <glyph glyph-name="tilde.sc" 
d="M376 690l54 -14l-2 -18c-6 -56 -40 -90 -92 -90s-76 31 -79 34l-2 2c-2 2 -19 24 -39 24s-34 -12 -40 -40l-2 -10l-54 14l2 18c6 56 40 90 92 90s76 -31 79 -34l2 -2c2 -2 19 -24 39 -24s34 12 40 40z" />
    <glyph glyph-name="hungarumlaut.sc" 
d="M341 702h110l-98 -136h-80zM167 702h110l-98 -136h-80z" />
    <glyph glyph-name="grave.sc" 
d="M296 702l68 -136h-80l-98 136h110z" />
    <glyph glyph-name="dieresis.sc" 
d="M394 702v-136h-82v136h82zM238 702v-136h-82v136h82z" />
    <glyph glyph-name="ogonek.sc" 
d="M232 0h80c-32 -24 -52 -54 -52 -88s20 -52 48 -52s42 14 42 14h2l20 -58s-28 -22 -86 -22s-108 40 -108 106s54 100 54 100z" />
    <glyph glyph-name="commaaccent.sc" 
d="M329 -54v-113c0 -70 -31 -114 -76 -137l-32 39c26 13 47 46 47 82v10h-35v119h96z" />
    <glyph glyph-name="uni00A0" unicode="&#xa0;" horiz-adv-x="248" 
 />
    <glyph glyph-name="uni0162" unicode="&#x162;" horiz-adv-x="533" 
d="M7 688h527l-17 -93h-196v-595h-109v595h-205v93zM315 -54v-113c0 -70 -31 -114 -76 -137l-32 39c26 13 47 46 47 82v10h-35v119h96z" />
    <glyph glyph-name="uni0163" unicode="&#x163;" horiz-adv-x="371" 
d="M280 -54v-113c0 -70 -31 -114 -76 -137l-32 39c26 13 47 46 47 82v10h-35v119h96zM329 83l18 -74s-41 -23 -107 -23s-127 30 -127 138v293h-87v77h87v135l105 24h2v-159h122v-77h-122v-291c0 -44 22 -54 54 -54s53 11 53 11h2z" />
    <glyph glyph-name="uni021A" unicode="&#x21a;" horiz-adv-x="533" 
d="M7 688h527l-17 -93h-196v-595h-109v595h-205v93zM315 -54v-113c0 -70 -31 -114 -76 -137l-32 39c26 13 47 46 47 82v10h-35v119h96z" />
    <glyph glyph-name="uni021B" unicode="&#x21b;" horiz-adv-x="371" 
d="M280 -54v-113c0 -70 -31 -114 -76 -137l-32 39c26 13 47 46 47 82v10h-35v119h96zM329 83l18 -74s-41 -23 -107 -23s-127 30 -127 138v293h-87v77h87v135l105 24h2v-159h122v-77h-122v-291c0 -44 22 -54 54 -54s53 11 53 11h2z" />
    <glyph glyph-name="uni02C9" unicode="&#x2c9;" 
d="M432 664v-64h-314v64h314z" />
    <glyph glyph-name="uni0394" unicode="&#x394;" 
d="M523 60v-60h-496v60l208 642h80zM117 78h316l-157 497h-2z" />
    <glyph glyph-name="uni03A9" unicode="&#x3a9;" 
d="M514 80v-80h-213v74c47 34 120 142 120 308s-62 246 -146 246s-146 -80 -146 -246s74 -274 120 -308v-74h-213v80h116v2c-12 12 -113 112 -113 308s92 322 236 322s236 -126 236 -322s-101 -296 -113 -308v-2h116z" />
    <glyph glyph-name="uni03BC" unicode="&#x3bc;" horiz-adv-x="583" 
d="M503 494v-494h-105v77h-2c-9 -21 -56 -91 -152 -91c-26 0 -50 6 -59 14v-190h-107v684h107v-306c0 -60 15 -114 87 -114s124 62 124 142v278h107z" />
    <glyph glyph-name="afii61289" unicode="&#x2113;" horiz-adv-x="499" 
d="M434 165l44 -42c-48 -93 -119 -133 -197 -133c-117 0 -166 82 -173 176v12c-17 -13 -36 -30 -55 -44l-27 56c29 24 56 45 81 69v264c0 180 80 248 166 248c90 0 132 -76 132 -171c0 -122 -79 -239 -201 -358v-38c1 -93 46 -133 99 -133c58 0 105 49 131 94zM204 526v-189
c77 88 135 180 135 265c0 58 -17 95 -63 95c-33 0 -72 -40 -72 -171z" />
    <glyph glyph-name="estimated" unicode="&#x212e;" horiz-adv-x="878" 
d="M843 340h-655c-3 0 -5 -1 -5 -4v-199c0 -8 3 -16 8 -22c64 -66 151 -108 248 -108c104 0 197 47 261 121h58c-72 -85 -190 -141 -320 -141c-223 0 -404 162 -404 363s181 364 404 364c224 0 405 -163 405 -364v-10zM694 366v199c0 9 -3 17 -10 24
c-63 62 -149 103 -245 103s-183 -42 -247 -107c-6 -6 -9 -15 -9 -24v-195c0 -2 2 -7 5 -7h502c3 0 4 5 4 7z" />
    <glyph glyph-name="uni2215" unicode="&#x2215;" horiz-adv-x="130" 
d="M204 688h84l-362 -688h-84z" />
    <glyph glyph-name="uni2219" unicode="&#x2219;" horiz-adv-x="275" 
d="M191 336v-138h-106v138h106z" />
    <glyph glyph-name="uniF8FF" unicode="&#xf8ff;" horiz-adv-x="500" 
d="M12 0v665h475v-665h-475zM88 618l162 -243l161 243h-323zM60 575v-484c0 -1 161 242 161 242zM440 575l-162 -242l162 -243v485zM411 48l-161 242l-162 -242h323z" />
    <glyph glyph-name="f_i" unicode="&#xf001;" horiz-adv-x="617" 
d="M535 700v-118h-107v118h107zM535 494v-494h-107v494h107zM353 690l-20 -73h-2c-19 11 -39 16 -57 16s-30 -3 -40 -13s-13 -26 -13 -48v-78h116v-77h-116v-417h-107v417h-88v77h88v86c0 46 10 76 32 98s52 36 104 36s92 -18 103 -24z" />
    <glyph glyph-name="f_l" unicode="&#xf002;" horiz-adv-x="621" 
d="M537 700v-700h-107v700h107zM353 690l-20 -73h-2c-19 11 -39 16 -57 16s-30 -3 -40 -13s-13 -26 -13 -48v-78h116v-77h-116v-417h-107v417h-88v77h88v86c0 46 10 76 32 98s52 36 104 36s92 -18 103 -24z" />
    <glyph glyph-name="zero.superior" unicode="&#x2070;" horiz-adv-x="436" 
d="M376 687c0 -136 -58 -218 -159 -218c-102 0 -157 82 -157 218s56 216 159 216c102 0 157 -80 157 -216zM284 687c0 96 -23 146 -65 146s-67 -50 -67 -146s23 -146 65 -146s67 50 67 146z" />
    <glyph glyph-name="four.superior" unicode="&#x2074;" horiz-adv-x="436" 
d="M394 632v-72h-58v-79h-92v79h-202v74l190 258h104v-260h58zM149 630h96v126c0 24 1 50 1 50h-2s-16 -26 -28 -42l-70 -97c-10 -13 -28 -36 -28 -36v-2s18 1 31 1z" />
    <glyph glyph-name="five.superior" unicode="&#x2075;" horiz-adv-x="436" 
d="M366 619c0 -88 -54 -150 -154 -150s-138 60 -138 100c0 10 2 20 2 20l79 18s-2 -10 -2 -20c0 -32 25 -54 59 -54s66 24 66 84s-30 78 -60 78s-52 -12 -64 -38l-74 13l30 219h240l-10 -66h-162l-14 -94h2s24 26 76 26c68 0 124 -48 124 -136z" />
    <glyph glyph-name="six.superior" unicode="&#x2076;" horiz-adv-x="436" 
d="M384 620c0 -79 -50 -151 -150 -151c-104 0 -164 77 -164 215c0 145 66 219 176 219c90 0 126 -49 126 -86c0 -9 -2 -20 -2 -20l-80 -12s2 6 2 15c0 24 -16 41 -50 41c-30 0 -49 -13 -64 -40s-20 -57 -20 -92h2c4 11 34 46 96 46c83 0 128 -61 128 -135zM294 615
c0 48 -24 80 -64 80s-65 -32 -65 -80s24 -80 64 -80s65 32 65 80z" />
    <glyph glyph-name="seven.superior" unicode="&#x2077;" horiz-adv-x="436" 
d="M360 889v-62c-22 -24 -64 -96 -85 -148c-19 -47 -40 -123 -48 -196h-92c8 68 26 134 54 200c23 54 50 102 78 138v2s-28 -1 -56 -1h-136v67h285z" />
    <glyph glyph-name="eight.superior" unicode="&#x2078;" horiz-adv-x="436" 
d="M375 596c0 -78 -61 -127 -157 -127s-157 49 -157 127s56 99 78 105v2c-5 2 -62 20 -62 90s61 110 141 110s141 -40 141 -110s-57 -88 -62 -90v-2c22 -6 78 -27 78 -105zM272 787c0 34 -20 54 -54 54s-54 -20 -54 -54s20 -54 54 -54s54 20 54 54zM283 602
c0 44 -21 70 -65 70s-65 -26 -65 -70s21 -71 65 -71s65 27 65 71z" />
    <glyph glyph-name="nine.superior" unicode="&#x2079;" horiz-adv-x="436" 
d="M366 689c0 -145 -66 -220 -176 -220c-93 0 -128 52 -128 88c0 12 2 20 2 20l80 12s-2 -8 -2 -16c0 -24 17 -40 52 -40c36 0 52 19 64 40c15 27 20 57 20 92h-2c-4 -11 -34 -46 -96 -46c-82 0 -128 60 -128 134c0 79 50 150 150 150c104 0 164 -76 164 -214zM271 763
c0 48 -24 78 -64 78s-65 -30 -65 -78s24 -80 64 -80s65 32 65 80z" />
    <glyph glyph-name="zero.denominator" horiz-adv-x="436" 
d="M376 202c0 -136 -58 -218 -159 -218c-102 0 -157 82 -157 218s56 216 159 216c102 0 157 -80 157 -216zM284 202c0 96 -23 146 -65 146s-67 -50 -67 -146s23 -146 65 -146s67 50 67 146z" />
    <glyph glyph-name="one.denominator" horiz-adv-x="336" 
d="M236 408v-408h-91v306h-2c-15 -16 -51 -34 -73 -42l-26 64c22 8 50 23 66 34s36 30 43 46h83z" />
    <glyph glyph-name="two.denominator" horiz-adv-x="436" 
d="M374 74v-74h-302c0 48 12 88 40 126s52 54 72 70l18 14c38 30 70 48 70 86s-25 58 -60 58c-38 0 -58 -24 -58 -58c0 -24 6 -40 6 -40l-82 8s-6 16 -6 40c0 70 56 114 142 114s148 -44 148 -118s-60 -110 -84 -128l-18 -14c-12 -10 -38 -28 -52 -42s-22 -28 -26 -40v-2
h192z" />
    <glyph glyph-name="three.denominator" horiz-adv-x="436" 
d="M366 112c0 -76 -56 -128 -152 -128s-144 52 -144 116c0 12 2 20 2 20l82 16s-2 -8 -2 -20c0 -48 24 -68 62 -68s64 20 64 68s-26 70 -70 70h-26v60h24c36 0 59 19 59 57c0 34 -19 55 -55 55s-56 -22 -56 -52c0 -14 4 -30 4 -30l-76 10s-4 16 -4 30c0 56 42 102 132 102
s142 -46 142 -112s-54 -84 -66 -88v-2c26 -6 80 -28 80 -104z" />
    <glyph glyph-name="four.denominator" horiz-adv-x="436" 
d="M394 150v-72h-58v-79h-92v79h-202v74l190 258h104v-260h58zM149 148h96v126c0 24 1 50 1 50h-2s-16 -26 -28 -42l-70 -97c-10 -13 -28 -36 -28 -36v-2s18 1 31 1z" />
    <glyph glyph-name="five.denominator" horiz-adv-x="436" 
d="M366 134c0 -88 -54 -150 -154 -150s-138 60 -138 100c0 10 2 20 2 20l79 18s-2 -10 -2 -20c0 -32 25 -54 59 -54s66 24 66 84s-30 78 -60 78s-52 -12 -64 -38l-74 13l30 219h240l-10 -66h-162l-14 -94h2s24 26 76 26c68 0 124 -48 124 -136z" />
    <glyph glyph-name="six.denominator" horiz-adv-x="436" 
d="M384 135c0 -79 -50 -151 -150 -151c-104 0 -164 77 -164 215c0 145 66 219 176 219c90 0 126 -49 126 -86c0 -9 -2 -20 -2 -20l-80 -12s2 6 2 15c0 24 -16 41 -50 41c-30 0 -49 -13 -64 -40s-20 -57 -20 -92h2c4 11 34 46 96 46c83 0 128 -61 128 -135zM294 130
c0 48 -24 80 -64 80s-65 -32 -65 -80s24 -80 64 -80s65 32 65 80z" />
    <glyph glyph-name="seven.denominator" horiz-adv-x="436" 
d="M360 404v-62c-22 -24 -64 -96 -85 -148c-19 -47 -40 -123 -48 -196h-92c8 68 26 134 54 200c23 54 50 102 78 138v2s-28 -1 -56 -1h-136v67h285z" />
    <glyph glyph-name="eight.denominator" horiz-adv-x="436" 
d="M375 111c0 -78 -61 -127 -157 -127s-157 49 -157 127s56 99 78 105v2c-5 2 -62 20 -62 90s61 110 141 110s141 -40 141 -110s-57 -88 -62 -90v-2c22 -6 78 -27 78 -105zM272 302c0 34 -20 54 -54 54s-54 -20 -54 -54s20 -54 54 -54s54 20 54 54zM283 117
c0 44 -21 70 -65 70s-65 -26 -65 -70s21 -71 65 -71s65 27 65 71z" />
    <glyph glyph-name="nine.denominator" horiz-adv-x="436" 
d="M366 204c0 -145 -66 -220 -176 -220c-93 0 -128 52 -128 88c0 12 2 20 2 20l80 12s-2 -8 -2 -16c0 -24 17 -40 52 -40c36 0 52 19 64 40c15 27 20 57 20 92h-2c-4 -11 -34 -46 -96 -46c-82 0 -128 60 -128 134c0 79 50 150 150 150c104 0 164 -76 164 -214zM271 278
c0 48 -24 78 -64 78s-65 -30 -65 -78s24 -80 64 -80s65 32 65 80z" />
    <glyph glyph-name="zero.numerator" horiz-adv-x="436" 
d="M376 486c0 -136 -58 -218 -159 -218c-102 0 -157 82 -157 218s56 216 159 216c102 0 157 -80 157 -216zM284 486c0 96 -23 146 -65 146s-67 -50 -67 -146s23 -146 65 -146s67 50 67 146z" />
    <glyph glyph-name="one.numerator" horiz-adv-x="336" 
d="M236 690v-408h-91v306h-2c-15 -16 -51 -34 -73 -42l-26 64c22 8 50 23 66 34s36 30 43 46h83z" />
    <glyph glyph-name="two.numerator" horiz-adv-x="436" 
d="M374 358v-74h-302c0 48 12 88 40 126s52 54 72 70l18 14c38 30 70 48 70 86s-25 58 -60 58c-38 0 -58 -24 -58 -58c0 -24 6 -40 6 -40l-82 8s-6 16 -6 40c0 70 56 114 142 114s148 -44 148 -118s-60 -110 -84 -128l-18 -14c-12 -10 -38 -28 -52 -42s-22 -28 -26 -40v-2
h192z" />
    <glyph glyph-name="three.numerator" horiz-adv-x="436" 
d="M366 396c0 -76 -56 -128 -152 -128s-144 52 -144 116c0 12 2 20 2 20l82 16s-2 -8 -2 -20c0 -48 24 -68 62 -68s64 20 64 68s-26 70 -70 70h-26v60h24c36 0 59 19 59 57c0 34 -19 55 -55 55s-56 -22 -56 -52c0 -14 4 -30 4 -30l-76 10s-4 16 -4 30c0 56 42 102 132 102
s142 -46 142 -112s-54 -84 -66 -88v-2c26 -6 80 -28 80 -104z" />
    <glyph glyph-name="four.numerator" horiz-adv-x="436" 
d="M394 431v-72h-58v-79h-92v79h-202v74l190 258h104v-260h58zM149 429h96v126c0 24 1 50 1 50h-2s-16 -26 -28 -42l-70 -97c-10 -13 -28 -36 -28 -36v-2s18 1 31 1z" />
    <glyph glyph-name="five.numerator" horiz-adv-x="436" 
d="M366 418c0 -88 -54 -150 -154 -150s-138 60 -138 100c0 10 2 20 2 20l79 18s-2 -10 -2 -20c0 -32 25 -54 59 -54s66 24 66 84s-30 78 -60 78s-52 -12 -64 -38l-74 13l30 219h240l-10 -66h-162l-14 -94h2s24 26 76 26c68 0 124 -48 124 -136z" />
    <glyph glyph-name="six.numerator" horiz-adv-x="436" 
d="M384 419c0 -79 -50 -151 -150 -151c-104 0 -164 77 -164 215c0 145 66 219 176 219c90 0 126 -49 126 -86c0 -9 -2 -20 -2 -20l-80 -12s2 6 2 15c0 24 -16 41 -50 41c-30 0 -49 -13 -64 -40s-20 -57 -20 -92h2c4 11 34 46 96 46c83 0 128 -61 128 -135zM294 414
c0 48 -24 80 -64 80s-65 -32 -65 -80s24 -80 64 -80s65 32 65 80z" />
    <glyph glyph-name="seven.numerator" horiz-adv-x="436" 
d="M360 688v-62c-22 -24 -64 -96 -85 -148c-19 -47 -40 -123 -48 -196h-92c8 68 26 134 54 200c23 54 50 102 78 138v2s-28 -1 -56 -1h-136v67h285z" />
    <glyph glyph-name="eight.numerator" horiz-adv-x="436" 
d="M375 395c0 -78 -61 -127 -157 -127s-157 49 -157 127s56 99 78 105v2c-5 2 -62 20 -62 90s61 110 141 110s141 -40 141 -110s-57 -88 -62 -90v-2c22 -6 78 -27 78 -105zM272 586c0 34 -20 54 -54 54s-54 -20 -54 -54s20 -54 54 -54s54 20 54 54zM283 401
c0 44 -21 70 -65 70s-65 -26 -65 -70s21 -71 65 -71s65 27 65 71z" />
    <glyph glyph-name="nine.numerator" horiz-adv-x="436" 
d="M366 488c0 -145 -66 -220 -176 -220c-93 0 -128 52 -128 88c0 12 2 20 2 20l80 12s-2 -8 -2 -16c0 -24 17 -40 52 -40c36 0 52 19 64 40c15 27 20 57 20 92h-2c-4 -11 -34 -46 -96 -46c-82 0 -128 60 -128 134c0 79 50 150 150 150c104 0 164 -76 164 -214zM271 562
c0 48 -24 78 -64 78s-65 -30 -65 -78s24 -80 64 -80s65 32 65 80z" />
    <glyph glyph-name="zero.inferior" unicode="&#x2080;" horiz-adv-x="436" 
d="M376 2c0 -136 -58 -218 -159 -218c-102 0 -157 82 -157 218s56 216 159 216c102 0 157 -80 157 -216zM284 2c0 96 -23 146 -65 146s-67 -50 -67 -146s23 -146 65 -146s67 50 67 146z" />
    <glyph glyph-name="one.inferior" unicode="&#x2081;" horiz-adv-x="336" 
d="M236 208v-408h-91v306h-2c-15 -16 -51 -34 -73 -42l-26 64c22 8 50 23 66 34s36 30 43 46h83z" />
    <glyph glyph-name="two.inferior" unicode="&#x2082;" horiz-adv-x="436" 
d="M374 -126v-74h-302c0 48 12 88 40 126s52 54 72 70l18 14c38 30 70 48 70 86s-25 58 -60 58c-38 0 -58 -24 -58 -58c0 -24 6 -40 6 -40l-82 8s-6 16 -6 40c0 70 56 114 142 114s148 -44 148 -118s-60 -110 -84 -128l-18 -14c-12 -10 -38 -28 -52 -42s-22 -28 -26 -40v-2
h192z" />
    <glyph glyph-name="three.inferior" unicode="&#x2083;" horiz-adv-x="436" 
d="M366 -88c0 -76 -56 -128 -152 -128s-144 52 -144 116c0 12 2 20 2 20l82 16s-2 -8 -2 -20c0 -48 24 -68 62 -68s64 20 64 68s-26 70 -70 70h-26v60h24c36 0 59 19 59 57c0 34 -19 55 -55 55s-56 -22 -56 -52c0 -14 4 -30 4 -30l-76 10s-4 16 -4 30c0 56 42 102 132 102
s142 -46 142 -112s-54 -84 -66 -88v-2c26 -6 80 -28 80 -104z" />
    <glyph glyph-name="four.inferior" unicode="&#x2084;" horiz-adv-x="436" 
d="M394 -50v-72h-58v-79h-92v79h-202v74l190 258h104v-260h58zM149 -52h96v126c0 24 1 50 1 50h-2s-16 -26 -28 -42l-70 -97c-10 -13 -28 -36 -28 -36v-2s18 1 31 1z" />
    <glyph glyph-name="five.inferior" unicode="&#x2085;" horiz-adv-x="436" 
d="M366 -66c0 -88 -54 -150 -154 -150s-138 60 -138 100c0 10 2 20 2 20l79 18s-2 -10 -2 -20c0 -32 25 -54 59 -54s66 24 66 84s-30 78 -60 78s-52 -12 -64 -38l-74 13l30 219h240l-10 -66h-162l-14 -94h2s24 26 76 26c68 0 124 -48 124 -136z" />
    <glyph glyph-name="six.inferior" unicode="&#x2086;" horiz-adv-x="436" 
d="M384 -65c0 -79 -50 -151 -150 -151c-104 0 -164 77 -164 215c0 145 66 219 176 219c90 0 126 -49 126 -86c0 -9 -2 -20 -2 -20l-80 -12s2 6 2 15c0 24 -16 41 -50 41c-30 0 -49 -13 -64 -40s-20 -57 -20 -92h2c4 11 34 46 96 46c83 0 128 -61 128 -135zM294 -70
c0 48 -24 80 -64 80s-65 -32 -65 -80s24 -80 64 -80s65 32 65 80z" />
    <glyph glyph-name="seven.inferior" unicode="&#x2087;" horiz-adv-x="436" 
d="M360 204v-62c-22 -24 -64 -96 -85 -148c-19 -47 -40 -123 -48 -196h-92c8 68 26 134 54 200c23 54 50 102 78 138v2s-28 -1 -56 -1h-136v67h285z" />
    <glyph glyph-name="eight.inferior" unicode="&#x2088;" horiz-adv-x="436" 
d="M375 -89c0 -78 -61 -127 -157 -127s-157 49 -157 127s56 99 78 105v2c-5 2 -62 20 -62 90s61 110 141 110s141 -40 141 -110s-57 -88 -62 -90v-2c22 -6 78 -27 78 -105zM272 102c0 34 -20 54 -54 54s-54 -20 -54 -54s20 -54 54 -54s54 20 54 54zM283 -83
c0 44 -21 70 -65 70s-65 -26 -65 -70s21 -71 65 -71s65 27 65 71z" />
    <glyph glyph-name="nine.inferior" unicode="&#x2089;" horiz-adv-x="436" 
d="M366 4c0 -145 -66 -220 -176 -220c-93 0 -128 52 -128 88c0 12 2 20 2 20l80 12s-2 -8 -2 -16c0 -24 17 -40 52 -40c36 0 52 19 64 40c15 27 20 57 20 92h-2c-4 -11 -34 -46 -96 -46c-82 0 -128 60 -128 134c0 79 50 150 150 150c104 0 164 -76 164 -214zM271 78
c0 48 -24 78 -64 78s-65 -30 -65 -78s24 -80 64 -80s65 32 65 80z" />
    <glyph glyph-name="zero.onum.tab" 
d="M507 256c0 -148 -82 -270 -232 -270s-232 122 -232 270s82 270 232 270s232 -122 232 -270zM398 257c0 91 -31 185 -123 185s-123 -94 -123 -185s31 -185 123 -185s123 95 123 185z" />
    <glyph glyph-name="one.onum.tab" 
d="M361 514v-432h135v-82h-374v82h132v296h-2c-5 -6 -24 -22 -40 -32s-46 -28 -82 -40l-34 78c38 12 82 38 110 60s53 46 64 70h91z" />
    <glyph glyph-name="two.onum.tab" 
d="M480 90v-90h-410c0 60 18 110 44 148s63 70 124 106l40 24c70 42 84 60 84 94s-24 76 -94 76s-96 -44 -96 -86c0 -32 9 -46 9 -46l-98 14s-9 14 -9 46c0 68 56 150 196 150s198 -76 198 -154s-60 -120 -108 -148l-34 -20c-28 -16 -62 -36 -82 -54s-36 -38 -42 -58v-2h278
z" />
    <glyph glyph-name="three.onum.tab" 
d="M470 64c0 -134 -94 -218 -220 -218s-196 74 -196 174c0 22 4 34 4 34l97 16s-4 -14 -4 -36c0 -72 35 -108 97 -108s114 38 114 136s-54 136 -112 136c-42 0 -62 -14 -62 -14l-40 66l180 176v2h-240v84h362v-78l-170 -166v-2h12c86 0 178 -68 178 -202z" />
    <glyph glyph-name="four.onum.tab" 
d="M528 90v-90h-91v-142h-107v142h-306v100l283 412h130v-422h91zM190 90h140v274c0 30 2 58 2 58h-2s-14 -28 -34 -58l-156 -228c-12 -18 -34 -46 -34 -46v-2s42 2 84 2z" />
    <glyph glyph-name="five.onum.tab" 
d="M496 82c0 -150 -92 -236 -226 -236s-202 84 -202 170c0 8 2 18 2 18l100 18s-2 -10 -2 -18c0 -66 32 -108 102 -108s118 52 118 152s-52 138 -106 138s-92 -26 -110 -74l-96 20l48 350h348l-16 -86h-244l-26 -180h2c2 4 40 48 126 48s182 -62 182 -212z" />
    <glyph glyph-name="six.onum.tab" 
d="M506 224c0 -130 -76 -238 -224 -238s-228 122 -228 338s96 346 246 346s184 -112 186 -146l-94 -20c-3 50 -32 88 -92 88s-88 -36 -106 -68s-36 -96 -36 -170h2s44 84 154 84s192 -84 192 -214zM398 216c0 76 -30 144 -108 144s-118 -74 -118 -150s30 -144 108 -144
s118 74 118 150z" />
    <glyph glyph-name="seven.onum.tab" 
d="M476 512v-82c-34 -48 -94 -170 -126 -256s-64 -186 -76 -316h-110c14 130 46 234 82 326s70 160 118 240v2h-310v86h422z" />
    <glyph glyph-name="eight.onum.tab" 
d="M496 184c0 -126 -91 -198 -221 -198s-221 72 -221 198s96 164 122 171v2c-14 5 -100 35 -100 143s87 170 199 170s199 -62 199 -170s-86 -138 -100 -143v-2c26 -7 122 -45 122 -171zM368 494c0 60 -31 100 -93 100s-93 -40 -93 -100s31 -100 93 -100s93 40 93 100z
M388 192c0 72 -37 126 -113 126s-113 -54 -113 -126s37 -126 113 -126s113 54 113 126z" />
    <glyph glyph-name="nine.onum.tab" 
d="M44 292c0 130 81 234 223 234c149 0 229 -118 229 -332s-98 -348 -246 -348s-186 116 -188 150l94 22c4 -52 36 -94 96 -94s92 40 108 72s32 94 32 168h-2s-44 -86 -154 -86s-192 84 -192 214zM378 306c0 76 -30 142 -108 142s-118 -72 -118 -148s30 -142 108 -142
s118 72 118 148z" />
    <glyph glyph-name="uni0163.sc" horiz-adv-x="441" 
d="M2 512h446l-18 -78h-156v-434h-107v434h-165v78zM269 -54v-113c0 -70 -31 -114 -76 -137l-32 39c26 13 47 46 47 82v10h-35v119h96z" />
    <glyph glyph-name="uni021B.sc" horiz-adv-x="441" 
d="M2 512h446l-18 -78h-156v-434h-107v434h-165v78zM269 -54v-113c0 -70 -31 -114 -76 -137l-32 39c26 13 47 46 47 82v10h-35v119h96z" />
    <glyph glyph-name="i.dot" horiz-adv-x="271" 
d="M189 700v-118h-107v118h107zM189 494v-494h-107v494h107z" />
    <glyph glyph-name="idotaccent.sc" horiz-adv-x="271" 
d="M189 512v-512h-107v512h107zM178 695v-122h-86v122h86z" />
    <glyph glyph-name="g.alt" horiz-adv-x="536" 
d="M132 201c-22 15 -72 53 -72 137c0 104 78 170 201 170c71 0 115 -22 139 -40c24 28 60 40 102 40c14 0 23 -3 23 -3l-11 -71h-2s-14 6 -32 6s-32 -4 -43 -11c9 -15 25 -43 25 -91c0 -104 -79 -170 -201 -170c-47 0 -79 11 -79 11c-6 -1 -31 -11 -31 -41s21 -44 95 -44h84
c112 0 178 -40 178 -128s-80 -154 -242 -154s-228 60 -228 124s58 86 78 92v2c-26 10 -60 34 -60 82s34 76 76 87v2zM168 338c0 -64 35 -105 93 -105s93 41 93 105s-35 105 -93 105s-93 -41 -93 -105zM178 16c0 0 -48 -18 -48 -64s46 -74 136 -74s134 28 134 74
s-34 62 -100 62h-68c-30 0 -54 2 -54 2z" />
    <glyph glyph-name="gcircumflex.alt" horiz-adv-x="536" 
d="M328 700l68 -136h-70l-54 76h-2l-54 -76h-70l68 136h114zM132 201c-22 15 -72 53 -72 137c0 104 78 170 201 170c71 0 115 -22 139 -40c24 28 60 40 102 40c14 0 23 -3 23 -3l-11 -71h-2s-14 6 -32 6s-32 -4 -43 -11c9 -15 25 -43 25 -91c0 -104 -79 -170 -201 -170
c-47 0 -79 11 -79 11c-6 -1 -31 -11 -31 -41s21 -44 95 -44h84c112 0 178 -40 178 -128s-80 -154 -242 -154s-228 60 -228 124s58 86 78 92v2c-26 10 -60 34 -60 82s34 76 76 87v2zM168 338c0 -64 35 -105 93 -105s93 41 93 105s-35 105 -93 105s-93 -41 -93 -105zM178 16
c0 0 -48 -18 -48 -64s46 -74 136 -74s134 28 134 74s-34 62 -100 62h-68c-30 0 -54 2 -54 2z" />
    <glyph glyph-name="gbreve.alt" horiz-adv-x="536" 
d="M354 698l62 -20c-18 -72 -66 -110 -146 -110s-128 38 -146 110l62 20c9 -36 36 -66 84 -66s75 30 84 66zM132 201c-22 15 -72 53 -72 137c0 104 78 170 201 170c71 0 115 -22 139 -40c24 28 60 40 102 40c14 0 23 -3 23 -3l-11 -71h-2s-14 6 -32 6s-32 -4 -43 -11
c9 -15 25 -43 25 -91c0 -104 -79 -170 -201 -170c-47 0 -79 11 -79 11c-6 -1 -31 -11 -31 -41s21 -44 95 -44h84c112 0 178 -40 178 -128s-80 -154 -242 -154s-228 60 -228 124s58 86 78 92v2c-26 10 -60 34 -60 82s34 76 76 87v2zM168 338c0 -64 35 -105 93 -105
s93 41 93 105s-35 105 -93 105s-93 -41 -93 -105zM178 16c0 0 -48 -18 -48 -64s46 -74 136 -74s134 28 134 74s-34 62 -100 62h-68c-30 0 -54 2 -54 2z" />
    <glyph glyph-name="gdotaccent.alt" horiz-adv-x="536" 
d="M314 693v-122h-86v122h86zM132 201c-22 15 -72 53 -72 137c0 104 78 170 201 170c71 0 115 -22 139 -40c24 28 60 40 102 40c14 0 23 -3 23 -3l-11 -71h-2s-14 6 -32 6s-32 -4 -43 -11c9 -15 25 -43 25 -91c0 -104 -79 -170 -201 -170c-47 0 -79 11 -79 11
c-6 -1 -31 -11 -31 -41s21 -44 95 -44h84c112 0 178 -40 178 -128s-80 -154 -242 -154s-228 60 -228 124s58 86 78 92v2c-26 10 -60 34 -60 82s34 76 76 87v2zM168 338c0 -64 35 -105 93 -105s93 41 93 105s-35 105 -93 105s-93 -41 -93 -105zM178 16c0 0 -48 -18 -48 -64
s46 -74 136 -74s134 28 134 74s-34 62 -100 62h-68c-30 0 -54 2 -54 2z" />
    <glyph glyph-name="gcommaaccent.alt" horiz-adv-x="536" 
d="M218 564v113c0 70 31 114 76 137l32 -39c-26 -13 -47 -46 -47 -82v-10h35v-119h-96zM132 201c-22 15 -72 53 -72 137c0 104 78 170 201 170c71 0 115 -22 139 -40c24 28 60 40 102 40c14 0 23 -3 23 -3l-11 -71h-2s-14 6 -32 6s-32 -4 -43 -11c9 -15 25 -43 25 -91
c0 -104 -79 -170 -201 -170c-47 0 -79 11 -79 11c-6 -1 -31 -11 -31 -41s21 -44 95 -44h84c112 0 178 -40 178 -128s-80 -154 -242 -154s-228 60 -228 124s58 86 78 92v2c-26 10 -60 34 -60 82s34 76 76 87v2zM168 338c0 -64 35 -105 93 -105s93 41 93 105s-35 105 -93 105
s-93 -41 -93 -105zM178 16c0 0 -48 -18 -48 -64s46 -74 136 -74s134 28 134 74s-34 62 -100 62h-68c-30 0 -54 2 -54 2z" />
    </font>
</defs>
</svg>
